<?xml version="1.0" encoding="utf-8"?>
<!-- Generator: Adobe Illustrator 16.0.0, SVG Export Plug-In . SVG Version: 6.00 Build 0)  -->
<!DOCTYPE svg PUBLIC "-//W3C//DTD SVG 1.1//EN" "http://www.w3.org/Graphics/SVG/1.1/DTD/svg11.dtd">
<svg version="1.1" id="Layer_1" xmlns="http://www.w3.org/2000/svg" xmlns:xlink="http://www.w3.org/1999/xlink" x="0px" y="0px"
	 width="143.078px" height="88.164px" viewBox="0 0 143.078 88.164" enable-background="new 0 0 143.078 88.164"
	 xml:space="preserve">
<g id="RING_DESCRIPTIONS">
</g>
<g id="LABELS">
	<g opacity="0.85">
		<g>
			<path fill="#71C163" d="M143.076,87.301l-14.832-72.729h-14.908V2.162H2.161v28.391h111.172V18.896l11.381-0.002l14.125,69.271
				L143.076,87.301L143.076,87.301L143.076,87.301z M15.054,23.352l-0.562-2.925h-1.786l-0.532,2.925H9.431l2.956-13.677h2.447
				l2.948,13.677H15.054z M26.201,15.146h-2.72v-1.261c0-0.248-0.005-0.462-0.015-0.642c-0.01-0.18-0.037-0.385-0.08-0.615
				s-0.102-0.418-0.175-0.562c-0.074-0.145-0.183-0.267-0.327-0.369c-0.144-0.102-0.318-0.152-0.521-0.152
				c-0.8,0-1.2,0.674-1.2,2.021v5.904c0,1.342,0.4,2.014,1.2,2.014c0.238,0,0.438-0.068,0.601-0.205
				c0.163-0.137,0.278-0.331,0.35-0.582c0.071-0.25,0.119-0.496,0.144-0.737s0.038-0.516,0.038-0.825v-1.406h2.705v1.155
				c-0.01,0.521-0.053,1.003-0.129,1.443c-0.076,0.441-0.206,0.869-0.388,1.284c-0.183,0.416-0.414,0.767-0.695,1.053
				c-0.281,0.286-0.646,0.517-1.09,0.691s-0.958,0.262-1.535,0.262c-0.592,0-1.118-0.085-1.577-0.255
				c-0.458-0.169-0.835-0.397-1.132-0.685c-0.297-0.287-0.541-0.638-0.733-1.056c-0.192-0.418-0.328-0.857-0.407-1.318
				c-0.079-0.461-0.118-0.968-0.118-1.52v-4.528c0-3.232,1.322-4.848,3.966-4.848c0.558,0,1.053,0.075,1.486,0.224
				c0.433,0.149,0.796,0.356,1.09,0.619c0.293,0.264,0.536,0.588,0.726,0.973c0.19,0.385,0.327,0.803,0.41,1.254
				c0.084,0.451,0.125,0.947,0.125,1.489L26.201,15.146L26.201,15.146z M35.121,15.146h-2.72v-1.261
				c0-0.248-0.005-0.462-0.015-0.642c-0.01-0.18-0.037-0.385-0.08-0.615c-0.043-0.23-0.102-0.418-0.175-0.562
				c-0.074-0.145-0.183-0.267-0.327-0.369c-0.144-0.102-0.318-0.152-0.521-0.152c-0.8,0-1.2,0.674-1.2,2.021v5.904
				c0,1.342,0.4,2.014,1.2,2.014c0.238,0,0.438-0.068,0.601-0.205c0.163-0.137,0.278-0.331,0.35-0.582
				c0.071-0.25,0.119-0.496,0.144-0.737s0.038-0.516,0.038-0.825v-1.406h2.705v1.155c-0.01,0.521-0.053,1.003-0.129,1.443
				c-0.076,0.441-0.206,0.869-0.388,1.284c-0.183,0.416-0.414,0.767-0.695,1.053c-0.281,0.286-0.645,0.517-1.09,0.691
				c-0.445,0.174-0.958,0.262-1.535,0.262c-0.592,0-1.118-0.085-1.577-0.255c-0.458-0.169-0.835-0.397-1.132-0.685
				c-0.297-0.287-0.541-0.638-0.733-1.056c-0.192-0.418-0.328-0.857-0.407-1.318s-0.118-0.968-0.118-1.52v-4.528
				c0-3.232,1.322-4.848,3.966-4.848c0.558,0,1.053,0.075,1.486,0.224c0.433,0.149,0.796,0.356,1.09,0.619
				c0.293,0.264,0.536,0.588,0.726,0.973c0.19,0.385,0.327,0.803,0.41,1.254c0.084,0.451,0.125,0.947,0.125,1.489L35.121,15.146
				L35.121,15.146z M44.24,18.785c0,0.547-0.041,1.053-0.122,1.516s-0.219,0.903-0.414,1.318c-0.195,0.416-0.443,0.769-0.745,1.06
				s-0.683,0.521-1.144,0.688s-0.988,0.251-1.581,0.251c-0.588,0-1.112-0.083-1.573-0.247s-0.841-0.388-1.14-0.669
				c-0.299-0.281-0.546-0.625-0.741-1.033c-0.195-0.408-0.334-0.842-0.418-1.303c-0.084-0.461-0.125-0.965-0.125-1.512v-4.597
				c0-3.232,1.333-4.848,3.997-4.848c2.669,0,4.004,1.616,4.004,4.848v4.528H44.24z M55.235,23.352h-2.037l-0.062-9.62
				c-0.152,0.988-0.418,2.591-0.798,4.81s-0.646,3.822-0.798,4.81h-2.067l-1.679-9.681l-0.061,9.681H45.69V9.675h3.313l1.459,9.118
				l1.573-9.118h3.199L55.235,23.352L55.235,23.352z M64.688,18.785c0,0.547-0.041,1.053-0.122,1.516s-0.219,0.903-0.414,1.318
				c-0.195,0.416-0.443,0.769-0.745,1.06c-0.302,0.291-0.683,0.521-1.145,0.688c-0.461,0.167-0.988,0.251-1.581,0.251
				c-0.588,0-1.112-0.083-1.573-0.247s-0.841-0.388-1.14-0.669c-0.299-0.281-0.546-0.625-0.741-1.033s-0.334-0.842-0.418-1.303
				s-0.125-0.965-0.125-1.512v-4.597c0-3.232,1.333-4.848,3.997-4.848c2.669,0,4.004,1.616,4.004,4.848v4.528H64.688z
				 M73.533,18.588c0,0.486-0.016,0.911-0.047,1.272c-0.029,0.361-0.087,0.717-0.171,1.063c-0.083,0.347-0.196,0.641-0.342,0.881
				c-0.146,0.241-0.331,0.465-0.56,0.672c-0.228,0.208-0.502,0.373-0.824,0.494c-0.322,0.122-0.699,0.215-1.132,0.281
				c-0.433,0.066-0.931,0.099-1.493,0.099h-2.827V9.675h2.857c0.912,0,1.663,0.082,2.253,0.247s1.054,0.436,1.391,0.813
				c0.337,0.377,0.569,0.83,0.698,1.355c0.129,0.527,0.195,1.198,0.195,2.014V18.588z M79.619,23.352l-0.562-2.925h-1.786
				l-0.531,2.925h-2.744l2.957-13.677h2.446l2.948,13.677H79.619z M88.88,11.742h-1.967v11.61h-2.767v-11.61h-2.006V9.675h6.739
				V11.742z M97.49,18.785c0,0.547-0.041,1.053-0.121,1.516c-0.082,0.463-0.22,0.903-0.414,1.318
				c-0.195,0.416-0.443,0.769-0.746,1.06c-0.301,0.291-0.683,0.521-1.144,0.688s-0.987,0.251-1.581,0.251
				c-0.588,0-1.111-0.083-1.572-0.247s-0.842-0.388-1.141-0.669c-0.299-0.281-0.546-0.625-0.74-1.033
				c-0.195-0.408-0.334-0.842-0.418-1.303c-0.085-0.461-0.125-0.965-0.125-1.512v-4.597c0-3.232,1.332-4.848,3.996-4.848
				c2.669,0,4.004,1.616,4.004,4.848v4.528H97.49z M103.729,23.352l-1.565-6.299h-0.455v6.299h-2.767V9.675h3.009
				c0.684,0,1.285,0.064,1.805,0.194c0.52,0.129,0.975,0.332,1.365,0.608c0.389,0.276,0.687,0.648,0.889,1.117
				c0.201,0.469,0.304,1.03,0.304,1.684c0,0.284-0.011,0.537-0.03,0.76c-0.021,0.223-0.066,0.478-0.141,0.764
				s-0.174,0.54-0.301,0.76c-0.125,0.221-0.309,0.437-0.547,0.65c-0.237,0.213-0.52,0.39-0.844,0.532
				c0.821,2.604,1.535,4.808,2.143,6.611h-2.864V23.352z M12.896,18.725h1.414l-0.691-5.076L12.896,18.725z M70.363,11.848
				c-0.27-0.146-0.719-0.223-1.354-0.228v9.794c0.264,0,0.471-0.004,0.624-0.012c0.152-0.007,0.304-0.026,0.456-0.058
				c0.152-0.031,0.264-0.072,0.334-0.125c0.07-0.053,0.137-0.13,0.198-0.231s0.1-0.221,0.118-0.361
				c0.018-0.139,0.026-0.312,0.026-0.521v-7.363C70.766,12.293,70.632,11.995,70.363,11.848z M60.683,11.544
				c-0.249,0-0.458,0.062-0.631,0.186c-0.172,0.125-0.299,0.294-0.38,0.509c-0.081,0.215-0.138,0.428-0.171,0.638
				s-0.049,0.439-0.049,0.688v5.912c0,1.343,0.41,2.014,1.231,2.014c0.826,0,1.238-0.671,1.238-2.014v-5.912
				C61.921,12.218,61.509,11.544,60.683,11.544z M77.46,18.725h1.414l-0.691-5.076L77.46,18.725z M93.486,11.544
				c-0.248,0-0.458,0.062-0.631,0.186c-0.172,0.125-0.299,0.294-0.38,0.509c-0.081,0.215-0.138,0.428-0.171,0.638
				s-0.049,0.439-0.049,0.688v5.912c0,1.343,0.41,2.014,1.23,2.014c0.826,0,1.238-0.671,1.238-2.014v-5.912
				C94.724,12.218,94.312,11.544,93.486,11.544z M103.406,12.421c-0.059-0.21-0.154-0.382-0.289-0.517
				c-0.134-0.135-0.297-0.201-0.49-0.201h-0.918v3.663h0.789c0.213,0,0.396-0.071,0.547-0.213c0.152-0.143,0.263-0.322,0.332-0.54
				c0.068-0.218,0.117-0.418,0.145-0.601s0.042-0.354,0.042-0.517s-0.013-0.329-0.034-0.501
				C103.503,12.823,103.464,12.632,103.406,12.421z M40.235,11.544c-0.249,0-0.458,0.062-0.631,0.186
				c-0.172,0.125-0.299,0.294-0.38,0.509c-0.081,0.215-0.138,0.428-0.171,0.638c-0.033,0.21-0.049,0.439-0.049,0.688v5.912
				c0,1.343,0.41,2.014,1.231,2.014c0.826,0,1.238-0.671,1.238-2.014v-5.912C41.474,12.218,41.061,11.544,40.235,11.544z"/>
		</g>
	</g>
</g>
</svg>
