<?xml version="1.0" encoding="utf-8"?>
<!-- Generator: Adobe Illustrator 16.0.0, SVG Export Plug-In . SVG Version: 6.00 Build 0)  -->
<!DOCTYPE svg PUBLIC "-//W3C//DTD SVG 1.1//EN" "http://www.w3.org/Graphics/SVG/1.1/DTD/svg11.dtd">
<svg version="1.1" id="Layer_1" xmlns="http://www.w3.org/2000/svg" xmlns:xlink="http://www.w3.org/1999/xlink" x="0px" y="0px"
	 width="292.179px" height="32.637px" viewBox="0 0 292.179 32.637" enable-background="new 0 0 292.179 32.637"
	 xml:space="preserve">
<g id="RING_DESCRIPTIONS">
</g>
<g id="LABELS">
	<g>
		<g>
			<path fill="#F08222" d="M291.766,8.344l-68.752,6.626H209.47V2.161H2.161v28.315H209.47V19.295l13.753-0.002l68.956-6.646
				L291.766,8.344z M15.053,23.277l-0.562-2.926h-1.786l-0.532,2.926H9.43L12.386,9.6h2.447l2.948,13.677H15.053z M26.056,18.513
				c0,0.486-0.015,0.911-0.046,1.272c-0.03,0.361-0.087,0.717-0.171,1.064c-0.083,0.347-0.197,0.641-0.342,0.881
				s-0.331,0.465-0.559,0.672c-0.228,0.208-0.503,0.373-0.824,0.494c-0.322,0.121-0.699,0.215-1.132,0.28
				c-0.433,0.066-0.931,0.099-1.493,0.099h-2.827V9.6h2.857c0.912,0,1.663,0.082,2.253,0.247c0.59,0.165,1.054,0.437,1.391,0.813
				s0.57,0.83,0.699,1.356c0.129,0.527,0.194,1.198,0.194,2.014V18.513z M37.051,23.277h-2.037l-0.061-9.62
				c-0.152,0.988-0.418,2.591-0.798,4.81c-0.38,2.219-0.646,3.822-0.798,4.811H31.29l-1.679-9.682l-0.061,9.682h-2.044V9.6h3.313
				l1.459,9.118L33.852,9.6h3.199V23.277z M41.443,23.277h-2.766V9.6h2.766V23.277z M50.356,23.277h-1.915l-2.994-7.591v7.591
				h-2.378V9.592h1.991l3.001,7.158V9.592h2.295V23.277z M54.748,23.277h-2.766V9.6h2.766V23.277z M62.248,22.643
				c-0.684,0.61-1.515,0.916-2.492,0.916c-0.633,0-1.195-0.117-1.687-0.35c-0.491-0.232-0.888-0.55-1.189-0.95
				c-0.301-0.399-0.533-0.844-0.695-1.33c-0.162-0.485-0.256-1.008-0.281-1.564l2.804-0.54c0,0.277,0.005,0.523,0.015,0.736
				c0.01,0.213,0.037,0.445,0.08,0.695c0.043,0.251,0.103,0.456,0.175,0.616c0.073,0.159,0.177,0.293,0.312,0.401
				c0.134,0.109,0.292,0.164,0.475,0.164c0.547,0,0.82-0.35,0.82-1.048c0-0.958-0.54-1.909-1.618-2.856l-0.859-0.729
				c-0.273-0.228-0.491-0.418-0.653-0.57s-0.354-0.357-0.574-0.615c-0.22-0.258-0.393-0.508-0.517-0.749
				c-0.125-0.241-0.23-0.531-0.319-0.87c-0.088-0.339-0.133-0.699-0.133-1.079c0-1.109,0.352-1.987,1.056-2.633
				c0.704-0.646,1.639-0.969,2.804-0.969c0.968,0,1.791,0.345,2.47,1.033c0.679,0.689,1.018,1.52,1.018,2.493l-0.007,0.1v0.228
				l-2.857,0.395c0-0.056,0.004-0.143,0.012-0.262c0.007-0.119,0.011-0.216,0.011-0.292c0-0.182-0.013-0.356-0.038-0.523
				c-0.025-0.167-0.067-0.334-0.125-0.501c-0.058-0.167-0.148-0.3-0.27-0.399c-0.122-0.099-0.269-0.148-0.441-0.148
				c-0.304,0-0.532,0.119-0.684,0.357c-0.152,0.238-0.228,0.521-0.228,0.843c0,0.284,0.044,0.55,0.133,0.798
				c0.089,0.249,0.223,0.48,0.403,0.695c0.18,0.215,0.346,0.395,0.498,0.536c0.152,0.142,0.354,0.315,0.608,0.521
				c0.253,0.206,0.433,0.356,0.54,0.452c0.39,0.345,0.719,0.667,0.988,0.969c0.27,0.301,0.522,0.642,0.76,1.021
				s0.417,0.79,0.536,1.231c0.119,0.439,0.178,0.917,0.178,1.428C63.273,21.249,62.932,22.033,62.248,22.643z M70.408,11.667H68.44
				v11.61h-2.766v-11.61h-2.006V9.6h6.74V11.667z M76.115,23.277l-1.565-6.299h-0.456v6.299h-2.766V9.6h3.009
				c0.684,0,1.285,0.064,1.805,0.194c0.519,0.129,0.974,0.332,1.364,0.608c0.39,0.275,0.687,0.647,0.889,1.117
				s0.304,1.03,0.304,1.683c0,0.284-0.01,0.537-0.03,0.76c-0.021,0.223-0.067,0.478-0.141,0.764c-0.074,0.286-0.174,0.54-0.3,0.76
				c-0.126,0.221-0.309,0.437-0.547,0.649c-0.238,0.213-0.52,0.39-0.844,0.532c0.821,2.604,1.535,4.809,2.143,6.611h-2.865V23.277z
				 M84.732,23.277l-0.562-2.926h-1.786l-0.532,2.926h-2.743L82.065,9.6h2.447l2.948,13.677H84.732z M93.994,11.667h-1.968v11.61
				H89.26v-11.61h-2.006V9.6h6.74V11.667z M102.604,18.71c0,0.547-0.041,1.053-0.122,1.517c-0.081,0.463-0.219,0.902-0.414,1.317
				c-0.195,0.416-0.443,0.769-0.745,1.06c-0.302,0.291-0.683,0.521-1.145,0.688c-0.461,0.167-0.988,0.251-1.581,0.251
				c-0.588,0-1.112-0.083-1.573-0.247s-0.841-0.388-1.14-0.669c-0.299-0.281-0.546-0.625-0.741-1.033s-0.334-0.842-0.418-1.303
				s-0.125-0.965-0.125-1.512v-4.598c0-3.231,1.333-4.848,3.997-4.848c2.669,0,4.004,1.616,4.004,4.848v4.528H102.604z
				 M108.842,23.277l-1.565-6.299h-0.456v6.299h-2.766V9.6h3.009c0.684,0,1.285,0.064,1.805,0.194
				c0.519,0.129,0.974,0.332,1.364,0.608c0.39,0.275,0.687,0.647,0.889,1.117s0.304,1.03,0.304,1.683c0,0.284-0.01,0.537-0.03,0.76
				c-0.021,0.223-0.067,0.478-0.141,0.764c-0.074,0.286-0.174,0.54-0.3,0.76c-0.126,0.221-0.309,0.437-0.547,0.649
				c-0.238,0.213-0.52,0.39-0.844,0.532c0.821,2.604,1.535,4.809,2.143,6.611h-2.865V23.277z M116.935,23.277h-1.36l4.384-13.943
				h1.368L116.935,23.277z M130.399,23.277l-1.565-6.299h-0.456v6.299h-2.766V9.6h3.009c0.684,0,1.285,0.064,1.805,0.194
				c0.519,0.129,0.974,0.332,1.364,0.608c0.39,0.275,0.687,0.647,0.889,1.117c0.202,0.469,0.304,1.03,0.304,1.683
				c0,0.284-0.01,0.537-0.03,0.76c-0.021,0.223-0.067,0.478-0.141,0.764c-0.074,0.286-0.174,0.54-0.3,0.76
				c-0.126,0.221-0.309,0.437-0.547,0.649c-0.238,0.213-0.52,0.39-0.844,0.532c0.821,2.604,1.535,4.809,2.143,6.611h-2.865V23.277z
				 M139.844,11.5h-2.939v3.723h2.082v1.945h-2.082v4.21h2.939v1.899h-5.707V9.6h5.707V11.5z M148.718,23.277h-1.898l-0.35-0.958
				c-0.233,0.364-0.564,0.659-0.996,0.885s-0.874,0.338-1.33,0.338c-0.491,0-0.938-0.09-1.341-0.271
				c-0.402-0.18-0.734-0.418-0.995-0.713c-0.261-0.297-0.48-0.646-0.657-1.045c-0.178-0.399-0.304-0.81-0.38-1.228
				c-0.076-0.417-0.114-0.847-0.114-1.288v-4.817c0-3.231,1.345-4.848,4.035-4.848c0.567,0,1.072,0.075,1.516,0.224
				c0.444,0.149,0.814,0.356,1.114,0.619c0.299,0.264,0.543,0.588,0.736,0.973s0.332,0.803,0.418,1.254
				c0.086,0.451,0.129,0.947,0.129,1.489v0.806h-2.645V13.74c0-0.238-0.006-0.447-0.019-0.627c-0.013-0.18-0.044-0.38-0.095-0.601
				c-0.051-0.221-0.119-0.4-0.205-0.543c-0.086-0.142-0.21-0.261-0.373-0.356c-0.163-0.096-0.354-0.146-0.577-0.146
				c-0.846,0-1.269,0.674-1.269,2.021v5.903c0,1.343,0.423,2.015,1.269,2.015c0.841,0,1.261-0.697,1.261-2.091v-1.094h-1.565V16.24
				h4.332V23.277L148.718,23.277z M158.158,18.194c0,0.436-0.014,0.831-0.039,1.186c-0.025,0.355-0.074,0.722-0.145,1.103
				c-0.071,0.38-0.167,0.716-0.289,1.007c-0.122,0.292-0.284,0.569-0.486,0.836c-0.201,0.266-0.441,0.485-0.718,0.657
				s-0.608,0.309-0.999,0.41s-0.828,0.151-1.314,0.151c-0.485,0-0.924-0.051-1.314-0.151c-0.391-0.102-0.723-0.238-0.995-0.41
				s-0.512-0.392-0.714-0.657c-0.202-0.267-0.365-0.544-0.486-0.836c-0.121-0.291-0.219-0.627-0.291-1.007
				c-0.074-0.381-0.123-0.747-0.148-1.103c-0.025-0.354-0.038-0.75-0.038-1.186V9.6h2.767v8.51c0,0.485,0.002,0.84,0.008,1.06
				c0.004,0.22,0.018,0.489,0.037,0.805c0.021,0.317,0.057,0.539,0.106,0.665c0.051,0.126,0.12,0.265,0.209,0.41
				c0.089,0.147,0.204,0.243,0.347,0.289c0.141,0.045,0.312,0.068,0.516,0.068s0.375-0.023,0.518-0.068
				c0.143-0.046,0.257-0.141,0.346-0.285c0.088-0.145,0.158-0.28,0.209-0.405c0.051-0.127,0.086-0.347,0.106-0.657
				c0.021-0.312,0.032-0.575,0.038-0.791c0.005-0.215,0.008-0.563,0.008-1.045V9.6h2.766v8.594H158.158z M165.208,23.277h-5.486V9.6
				h2.766v11.778h2.721V23.277z M170.968,23.277l-0.562-2.926h-1.785l-0.533,2.926h-2.742L168.3,9.6h2.447l2.949,13.677H170.968z
				 M180.23,11.667h-1.969v11.61h-2.766v-11.61h-2.006V9.6h6.74V11.667z M183.916,23.277h-2.766V9.6h2.766V23.277z M192.83,23.277
				h-1.916l-2.994-7.591v7.591h-2.377V9.592h1.99l3.002,7.158V9.592h2.295V23.277z M202.341,23.277h-1.898l-0.35-0.958
				c-0.233,0.364-0.565,0.659-0.996,0.885c-0.432,0.226-0.874,0.338-1.33,0.338c-0.491,0-0.938-0.09-1.342-0.271
				c-0.401-0.18-0.733-0.418-0.994-0.713c-0.262-0.297-0.48-0.646-0.657-1.045c-0.179-0.399-0.304-0.81-0.38-1.228
				c-0.076-0.417-0.113-0.847-0.113-1.288v-4.817c0-3.231,1.344-4.848,4.034-4.848c0.567,0,1.071,0.075,1.517,0.224
				c0.443,0.149,0.813,0.356,1.112,0.619c0.3,0.264,0.544,0.588,0.737,0.973s0.332,0.803,0.418,1.254
				c0.086,0.451,0.129,0.947,0.129,1.489v0.806h-2.645V13.74c0-0.238-0.006-0.447-0.02-0.627c-0.014-0.18-0.044-0.38-0.096-0.601
				c-0.051-0.221-0.118-0.4-0.204-0.543c-0.087-0.142-0.21-0.261-0.373-0.356c-0.163-0.096-0.354-0.146-0.577-0.146
				c-0.846,0-1.27,0.674-1.27,2.021v5.903c0,1.343,0.424,2.015,1.27,2.015c0.842,0,1.262-0.697,1.262-2.091v-1.094h-1.566V16.24
				h4.332V23.277L202.341,23.277z M75.792,12.347c-0.059-0.21-0.155-0.382-0.289-0.517s-0.297-0.201-0.49-0.201h-0.919v3.663h0.79
				c0.213,0,0.396-0.071,0.547-0.213c0.152-0.142,0.262-0.322,0.331-0.54c0.069-0.218,0.117-0.418,0.146-0.6
				c0.028-0.183,0.042-0.355,0.042-0.517s-0.012-0.329-0.034-0.501C75.891,12.749,75.85,12.557,75.792,12.347z M168.81,18.65h1.414
				l-0.691-5.076L168.81,18.65z M130.076,12.347c-0.059-0.21-0.155-0.382-0.289-0.517c-0.134-0.135-0.297-0.201-0.49-0.201h-0.919
				v3.663h0.79c0.213,0,0.395-0.071,0.547-0.213c0.152-0.142,0.262-0.322,0.331-0.54c0.069-0.218,0.117-0.418,0.145-0.6
				c0.028-0.183,0.042-0.355,0.042-0.517s-0.012-0.329-0.034-0.501C130.175,12.749,130.134,12.557,130.076,12.347z M12.895,18.65
				h1.414l-0.691-5.076L12.895,18.65z M22.887,11.773c-0.269-0.146-0.719-0.223-1.353-0.228v9.794c0.264,0,0.471-0.004,0.624-0.012
				c0.152-0.007,0.304-0.026,0.456-0.058c0.152-0.03,0.264-0.071,0.334-0.125c0.07-0.053,0.137-0.13,0.198-0.231
				c0.061-0.101,0.1-0.222,0.118-0.361c0.018-0.139,0.026-0.312,0.026-0.521V12.67C23.29,12.219,23.156,11.92,22.887,11.773z
				 M82.574,18.65h1.414l-0.691-5.076L82.574,18.65z M108.519,12.347c-0.059-0.21-0.155-0.382-0.289-0.517s-0.297-0.201-0.49-0.201
				h-0.919v3.663h0.79c0.213,0,0.395-0.071,0.547-0.213c0.152-0.142,0.262-0.322,0.331-0.54c0.069-0.218,0.117-0.418,0.145-0.6
				c0.028-0.183,0.042-0.355,0.042-0.517s-0.012-0.329-0.034-0.501C108.618,12.749,108.577,12.557,108.519,12.347z M98.599,11.469
				c-0.249,0-0.458,0.062-0.631,0.187c-0.172,0.125-0.299,0.294-0.38,0.509s-0.138,0.428-0.171,0.638s-0.049,0.439-0.049,0.688
				v5.912c0,1.343,0.41,2.014,1.231,2.014c0.826,0,1.238-0.671,1.238-2.014V13.49C99.837,12.143,99.425,11.469,98.599,11.469z"/>
		</g>
	</g>
</g>
</svg>
