<?xml version="1.0" encoding="utf-8"?>
<!-- Generator: Adobe Illustrator 16.0.0, SVG Export Plug-In . SVG Version: 6.00 Build 0)  -->
<!DOCTYPE svg PUBLIC "-//W3C//DTD SVG 1.1//EN" "http://www.w3.org/Graphics/SVG/1.1/DTD/svg11.dtd">
<svg version="1.1" id="Layer_1" xmlns="http://www.w3.org/2000/svg" xmlns:xlink="http://www.w3.org/1999/xlink" x="0px" y="0px"
	 width="163.021px" height="21.188px" viewBox="0 0 163.021 21.188" enable-background="new 0 0 163.021 21.188"
	 xml:space="preserve">
<g id="RING_DESCRIPTIONS">
	<g opacity="0.85">
		<path fill="#636466" d="M1.232,15.91V1.38H4.5c0.552,0,1.042,0.075,1.469,0.225C6.397,1.753,6.75,1.957,7.029,2.212
			c0.278,0.256,0.506,0.569,0.684,0.941c0.178,0.371,0.305,0.766,0.38,1.182C8.168,4.752,8.207,5.21,8.207,5.711v5.91
			c0,2.859-1.236,4.289-3.707,4.289H1.232z M2.516,14.88H4.5c1.615,0,2.423-0.99,2.423-2.972V5.424c0-2.009-0.808-3.014-2.423-3.014
			H2.516V14.88z"/>
		<path fill="#636466" d="M10.393,15.91V1.38h1.282v14.53H10.393z"/>
		<path fill="#636466" d="M14.15,15.91V1.38h3.875c0.49,0,0.92,0.067,1.292,0.203c0.371,0.135,0.671,0.313,0.898,0.536
			c0.229,0.222,0.412,0.498,0.554,0.827c0.141,0.329,0.236,0.67,0.291,1.021c0.053,0.353,0.08,0.741,0.08,1.169
			c0,1.854-0.676,3.025-2.026,3.521l2.246,7.252h-1.368l-2.119-7.092h-2.439v7.092L14.15,15.91L14.15,15.91z M15.434,7.788h2.583
			c0.365,0,0.675-0.073,0.929-0.22c0.253-0.146,0.443-0.354,0.57-0.624c0.126-0.271,0.215-0.552,0.266-0.845
			c0.05-0.294,0.076-0.629,0.076-1.006c0-0.31-0.017-0.588-0.046-0.836c-0.031-0.247-0.087-0.488-0.169-0.726
			s-0.19-0.436-0.325-0.596s-0.312-0.288-0.532-0.385c-0.22-0.094-0.476-0.142-0.769-0.142h-2.583V7.788z"/>
		<path fill="#636466" d="M23.158,15.91V1.38h5.066v1.03h-3.782v5.505h2.702v0.971h-2.702v5.994h3.782v1.03H23.158z"/>
		<path fill="#636466" d="M29.6,11.697V5.61c0-0.52,0.033-0.988,0.102-1.41c0.067-0.423,0.188-0.825,0.359-1.208
			c0.171-0.382,0.393-0.704,0.663-0.966c0.27-0.263,0.614-0.47,1.033-0.621c0.419-0.152,0.905-0.229,1.457-0.229
			c2.274,0,3.411,1.479,3.411,4.434v0.591H35.4V5.323c0-0.468-0.035-0.881-0.105-1.241c-0.069-0.36-0.187-0.686-0.351-0.976
			c-0.163-0.29-0.391-0.513-0.68-0.667c-0.29-0.154-0.641-0.232-1.052-0.232c-0.372,0-0.694,0.053-0.971,0.156
			s-0.5,0.247-0.671,0.427c-0.172,0.18-0.311,0.405-0.414,0.676c-0.104,0.271-0.176,0.554-0.215,0.849
			c-0.039,0.296-0.06,0.633-0.06,1.01v6.661c0,0.479,0.034,0.894,0.103,1.245c0.067,0.351,0.184,0.676,0.35,0.971
			c0.166,0.296,0.407,0.521,0.723,0.676c0.314,0.155,0.7,0.232,1.156,0.232c0.411,0,0.762-0.077,1.052-0.232s0.517-0.379,0.68-0.671
			c0.164-0.293,0.28-0.619,0.351-0.979c0.071-0.36,0.105-0.774,0.105-1.241V10.99h1.224v0.709c0,0.512-0.031,0.979-0.093,1.401
			c-0.062,0.422-0.173,0.825-0.333,1.212c-0.16,0.386-0.367,0.709-0.621,0.971s-0.58,0.47-0.979,0.625
			c-0.399,0.154-0.861,0.23-1.385,0.23c-0.562,0-1.057-0.076-1.481-0.23c-0.425-0.155-0.771-0.363-1.039-0.625
			s-0.484-0.585-0.65-0.971c-0.166-0.387-0.282-0.788-0.346-1.208C29.632,12.684,29.6,12.215,29.6,11.697z"/>
		<path fill="#636466" d="M39.875,15.91V2.41h-2.828V1.38h6.965v1.03h-2.854v13.5H39.875z"/>
		<path fill="#636466" d="M44.932,15.91V1.38h1.282v14.53H44.932z"/>
		<path fill="#636466" d="M50.682,15.91L47.558,1.38h1.385l2.575,13.012L53.983,1.38h1.385l-3.006,14.53H50.682z"/>
		<path fill="#636466" d="M56.701,15.91V1.38h5.066v1.03h-3.782v5.505h2.702v0.971h-2.702v5.994h3.782v1.03H56.701z"/>
		<path fill="#636466" d="M68.116,15.91L65.819,5.796h1.232l1.808,8.966l1.638-8.966h1.208L69.593,15.91H68.116z"/>
		<path fill="#636466" d="M72.396,13.377l0.971-0.329c0.079,0.248,0.176,0.487,0.292,0.719c0.115,0.229,0.254,0.462,0.417,0.691
			c0.164,0.23,0.356,0.417,0.579,0.559c0.222,0.141,0.455,0.211,0.696,0.211c0.444,0,0.777-0.137,1-0.405
			c0.223-0.271,0.333-0.637,0.333-1.098c0-0.647-0.577-1.479-1.73-2.491l-0.735-0.643c-0.557-0.488-0.978-0.927-1.262-1.312
			s-0.426-0.817-0.426-1.296c0-0.761,0.23-1.351,0.692-1.77c0.461-0.42,1.077-0.629,1.849-0.629c0.366,0,0.698,0.07,0.996,0.211
			c0.298,0.142,0.549,0.336,0.751,0.587c0.203,0.25,0.373,0.521,0.511,0.812c0.138,0.289,0.249,0.608,0.333,0.958L76.54,8.498
			c-0.05-0.313-0.131-0.613-0.24-0.895s-0.278-0.536-0.507-0.766c-0.228-0.228-0.487-0.342-0.781-0.342
			c-0.377,0-0.677,0.128-0.898,0.385c-0.222,0.256-0.333,0.587-0.333,0.992c0,0.337,0.107,0.658,0.325,0.962
			c0.217,0.304,0.529,0.631,0.94,0.979l0.803,0.691c0.259,0.227,0.457,0.401,0.595,0.527c0.138,0.127,0.312,0.307,0.522,0.541
			c0.211,0.232,0.37,0.444,0.478,0.633c0.105,0.188,0.204,0.415,0.291,0.68c0.087,0.266,0.134,0.535,0.139,0.812
			c0,0.754-0.238,1.35-0.713,1.785c-0.476,0.437-1.096,0.653-1.861,0.653c-0.742,0-1.363-0.26-1.861-0.779
			C72.939,14.837,72.593,14.177,72.396,13.377z"/>
		<path fill="#636466" d="M82.891,15.91V1.38h1.282v14.53H82.891z"/>
		<path fill="#636466" d="M86.647,15.91V1.38h0.987l4.602,11.508V1.38h1.089v14.53h-0.963L87.754,4.647V15.91H86.647z"/>
		<path fill="#636466" d="M95.791,15.91V1.38h5.108v1.03h-3.824v5.505h3.005v0.971h-3.005v7.024H95.791z"/>
		<path fill="#636466" d="M101.735,11.697V5.61c0-0.514,0.038-0.982,0.114-1.41c0.075-0.428,0.203-0.832,0.384-1.212
			c0.18-0.38,0.408-0.7,0.684-0.962c0.276-0.263,0.627-0.47,1.056-0.621c0.428-0.152,0.917-0.229,1.469-0.229
			c0.551,0,1.041,0.075,1.469,0.229s0.78,0.358,1.056,0.621c0.276,0.262,0.503,0.582,0.685,0.962
			c0.181,0.38,0.309,0.784,0.384,1.212c0.076,0.428,0.114,0.896,0.114,1.41v6.087c0,2.961-1.236,4.439-3.707,4.439
			C102.969,16.137,101.735,14.658,101.735,11.697z M107.864,11.984V5.323c0-2.077-0.808-3.116-2.423-3.116
			c-1.616,0-2.423,1.039-2.423,3.116v6.661c0,2.082,0.808,3.124,2.423,3.124C107.057,15.108,107.864,14.066,107.864,11.984z"/>
		<path fill="#636466" d="M111.343,15.91V1.38h3.875c0.49,0,0.92,0.067,1.292,0.203c0.371,0.135,0.672,0.313,0.899,0.536
			c0.228,0.222,0.412,0.498,0.553,0.827c0.142,0.329,0.237,0.67,0.291,1.021c0.054,0.353,0.08,0.741,0.08,1.169
			c0,1.854-0.675,3.025-2.025,3.521l2.245,7.252h-1.367l-2.119-7.092h-2.44v7.092L111.343,15.91L111.343,15.91z M112.626,7.788
			h2.583c0.366,0,0.675-0.073,0.929-0.22s0.443-0.354,0.57-0.624c0.126-0.271,0.215-0.552,0.267-0.845
			c0.05-0.294,0.075-0.629,0.075-1.006c0-0.31-0.016-0.588-0.046-0.836c-0.03-0.247-0.087-0.488-0.169-0.726
			s-0.189-0.436-0.325-0.596c-0.135-0.16-0.312-0.288-0.531-0.385c-0.22-0.096-0.477-0.144-0.769-0.144h-2.583L112.626,7.788
			L112.626,7.788z"/>
		<path fill="#636466" d="M120.351,15.91V1.38h1.579l2.803,12.546c0.343-1.644,0.799-3.653,1.368-6.031
			c0.567-2.378,1.047-4.55,1.435-6.515h1.579v14.53h-1.14V4.284L125.29,15.91h-1.115L121.49,4.293V15.91H120.351z"/>
		<path fill="#636466" d="M132.036,15.91h-1.292l2.871-14.53h1.671l2.871,14.53h-1.3l-0.727-3.782h-3.352L132.036,15.91z
			 M132.931,11.275h3.039l-1.527-8.562L132.931,11.275z"/>
		<path fill="#636466" d="M140.716,15.91V2.41h-2.828V1.38h6.966v1.03h-2.854v13.5H140.716z"/>
		<path fill="#636466" d="M145.773,15.91V1.38h1.283v14.53H145.773z"/>
		<path fill="#636466" d="M151.522,15.91l-3.124-14.53h1.385l2.575,13.012l2.465-13.012h1.385l-3.006,14.53H151.522z"/>
		<path fill="#636466" d="M157.542,15.91V1.38h5.066v1.03h-3.782v5.505h2.702v0.971h-2.702v5.994h3.782v1.03H157.542z"/>
	</g>
</g>
<g id="LABELS">
</g>
</svg>
