<?xml version="1.0" encoding="utf-8"?>
<!-- Generator: Adobe Illustrator 16.0.0, SVG Export Plug-In . SVG Version: 6.00 Build 0)  -->
<!DOCTYPE svg PUBLIC "-//W3C//DTD SVG 1.1//EN" "http://www.w3.org/Graphics/SVG/1.1/DTD/svg11.dtd">
<svg version="1.1" id="Layer_1" xmlns="http://www.w3.org/2000/svg" xmlns:xlink="http://www.w3.org/1999/xlink" x="0px" y="0px"
	 width="263.5px" height="21.188px" viewBox="0 0 263.5 21.188" enable-background="new 0 0 263.5 21.188" xml:space="preserve">
<g id="RING_DESCRIPTIONS">
	<g opacity="0.85">
		<path fill="#636466" d="M0.962,11.697V5.61c0-0.52,0.034-0.988,0.102-1.41c0.067-0.423,0.187-0.825,0.359-1.208
			C1.594,2.61,1.815,2.288,2.085,2.026C2.355,1.763,2.7,1.558,3.12,1.405s0.905-0.229,1.457-0.229c2.274,0,3.411,1.479,3.411,4.434
			v0.591H6.763V5.323c0-0.468-0.035-0.881-0.104-1.241c-0.07-0.36-0.188-0.686-0.351-0.976c-0.163-0.29-0.39-0.513-0.68-0.667
			s-0.64-0.232-1.051-0.232c-0.372,0-0.695,0.053-0.971,0.156C3.329,2.468,3.105,2.61,2.934,2.79
			c-0.172,0.18-0.31,0.405-0.414,0.676S2.344,4.019,2.305,4.314C2.266,4.61,2.246,4.947,2.246,5.324v6.661
			c0,0.479,0.034,0.894,0.102,1.245c0.068,0.351,0.184,0.676,0.35,0.971c0.166,0.296,0.407,0.521,0.722,0.676
			s0.701,0.232,1.157,0.232c0.411,0,0.761-0.077,1.051-0.232s0.517-0.379,0.68-0.671c0.164-0.293,0.28-0.619,0.351-0.979
			c0.071-0.36,0.105-0.774,0.105-1.241V10.99h1.224v0.709c0,0.512-0.031,0.979-0.093,1.401c-0.062,0.422-0.173,0.825-0.333,1.212
			c-0.16,0.386-0.369,0.708-0.622,0.969s-0.58,0.47-0.979,0.625c-0.399,0.154-0.861,0.23-1.384,0.23
			c-0.563,0-1.057-0.076-1.482-0.23c-0.425-0.155-0.771-0.363-1.039-0.625c-0.267-0.262-0.484-0.585-0.65-0.971
			c-0.166-0.387-0.282-0.788-0.346-1.208C0.995,12.684,0.962,12.215,0.962,11.697z"/>
		<path fill="#636466" d="M9.675,11.697V5.61c0-0.514,0.038-0.982,0.114-1.41s0.204-0.832,0.384-1.212
			c0.18-0.38,0.408-0.7,0.684-0.962c0.276-0.263,0.627-0.47,1.055-0.621c0.428-0.152,0.917-0.229,1.469-0.229
			c0.551,0,1.041,0.075,1.469,0.229c0.428,0.153,0.78,0.358,1.056,0.621c0.276,0.262,0.503,0.582,0.684,0.962
			c0.181,0.38,0.309,0.784,0.384,1.212c0.076,0.428,0.114,0.896,0.114,1.41v6.087c0,2.961-1.236,4.439-3.707,4.439
			C10.911,16.137,9.675,14.658,9.675,11.697z M15.805,11.984V5.323c0-2.077-0.808-3.116-2.423-3.116
			c-1.616,0-2.423,1.039-2.423,3.116v6.661c0,2.082,0.808,3.124,2.423,3.124C14.997,15.108,15.805,14.066,15.805,11.984z"/>
		<path fill="#636466" d="M19.013,11.697V5.61c0-0.514,0.038-0.982,0.114-1.41s0.204-0.832,0.384-1.212
			c0.18-0.38,0.408-0.7,0.684-0.962c0.276-0.263,0.627-0.47,1.055-0.621c0.428-0.152,0.917-0.229,1.469-0.229
			c0.551,0,1.041,0.075,1.469,0.229s0.78,0.358,1.056,0.621c0.276,0.262,0.503,0.582,0.684,0.962c0.181,0.38,0.31,0.784,0.384,1.212
			c0.076,0.428,0.114,0.896,0.114,1.41v6.087c0,2.961-1.236,4.439-3.707,4.439C20.249,16.137,19.013,14.658,19.013,11.697z
			 M25.143,11.984V5.323c0-2.077-0.808-3.116-2.423-3.116c-1.616,0-2.423,1.039-2.423,3.116v6.661c0,2.082,0.808,3.124,2.423,3.124
			C24.335,15.108,25.143,14.066,25.143,11.984z"/>
		<path fill="#636466" d="M28.621,15.91V1.38h3.555c0.506,0,0.957,0.069,1.351,0.207c0.394,0.139,0.721,0.325,0.979,0.562
			c0.258,0.236,0.473,0.522,0.642,0.86s0.289,0.693,0.359,1.067c0.07,0.375,0.105,0.778,0.105,1.212
			c0,0.444-0.029,0.855-0.088,1.232s-0.169,0.752-0.33,1.123c-0.16,0.372-0.366,0.686-0.616,0.94S33.997,9.05,33.586,9.21
			s-0.884,0.24-1.418,0.24h-2.263v6.459L28.621,15.91L28.621,15.91z M29.905,8.421l2.415,0.009c0.72,0.007,1.235-0.242,1.545-0.746
			c0.31-0.505,0.464-1.294,0.464-2.368c0-1.002-0.166-1.736-0.498-2.204c-0.332-0.467-0.836-0.7-1.511-0.7h-2.415V8.421z"/>
		<path fill="#636466" d="M37.098,15.91V1.38h5.066v1.03h-3.782v5.505h2.702v0.971h-2.702v5.994h3.782v1.03H37.098z"/>
		<path fill="#636466" d="M43.81,15.91V1.38h3.875c0.49,0,0.92,0.067,1.292,0.203c0.371,0.135,0.671,0.313,0.899,0.536
			c0.228,0.222,0.412,0.498,0.553,0.827c0.141,0.329,0.237,0.67,0.291,1.021c0.053,0.353,0.08,0.741,0.08,1.169
			c0,1.854-0.675,3.025-2.026,3.521l2.246,7.252h-1.368l-2.119-7.092h-2.44v7.092L43.81,15.91L43.81,15.91z M45.093,7.788h2.583
			c0.366,0,0.675-0.073,0.929-0.22c0.253-0.146,0.443-0.354,0.57-0.624c0.126-0.271,0.215-0.552,0.266-0.845
			c0.05-0.294,0.076-0.629,0.076-1.006c0-0.31-0.016-0.588-0.046-0.836c-0.031-0.247-0.087-0.488-0.169-0.726
			s-0.189-0.436-0.325-0.596s-0.312-0.288-0.532-0.385c-0.219-0.096-0.476-0.144-0.768-0.144h-2.583L45.093,7.788L45.093,7.788z"/>
		<path fill="#636466" d="M53.274,15.91h-1.292l2.871-14.53h1.671l2.871,14.53h-1.3l-0.726-3.782h-3.352L53.274,15.91z
			 M54.169,11.275h3.04L55.68,2.714L54.169,11.275z"/>
		<path fill="#636466" d="M61.953,15.91V2.41h-2.828V1.38h6.965v1.03h-2.854v13.5H61.953z"/>
		<path fill="#636466" d="M67.01,15.91V1.38h1.283v14.53H67.01z"/>
		<path fill="#636466" d="M72.76,15.91L69.636,1.38h1.385l2.575,13.012L76.062,1.38h1.385L74.44,15.91H72.76z"/>
		<path fill="#636466" d="M78.779,15.91V1.38h5.065v1.03h-3.782v5.505h2.702v0.971h-2.702v5.994h3.782v1.03H78.779z"/>
		<path fill="#636466" d="M90.194,15.91L87.897,5.796h1.233l1.807,8.966l1.638-8.966h1.208L91.671,15.91H90.194z"/>
		<path fill="#636466" d="M94.475,13.377l0.971-0.329c0.079,0.248,0.176,0.487,0.292,0.719c0.115,0.229,0.254,0.462,0.417,0.691
			c0.164,0.23,0.355,0.417,0.579,0.559c0.222,0.141,0.455,0.211,0.696,0.211c0.445,0,0.778-0.137,1-0.405
			c0.223-0.271,0.333-0.637,0.333-1.098c0-0.647-0.577-1.479-1.729-2.491l-0.735-0.643c-0.557-0.488-0.978-0.927-1.262-1.312
			c-0.284-0.385-0.426-0.817-0.426-1.296c0-0.761,0.231-1.351,0.692-1.77c0.461-0.42,1.078-0.629,1.849-0.629
			c0.366,0,0.698,0.07,0.996,0.211c0.298,0.142,0.549,0.336,0.751,0.587c0.203,0.25,0.373,0.521,0.511,0.812
			c0.138,0.289,0.249,0.608,0.333,0.958L98.62,8.497c-0.05-0.313-0.131-0.613-0.24-0.895c-0.11-0.281-0.279-0.536-0.507-0.766
			c-0.228-0.228-0.488-0.342-0.781-0.342c-0.377,0-0.677,0.128-0.899,0.385c-0.222,0.256-0.333,0.587-0.333,0.992
			c0,0.337,0.108,0.658,0.325,0.962c0.217,0.304,0.53,0.631,0.941,0.979l0.802,0.691c0.259,0.227,0.457,0.401,0.595,0.527
			c0.138,0.127,0.312,0.307,0.523,0.541c0.211,0.232,0.37,0.444,0.477,0.633c0.106,0.188,0.204,0.415,0.291,0.68
			c0.087,0.266,0.134,0.535,0.139,0.812c0,0.754-0.238,1.35-0.713,1.785c-0.476,0.437-1.096,0.653-1.861,0.653
			c-0.743,0-1.364-0.26-1.862-0.779C95.019,14.836,94.671,14.177,94.475,13.377z"/>
		<path fill="#636466" d="M104.978,15.91V1.38h3.555c0.506,0,0.957,0.069,1.351,0.207c0.394,0.139,0.721,0.325,0.979,0.562
			c0.258,0.236,0.473,0.522,0.642,0.86s0.289,0.693,0.359,1.067c0.07,0.375,0.104,0.778,0.104,1.212
			c0,0.444-0.029,0.855-0.088,1.232c-0.059,0.377-0.169,0.752-0.33,1.123c-0.16,0.372-0.366,0.686-0.616,0.94
			s-0.581,0.465-0.992,0.625c-0.411,0.16-0.884,0.24-1.418,0.24h-2.263v6.459L104.978,15.91L104.978,15.91z M106.261,8.421
			l2.415,0.009c0.72,0.007,1.235-0.242,1.545-0.746c0.311-0.505,0.464-1.294,0.464-2.368c0-1.002-0.166-1.736-0.498-2.204
			c-0.332-0.467-0.836-0.7-1.511-0.7h-2.415V8.421z"/>
		<path fill="#636466" d="M113.454,15.91V1.38h3.875c0.49,0,0.92,0.067,1.292,0.203c0.371,0.135,0.671,0.313,0.899,0.536
			c0.228,0.222,0.412,0.498,0.553,0.827c0.141,0.329,0.237,0.67,0.291,1.021c0.053,0.353,0.08,0.741,0.08,1.169
			c0,1.854-0.675,3.025-2.026,3.521l2.246,7.252h-1.368l-2.119-7.092h-2.439v7.092L113.454,15.91L113.454,15.91z M114.738,7.788
			h2.583c0.366,0,0.675-0.073,0.929-0.22c0.253-0.146,0.443-0.354,0.57-0.624c0.126-0.271,0.215-0.552,0.266-0.845
			c0.05-0.294,0.076-0.629,0.076-1.006c0-0.31-0.016-0.588-0.046-0.836c-0.031-0.247-0.087-0.488-0.169-0.726
			s-0.19-0.436-0.325-0.596s-0.312-0.288-0.532-0.385c-0.219-0.096-0.476-0.144-0.768-0.144h-2.583L114.738,7.788L114.738,7.788z"/>
		<path fill="#636466" d="M122.918,15.91h-1.292l2.871-14.53h1.671l2.871,14.53h-1.3l-0.727-3.782h-3.352L122.918,15.91z
			 M123.813,11.275h3.04l-1.528-8.562L123.813,11.275z"/>
		<path fill="#636466" d="M130.339,11.85V5.686c0-3.006,1.275-4.509,3.825-4.509c0.404,0,0.771,0.045,1.102,0.136
			c0.33,0.09,0.608,0.213,0.836,0.366c0.229,0.155,0.429,0.354,0.601,0.597c0.171,0.241,0.308,0.492,0.409,0.751
			s0.183,0.562,0.244,0.907c0.062,0.347,0.104,0.682,0.127,1.005c0.021,0.323,0.033,0.686,0.033,1.085v0.102h-1.283V6.016
			c0-0.022,0-0.061,0-0.11c0-0.411-0.004-0.722-0.013-0.934c-0.008-0.211-0.028-0.489-0.062-0.836s-0.097-0.609-0.187-0.794
			c-0.09-0.183-0.208-0.374-0.354-0.573c-0.146-0.199-0.344-0.344-0.592-0.432c-0.248-0.087-0.541-0.131-0.877-0.131
			c-0.474,0-0.879,0.081-1.217,0.241c-0.337,0.16-0.599,0.384-0.785,0.671s-0.319,0.597-0.401,0.929s-0.123,0.698-0.123,1.099v7.261
			c0,0.372,0.034,0.705,0.102,1.001c0.067,0.295,0.184,0.578,0.35,0.848c0.166,0.271,0.415,0.48,0.748,0.63
			c0.332,0.148,0.739,0.225,1.224,0.225c0.444,0,0.824-0.079,1.141-0.236c0.314-0.158,0.552-0.373,0.709-0.646
			c0.156-0.272,0.269-0.557,0.332-0.85c0.064-0.292,0.098-0.616,0.098-0.971V9.949h-1.781v-0.97h3.064v6.932h-0.565l-0.38-1.418
			c-0.191,0.501-0.531,0.9-1.018,1.198c-0.487,0.299-1.025,0.446-1.617,0.446c-0.389,0-0.744-0.034-1.068-0.104
			s-0.604-0.161-0.84-0.274c-0.237-0.111-0.449-0.257-0.638-0.435c-0.188-0.177-0.343-0.354-0.464-0.527s-0.227-0.377-0.316-0.607
			c-0.09-0.23-0.158-0.438-0.203-0.624c-0.045-0.188-0.081-0.397-0.105-0.635c-0.025-0.235-0.041-0.428-0.047-0.573
			C130.342,12.209,130.339,12.041,130.339,11.85z"/>
		<path fill="#636466" d="M139.795,15.91V1.38h1.579l2.803,12.546c0.343-1.644,0.8-3.653,1.368-6.031s1.047-4.55,1.436-6.515h1.578
			v14.53h-1.14V4.284l-2.685,11.626h-1.115l-2.686-11.617V15.91H139.795z"/>
		<path fill="#636466" d="M151.48,15.91h-1.293l2.871-14.53h1.672l2.871,14.53h-1.301l-0.726-3.782h-3.353L151.48,15.91z
			 M152.375,11.275h3.04l-1.528-8.562L152.375,11.275z"/>
		<path fill="#636466" d="M160.16,15.91V2.41h-2.828V1.38h6.965v1.03h-2.854v13.5H160.16z"/>
		<path fill="#636466" d="M165.217,15.91V1.38h1.283v14.53H165.217z"/>
		<path fill="#636466" d="M168.704,11.697V5.61c0-0.52,0.034-0.988,0.103-1.41c0.066-0.423,0.187-0.825,0.358-1.208
			c0.171-0.382,0.394-0.704,0.663-0.966c0.27-0.263,0.615-0.47,1.033-0.621c0.42-0.152,0.906-0.229,1.457-0.229
			c2.274,0,3.412,1.479,3.412,4.434v0.591h-1.225V5.323c0-0.468-0.035-0.881-0.105-1.241c-0.069-0.36-0.187-0.686-0.351-0.976
			c-0.163-0.29-0.39-0.513-0.68-0.667s-0.64-0.232-1.052-0.232c-0.371,0-0.694,0.053-0.971,0.156
			c-0.275,0.104-0.5,0.247-0.671,0.427c-0.172,0.18-0.31,0.405-0.414,0.676c-0.104,0.271-0.176,0.554-0.215,0.849
			c-0.039,0.296-0.059,0.633-0.059,1.01v6.661c0,0.479,0.034,0.894,0.102,1.245c0.068,0.351,0.185,0.676,0.351,0.971
			c0.166,0.296,0.406,0.521,0.722,0.676s0.701,0.232,1.157,0.232c0.41,0,0.761-0.077,1.051-0.232s0.517-0.379,0.68-0.671
			c0.164-0.293,0.28-0.619,0.352-0.979c0.07-0.36,0.104-0.774,0.104-1.241V10.99h1.224v0.709c0,0.512-0.03,0.979-0.093,1.401
			c-0.062,0.422-0.173,0.825-0.333,1.212c-0.16,0.386-0.367,0.709-0.621,0.971s-0.58,0.47-0.979,0.625
			c-0.398,0.154-0.861,0.23-1.384,0.23c-0.563,0-1.058-0.076-1.482-0.23c-0.425-0.155-0.771-0.363-1.039-0.625
			c-0.267-0.262-0.483-0.585-0.649-0.971c-0.166-0.387-0.282-0.788-0.347-1.208C168.736,12.684,168.704,12.215,168.704,11.697z"/>
		<path fill="#636466" d="M184.449,15.336v1.114c-0.389,0-0.744-0.062-1.068-0.182c-0.324-0.121-0.603-0.271-0.836-0.447
			c-0.232-0.177-0.443-0.422-0.629-0.734c-0.186-0.312-0.336-0.605-0.452-0.882c-0.114-0.276-0.214-0.629-0.295-1.06
			c-0.081-0.432-0.144-0.794-0.187-1.091c-0.041-0.295-0.072-0.681-0.092-1.155c-0.021-0.477-0.031-0.834-0.035-1.076
			c-0.002-0.242-0.004-0.58-0.004-1.014c0-0.022,0-0.038,0-0.047s0-0.021,0-0.037c0-0.019,0-0.032,0-0.048c0-0.014,0-0.025,0-0.038
			c0-0.032,0-0.09,0-0.169c0-0.562,0.004-1.006,0.01-1.328c0.005-0.324,0.031-0.791,0.076-1.401
			c0.045-0.611,0.109-1.105,0.193-1.482s0.215-0.808,0.393-1.291s0.391-0.863,0.639-1.141c0.248-0.275,0.566-0.512,0.958-0.709
			c0.391-0.197,0.834-0.295,1.33-0.295v1.114c-0.31,0-0.585,0.066-0.827,0.201c-0.242,0.137-0.443,0.307-0.604,0.512
			c-0.162,0.206-0.3,0.484-0.414,0.841c-0.115,0.354-0.203,0.689-0.263,1.009c-0.059,0.317-0.104,0.721-0.139,1.207
			c-0.034,0.487-0.054,0.906-0.06,1.258c-0.006,0.353-0.008,0.792-0.008,1.321c0,0.067,0,0.172,0,0.312
			c0,0.523,0.002,0.924,0.004,1.199c0.004,0.275,0.014,0.66,0.03,1.152s0.046,0.879,0.088,1.161
			c0.042,0.281,0.097,0.617,0.165,1.009c0.067,0.391,0.159,0.697,0.274,0.92c0.114,0.223,0.251,0.444,0.409,0.667
			s0.351,0.383,0.578,0.481C183.913,15.287,184.168,15.336,184.449,15.336z"/>
		<path fill="#636466" d="M185.412,12.339V1.38h1.283v11.255c0,0.833,0.188,1.453,0.565,1.861c0.377,0.408,1.013,0.612,1.908,0.612
			c0.844,0,1.447-0.206,1.808-0.616c0.359-0.411,0.539-1.03,0.539-1.857V1.38h1.275v10.959c0,2.533-1.207,3.799-3.622,3.799
			c-0.58,0-1.09-0.066-1.532-0.201c-0.441-0.136-0.802-0.316-1.08-0.545c-0.279-0.229-0.506-0.507-0.681-0.837
			c-0.175-0.328-0.295-0.672-0.362-1.028C185.446,13.168,185.412,12.772,185.412,12.339z"/>
		<path fill="#636466" d="M196.48,15.91V2.41h-2.828V1.38h6.965v1.03h-2.854v13.5H196.48z"/>
		<path fill="#636466" d="M201.538,15.91V1.38h1.283v14.53H201.538z"/>
		<path fill="#636466" d="M205.294,15.91V1.38h1.284v13.5h4.061v1.03H205.294z"/>
		<path fill="#636466" d="M211.804,15.91V1.38h1.283v14.53H211.804z"/>
		<path fill="#636466" d="M216.854,15.91V2.41h-2.828V1.38h6.965v1.03h-2.854v13.5H216.854z"/>
		<path fill="#636466" d="M222.273,15.91h-1.293l2.871-14.53h1.672l2.871,14.53h-1.301l-0.726-3.782h-3.353L222.273,15.91z
			 M223.168,11.275h3.04l-1.528-8.562L223.168,11.275z"/>
		<path fill="#636466" d="M230.023,15.91V1.38h3.875c0.489,0,0.92,0.067,1.291,0.203c0.371,0.135,0.672,0.313,0.899,0.536
			c0.228,0.222,0.412,0.498,0.554,0.827c0.141,0.329,0.236,0.67,0.291,1.021c0.053,0.353,0.079,0.741,0.079,1.169
			c0,1.854-0.675,3.025-2.025,3.521l2.245,7.252h-1.367l-2.119-7.092h-2.439v7.092L230.023,15.91L230.023,15.91z M231.307,7.788
			h2.584c0.365,0,0.674-0.073,0.928-0.22s0.443-0.354,0.57-0.624c0.127-0.271,0.215-0.552,0.267-0.845
			c0.05-0.294,0.075-0.629,0.075-1.006c0-0.31-0.016-0.588-0.045-0.836c-0.031-0.247-0.088-0.488-0.17-0.726
			s-0.189-0.436-0.324-0.596s-0.312-0.288-0.532-0.385c-0.22-0.096-0.476-0.144-0.769-0.144h-2.582v5.38H231.307z"/>
		<path fill="#636466" d="M239.023,15.91V1.38h1.283v14.53H239.023z"/>
		<path fill="#636466" d="M243.237,15.91h-1.292l2.871-14.53h1.672l2.869,14.53h-1.299l-0.728-3.782h-3.353L243.237,15.91z
			 M244.133,11.275h3.039l-1.527-8.562L244.133,11.275z"/>
		<path fill="#636466" d="M250.987,15.91V1.38h0.987l4.603,11.508V1.38h1.089v14.53h-0.963l-4.609-11.263V15.91H250.987z"/>
		<path fill="#636466" d="M259.051,16.45v-1.114c0.281,0,0.536-0.049,0.764-0.146c0.229-0.099,0.422-0.26,0.578-0.481
			c0.158-0.223,0.295-0.444,0.41-0.667s0.206-0.529,0.274-0.92c0.067-0.392,0.122-0.728,0.164-1.009
			c0.042-0.282,0.071-0.669,0.089-1.161c0.017-0.492,0.025-0.877,0.029-1.152c0.002-0.275,0.004-0.676,0.004-1.198
			c0-0.046,0-0.08,0-0.105s0-0.058,0-0.097c0-0.04,0-0.076,0-0.11c0-0.529-0.004-0.97-0.008-1.321
			c-0.006-0.352-0.025-0.771-0.061-1.258c-0.033-0.486-0.08-0.89-0.139-1.207c-0.061-0.317-0.146-0.654-0.262-1.009
			c-0.117-0.355-0.254-0.635-0.414-0.841c-0.16-0.205-0.361-0.375-0.604-0.511c-0.242-0.136-0.519-0.202-0.827-0.202V0.823
			c0.495,0,0.938,0.098,1.329,0.295s0.711,0.434,0.959,0.709c0.247,0.276,0.46,0.656,0.638,1.141
			c0.178,0.483,0.309,0.914,0.393,1.291c0.085,0.377,0.148,0.871,0.193,1.482c0.045,0.61,0.07,1.077,0.076,1.401
			c0.006,0.322,0.01,0.767,0.01,1.328c0,0.022,0,0.038,0,0.048c0,0.009,0,0.021,0,0.037c0,0.018,0,0.032,0,0.047s0,0.026,0,0.037
			c0,0.034,0,0.092,0,0.17c0,0.434-0.002,0.771-0.006,1.014c-0.003,0.243-0.014,0.601-0.033,1.076
			c-0.021,0.476-0.051,0.86-0.092,1.155c-0.043,0.297-0.104,0.659-0.188,1.091c-0.081,0.431-0.18,0.782-0.295,1.06
			c-0.115,0.275-0.268,0.569-0.452,0.882c-0.185,0.313-0.396,0.559-0.629,0.734c-0.233,0.178-0.513,0.326-0.836,0.447
			C259.795,16.389,259.438,16.45,259.051,16.45z"/>
	</g>
</g>
<g id="LABELS">
</g>
</svg>
