<?xml version="1.0" encoding="utf-8"?>
<!-- Generator: Adobe Illustrator 16.0.0, SVG Export Plug-In . SVG Version: 6.00 Build 0)  -->
<!DOCTYPE svg PUBLIC "-//W3C//DTD SVG 1.1//EN" "http://www.w3.org/Graphics/SVG/1.1/DTD/svg11.dtd">
<svg version="1.1" id="Layer_1" xmlns="http://www.w3.org/2000/svg" xmlns:xlink="http://www.w3.org/1999/xlink" x="0px" y="0px"
	 width="136.877px" height="32.725px" viewBox="0 0 136.877 32.725" enable-background="new 0 0 136.877 32.725"
	 xml:space="preserve">
<g id="RING_DESCRIPTIONS">
</g>
<g id="LABELS">
	<g opacity="0.85">
		<g>
			<path fill="#16A54D" d="M136.875,23.763l-10.88-9.597h-11.684V2.161H2.161v28.401h112.15V18.489l10.049-0.001l9.654,8.519
				l2.861-3.24L136.875,23.763z M17.264,15.402h-2.72v-1.261c0-0.248-0.005-0.463-0.015-0.643c-0.01-0.18-0.037-0.385-0.08-0.615
				c-0.043-0.229-0.102-0.418-0.175-0.562c-0.074-0.146-0.183-0.268-0.327-0.369c-0.145-0.101-0.318-0.152-0.521-0.152
				c-0.8,0-1.2,0.675-1.2,2.021v5.904c0,1.342,0.4,2.014,1.2,2.014c0.238,0,0.438-0.068,0.601-0.205
				c0.163-0.137,0.278-0.331,0.35-0.582c0.071-0.25,0.119-0.496,0.144-0.737c0.025-0.24,0.038-0.516,0.038-0.824v-1.406h2.705v1.154
				c-0.01,0.521-0.053,1.004-0.129,1.443c-0.076,0.441-0.206,0.869-0.388,1.284c-0.183,0.416-0.414,0.767-0.695,1.053
				c-0.281,0.286-0.645,0.518-1.09,0.691c-0.445,0.174-0.958,0.262-1.535,0.262c-0.592,0-1.118-0.085-1.577-0.255
				c-0.458-0.169-0.835-0.397-1.132-0.684c-0.297-0.287-0.541-0.639-0.733-1.057s-0.328-0.856-0.407-1.317S9.46,19.592,9.46,19.04
				v-4.528c0-3.231,1.322-4.848,3.966-4.848c0.558,0,1.053,0.075,1.486,0.224c0.433,0.149,0.796,0.356,1.09,0.619
				c0.293,0.265,0.536,0.588,0.726,0.974c0.19,0.385,0.327,0.803,0.41,1.254c0.084,0.451,0.125,0.946,0.125,1.488v1.18H17.264z
				 M26.382,19.042c0,0.547-0.041,1.053-0.122,1.517c-0.081,0.463-0.219,0.902-0.414,1.317c-0.195,0.416-0.443,0.77-0.745,1.061
				c-0.302,0.291-0.683,0.521-1.144,0.688s-0.988,0.251-1.581,0.251c-0.588,0-1.112-0.083-1.573-0.247
				c-0.461-0.164-0.841-0.388-1.14-0.669s-0.546-0.625-0.741-1.033c-0.195-0.407-0.334-0.842-0.418-1.303s-0.125-0.965-0.125-1.512
				v-4.598c0-3.231,1.333-4.848,3.997-4.848c2.669,0,4.004,1.616,4.004,4.848v4.528H26.382z M33.32,23.608h-5.486V9.93H30.6v11.778
				h2.72V23.608z M39.687,23.608h-5.486V9.93h2.766v11.778h2.72V23.608z M45.447,23.608l-0.562-2.925h-1.786l-0.532,2.925h-2.743
				L42.78,9.93h2.447l2.948,13.678H45.447z M55.447,22.621c-0.659,0.659-1.664,0.988-3.017,0.988h-3.374V9.93h2.819
				c0.506,0,0.954,0.026,1.341,0.08c0.388,0.054,0.768,0.157,1.14,0.312c0.373,0.155,0.679,0.361,0.919,0.619
				c0.241,0.259,0.433,0.599,0.578,1.021s0.217,0.923,0.217,1.5c0,0.714-0.168,1.276-0.505,1.688
				c-0.337,0.41-0.86,0.733-1.569,0.973c1.626,0.396,2.439,1.545,2.439,3.45C56.435,20.946,56.105,21.962,55.447,22.621z
				 M65.545,19.042c0,0.547-0.041,1.053-0.122,1.517c-0.081,0.463-0.219,0.902-0.414,1.317c-0.195,0.416-0.443,0.77-0.745,1.061
				c-0.302,0.291-0.683,0.521-1.144,0.688s-0.988,0.251-1.581,0.251c-0.588,0-1.112-0.083-1.573-0.247s-0.841-0.388-1.14-0.669
				c-0.299-0.281-0.546-0.625-0.741-1.033c-0.195-0.407-0.334-0.842-0.418-1.303s-0.125-0.965-0.125-1.512v-4.598
				c0-3.231,1.333-4.848,3.997-4.848c2.669,0,4.004,1.616,4.004,4.848v4.528H65.545z M71.783,23.608l-1.565-6.299h-0.456v6.299
				h-2.766V9.93h3.009c0.684,0,1.285,0.064,1.805,0.194c0.52,0.129,0.975,0.332,1.364,0.608c0.39,0.275,0.687,0.647,0.89,1.117
				c0.201,0.469,0.304,1.029,0.304,1.683c0,0.284-0.011,0.537-0.03,0.76c-0.021,0.224-0.066,0.479-0.141,0.764
				c-0.074,0.286-0.174,0.54-0.301,0.761c-0.125,0.221-0.309,0.437-0.547,0.649s-0.52,0.391-0.844,0.532
				c0.821,2.604,1.535,4.808,2.143,6.611h-2.864V23.608z M80.399,23.608l-0.562-2.925h-1.786l-0.531,2.925h-2.744L77.733,9.93h2.447
				l2.947,13.678H80.399z M89.663,11.998h-1.969v11.61h-2.766v-11.61h-2.006V9.93h6.74V11.998z M98.272,19.042
				c0,0.547-0.041,1.053-0.123,1.517c-0.08,0.463-0.219,0.902-0.414,1.317c-0.194,0.416-0.442,0.77-0.744,1.061
				c-0.303,0.291-0.684,0.521-1.145,0.688s-0.988,0.251-1.58,0.251c-0.589,0-1.112-0.083-1.574-0.247
				c-0.461-0.164-0.84-0.388-1.14-0.669c-0.299-0.281-0.546-0.625-0.741-1.033c-0.194-0.407-0.334-0.842-0.418-1.303
				s-0.125-0.965-0.125-1.512v-4.598c0-3.231,1.334-4.848,3.998-4.848c2.668,0,4.004,1.616,4.004,4.848v4.528H98.272z
				 M104.51,23.608l-1.565-6.299h-0.455v6.299h-2.766V9.93h3.008c0.685,0,1.285,0.064,1.806,0.194
				c0.519,0.129,0.974,0.332,1.364,0.608c0.39,0.275,0.687,0.647,0.889,1.117c0.202,0.469,0.304,1.029,0.304,1.683
				c0,0.284-0.01,0.537-0.03,0.76c-0.021,0.224-0.066,0.479-0.141,0.764c-0.074,0.286-0.174,0.54-0.3,0.761s-0.31,0.437-0.547,0.649
				c-0.238,0.213-0.521,0.391-0.845,0.532c0.821,2.604,1.535,4.808,2.144,6.611h-2.865V23.608z M22.378,11.8
				c-0.249,0-0.458,0.062-0.631,0.187c-0.172,0.125-0.299,0.294-0.38,0.509s-0.138,0.428-0.171,0.638
				c-0.033,0.21-0.049,0.439-0.049,0.688v5.912c0,1.343,0.41,2.014,1.231,2.014c0.826,0,1.238-0.671,1.238-2.014v-5.912
				C23.616,12.474,23.204,11.8,22.378,11.8z M43.289,18.981h1.414l-0.691-5.076L43.289,18.981z M52.917,15.167
				c0.172-0.096,0.302-0.237,0.391-0.422c0.088-0.185,0.151-0.384,0.186-0.596c0.036-0.213,0.053-0.464,0.053-0.752
				c0-0.229-0.017-0.429-0.049-0.601c-0.033-0.172-0.07-0.314-0.11-0.43c-0.041-0.114-0.108-0.21-0.205-0.289
				s-0.181-0.137-0.254-0.175c-0.074-0.038-0.185-0.066-0.334-0.083c-0.148-0.018-0.27-0.028-0.361-0.03
				c-0.091-0.003-0.233-0.004-0.426-0.004v3.526h0.471C52.531,15.311,52.744,15.262,52.917,15.167z M94.269,11.8
				c-0.25,0-0.459,0.062-0.632,0.187c-0.172,0.125-0.299,0.294-0.38,0.509s-0.138,0.428-0.171,0.638s-0.049,0.439-0.049,0.688v5.912
				c0,1.343,0.41,2.014,1.231,2.014c0.825,0,1.237-0.671,1.237-2.014v-5.912C95.506,12.474,95.093,11.8,94.269,11.8z M52.096,17.127
				h-0.272v4.529h0.258c0.359,0,0.651-0.042,0.874-0.125c0.223-0.083,0.393-0.228,0.509-0.429c0.116-0.203,0.194-0.433,0.232-0.688
				c0.038-0.255,0.057-0.599,0.057-1.029c0-0.714-0.125-1.269-0.376-1.664C53.125,17.324,52.698,17.127,52.096,17.127z
				 M104.188,12.677c-0.06-0.21-0.155-0.382-0.289-0.517c-0.135-0.135-0.297-0.201-0.49-0.201h-0.919v3.663h0.79
				c0.213,0,0.395-0.071,0.547-0.213s0.262-0.322,0.331-0.54s0.116-0.418,0.145-0.6c0.028-0.184,0.042-0.355,0.042-0.518
				s-0.012-0.329-0.033-0.501C104.286,13.08,104.246,12.887,104.188,12.677z M78.242,18.981h1.414l-0.691-5.076L78.242,18.981z
				 M61.541,11.8c-0.249,0-0.458,0.062-0.631,0.187c-0.172,0.125-0.299,0.294-0.38,0.509c-0.081,0.215-0.138,0.428-0.171,0.638
				c-0.033,0.21-0.049,0.439-0.049,0.688v5.912c0,1.343,0.41,2.014,1.231,2.014c0.826,0,1.238-0.671,1.238-2.014v-5.912
				C62.779,12.474,62.366,11.8,61.541,11.8z M71.46,12.677c-0.059-0.21-0.154-0.382-0.289-0.517
				c-0.134-0.135-0.297-0.201-0.49-0.201h-0.919v3.663h0.79c0.213,0,0.396-0.071,0.547-0.213c0.152-0.142,0.262-0.322,0.332-0.54
				c0.068-0.218,0.116-0.418,0.145-0.6c0.027-0.184,0.042-0.355,0.042-0.518s-0.013-0.329-0.034-0.501
				C71.56,13.08,71.519,12.887,71.46,12.677z"/>
		</g>
	</g>
</g>
</svg>
