<?xml version="1.0" encoding="utf-8"?>
<!-- Generator: Adobe Illustrator 16.0.0, SVG Export Plug-In . SVG Version: 6.00 Build 0)  -->
<!DOCTYPE svg PUBLIC "-//W3C//DTD SVG 1.1//EN" "http://www.w3.org/Graphics/SVG/1.1/DTD/svg11.dtd">
<svg version="1.1" id="Layer_1" xmlns="http://www.w3.org/2000/svg" xmlns:xlink="http://www.w3.org/1999/xlink" x="0px" y="0px"
	 width="240.244px" height="80.5px" viewBox="0 0 240.244 80.5" enable-background="new 0 0 240.244 80.5" xml:space="preserve">
<g id="RING_DESCRIPTIONS">
</g>
<g id="LABELS">
	<g opacity="0.85">
		<g>
			<path fill="#7F722D" d="M211.498,14.27h-12.685V2.162H2.161v28.651h196.652v-12.22h9.879L236.298,80.5l3.946-1.76v-0.002
				L211.498,14.27z M17.02,15.454H14.3v-1.261c0-0.248-0.005-0.462-0.015-0.643c-0.01-0.18-0.037-0.385-0.08-0.615
				s-0.102-0.418-0.175-0.562c-0.074-0.145-0.183-0.267-0.327-0.369c-0.144-0.101-0.318-0.152-0.521-0.152
				c-0.8,0-1.2,0.674-1.2,2.021v5.904c0,1.342,0.4,2.014,1.2,2.014c0.238,0,0.438-0.068,0.601-0.205
				c0.163-0.137,0.278-0.331,0.35-0.582c0.071-0.25,0.119-0.496,0.144-0.737s0.038-0.516,0.038-0.825v-1.406h2.705v1.155
				c-0.01,0.521-0.053,1.003-0.129,1.443c-0.076,0.441-0.206,0.869-0.388,1.284c-0.183,0.416-0.414,0.767-0.695,1.053
				c-0.281,0.286-0.645,0.518-1.09,0.691c-0.445,0.174-0.958,0.262-1.535,0.262c-0.592,0-1.118-0.085-1.577-0.255
				c-0.458-0.169-0.835-0.397-1.132-0.684c-0.297-0.287-0.541-0.636-0.734-1.055c-0.193-0.418-0.328-0.856-0.407-1.317
				s-0.118-0.968-0.118-1.521v-4.528c0-3.232,1.322-4.848,3.966-4.848c0.558,0,1.053,0.075,1.486,0.224s0.796,0.356,1.09,0.619
				c0.293,0.264,0.536,0.588,0.726,0.973c0.19,0.385,0.327,0.803,0.41,1.254c0.084,0.451,0.125,0.947,0.125,1.489v1.177H17.02z
				 M26.138,19.094c0,0.547-0.041,1.053-0.122,1.517c-0.081,0.463-0.219,0.902-0.414,1.317c-0.195,0.416-0.443,0.77-0.745,1.061
				c-0.302,0.291-0.683,0.521-1.144,0.688s-0.988,0.251-1.581,0.251c-0.588,0-1.112-0.083-1.573-0.247
				c-0.461-0.164-0.841-0.388-1.14-0.669c-0.299-0.281-0.546-0.625-0.741-1.033c-0.195-0.408-0.334-0.842-0.418-1.303
				s-0.125-0.965-0.125-1.512v-4.597c0-3.232,1.333-4.848,3.997-4.848c2.669,0,4.004,1.616,4.004,4.848v4.528H26.138z
				 M34.876,23.661h-1.915l-2.994-7.591v7.591h-2.378V9.976h1.991l3.001,7.158V9.976h2.295V23.661z M42.376,23.026
				c-0.684,0.61-1.515,0.916-2.492,0.916c-0.633,0-1.195-0.117-1.687-0.35c-0.491-0.233-0.888-0.55-1.189-0.95
				c-0.301-0.4-0.533-0.844-0.695-1.33s-0.256-1.008-0.281-1.565l2.804-0.54c0,0.278,0.005,0.524,0.015,0.737
				c0.01,0.213,0.037,0.444,0.08,0.694c0.043,0.251,0.102,0.456,0.175,0.616c0.073,0.159,0.177,0.293,0.312,0.402
				c0.134,0.109,0.292,0.164,0.475,0.164c0.547,0,0.82-0.351,0.82-1.048c0-0.958-0.54-1.91-1.618-2.857l-0.859-0.729
				c-0.273-0.228-0.491-0.418-0.653-0.57c-0.162-0.152-0.354-0.357-0.574-0.615c-0.22-0.258-0.393-0.508-0.517-0.749
				c-0.125-0.241-0.23-0.531-0.319-0.87c-0.088-0.339-0.133-0.699-0.133-1.079c0-1.108,0.352-1.987,1.056-2.633
				c0.704-0.646,1.639-0.969,2.804-0.969c0.968,0,1.791,0.345,2.47,1.033c0.679,0.688,1.018,1.52,1.018,2.493l-0.007,0.099v0.228
				l-2.857,0.396c0-0.056,0.004-0.144,0.012-0.262c0.007-0.119,0.011-0.216,0.011-0.292c0-0.182-0.013-0.357-0.038-0.524
				c-0.025-0.167-0.067-0.334-0.125-0.501c-0.058-0.167-0.148-0.3-0.27-0.399c-0.122-0.099-0.27-0.147-0.441-0.147
				c-0.304,0-0.532,0.119-0.684,0.356c-0.152,0.238-0.229,0.521-0.229,0.843c0,0.284,0.044,0.55,0.133,0.798
				c0.089,0.249,0.223,0.479,0.403,0.695c0.18,0.215,0.346,0.394,0.498,0.536c0.152,0.143,0.354,0.315,0.608,0.521
				c0.253,0.206,0.433,0.355,0.54,0.452c0.39,0.345,0.719,0.667,0.988,0.969c0.269,0.301,0.522,0.642,0.76,1.022
				c0.238,0.38,0.417,0.79,0.536,1.231c0.119,0.44,0.178,0.917,0.178,1.428C43.402,21.632,43.06,22.416,42.376,23.026z
				 M50.21,11.883h-2.94v3.723h2.082v1.945H47.27v4.21h2.94v1.899h-5.707V9.983h5.707V11.883z M55.985,23.661l-1.565-6.299h-0.456
				v6.299h-2.766V9.983h3.009c0.684,0,1.285,0.064,1.805,0.194c0.52,0.129,0.974,0.332,1.364,0.608
				c0.39,0.276,0.687,0.648,0.889,1.117c0.202,0.469,0.304,1.029,0.304,1.683c0,0.284-0.01,0.537-0.03,0.76
				c-0.021,0.224-0.067,0.479-0.141,0.764c-0.074,0.286-0.174,0.54-0.3,0.76c-0.126,0.221-0.309,0.437-0.547,0.65
				c-0.238,0.213-0.52,0.39-0.844,0.532c0.821,2.604,1.535,4.808,2.143,6.611L55.985,23.661L55.985,23.661z M61.517,23.661
				L59.001,9.983h2.622l1.208,8.29l1.337-8.29h2.583L64.046,23.66L61.517,23.661L61.517,23.661z M71.866,23.661l-0.562-2.925h-1.786
				l-0.532,2.925h-2.743l2.956-13.677h2.447l2.948,13.677H71.866z M81.128,12.05H79.16v11.61h-2.766V12.05h-2.006V9.983h6.74V12.05z
				 M89.738,19.094c0,0.547-0.041,1.053-0.122,1.517c-0.081,0.463-0.219,0.902-0.414,1.317c-0.195,0.416-0.443,0.77-0.745,1.061
				s-0.683,0.521-1.144,0.688s-0.988,0.251-1.581,0.251c-0.588,0-1.112-0.083-1.573-0.247c-0.461-0.164-0.841-0.388-1.14-0.669
				c-0.299-0.281-0.546-0.625-0.741-1.033c-0.195-0.408-0.334-0.842-0.418-1.303s-0.125-0.965-0.125-1.512v-4.597
				c0-3.232,1.333-4.848,3.997-4.848c2.669,0,4.004,1.616,4.004,4.848v4.528H89.738z M95.976,23.661l-1.565-6.299h-0.456v6.299
				h-2.766V9.983h3.009c0.684,0,1.285,0.064,1.805,0.194c0.519,0.129,0.974,0.332,1.364,0.608c0.39,0.276,0.687,0.648,0.889,1.117
				c0.202,0.469,0.304,1.029,0.304,1.683c0,0.284-0.01,0.537-0.03,0.76c-0.021,0.224-0.067,0.479-0.141,0.764
				c-0.074,0.286-0.174,0.54-0.3,0.76c-0.126,0.221-0.309,0.437-0.547,0.65c-0.238,0.213-0.52,0.39-0.844,0.532
				c0.821,2.604,1.535,4.808,2.143,6.611L95.976,23.661L95.976,23.661z M104.069,23.661h-1.36l4.384-13.943h1.368L104.069,23.661z
				 M118.62,23.026c-0.684,0.61-1.515,0.916-2.492,0.916c-0.633,0-1.195-0.117-1.687-0.35c-0.491-0.233-0.888-0.55-1.189-0.95
				s-0.533-0.844-0.695-1.33c-0.162-0.486-0.256-1.008-0.281-1.565l2.804-0.54c0,0.278,0.005,0.524,0.015,0.737
				c0.01,0.213,0.037,0.444,0.08,0.694c0.043,0.251,0.102,0.456,0.175,0.616c0.073,0.159,0.177,0.293,0.312,0.402
				c0.134,0.109,0.292,0.164,0.475,0.164c0.547,0,0.82-0.351,0.82-1.048c0-0.958-0.54-1.91-1.618-2.857l-0.859-0.729
				c-0.273-0.228-0.491-0.418-0.653-0.57c-0.162-0.152-0.354-0.357-0.574-0.615c-0.22-0.258-0.393-0.508-0.517-0.749
				c-0.125-0.241-0.23-0.531-0.319-0.87c-0.088-0.339-0.133-0.699-0.133-1.079c0-1.108,0.352-1.987,1.056-2.633
				s1.639-0.969,2.804-0.969c0.968,0,1.791,0.345,2.47,1.033c0.679,0.688,1.018,1.52,1.018,2.493l-0.007,0.099v0.228l-2.857,0.396
				c0-0.056,0.004-0.144,0.012-0.262c0.007-0.119,0.011-0.216,0.011-0.292c0-0.182-0.013-0.357-0.038-0.524
				s-0.067-0.334-0.125-0.501s-0.148-0.3-0.27-0.399c-0.122-0.099-0.269-0.147-0.441-0.147c-0.304,0-0.532,0.119-0.684,0.356
				c-0.152,0.238-0.228,0.521-0.228,0.843c0,0.284,0.044,0.55,0.133,0.798c0.089,0.249,0.223,0.479,0.403,0.695
				c0.18,0.215,0.346,0.394,0.498,0.536c0.152,0.143,0.354,0.315,0.608,0.521c0.253,0.206,0.433,0.355,0.54,0.452
				c0.39,0.345,0.719,0.667,0.988,0.969c0.269,0.301,0.522,0.642,0.76,1.022c0.238,0.38,0.417,0.79,0.536,1.231
				c0.119,0.44,0.178,0.917,0.178,1.428C119.646,21.632,119.304,22.416,118.62,23.026z M128.665,18.577
				c0,0.436-0.014,0.831-0.038,1.186c-0.024,0.355-0.074,0.723-0.146,1.103c-0.07,0.38-0.166,0.716-0.289,1.007
				c-0.121,0.292-0.283,0.57-0.485,0.836s-0.442,0.485-0.718,0.657c-0.276,0.172-0.609,0.309-0.999,0.41
				c-0.39,0.102-0.828,0.152-1.314,0.152c-0.485,0-0.925-0.051-1.315-0.152c-0.39-0.101-0.721-0.238-0.994-0.41
				s-0.512-0.391-0.715-0.657c-0.201-0.266-0.364-0.544-0.485-0.836c-0.122-0.291-0.219-0.627-0.292-1.007
				c-0.074-0.38-0.123-0.747-0.148-1.103c-0.024-0.354-0.037-0.75-0.037-1.186V9.983h2.766v8.51c0,0.486,0.002,0.84,0.008,1.06
				c0.005,0.22,0.018,0.489,0.038,0.805c0.021,0.317,0.056,0.539,0.106,0.665s0.121,0.264,0.209,0.41
				c0.088,0.147,0.203,0.243,0.346,0.289c0.142,0.045,0.314,0.068,0.517,0.068s0.375-0.023,0.517-0.068
				c0.143-0.046,0.258-0.141,0.347-0.285c0.088-0.145,0.158-0.28,0.209-0.406c0.05-0.127,0.086-0.346,0.106-0.657
				c0.02-0.312,0.033-0.575,0.037-0.791c0.006-0.215,0.008-0.563,0.008-1.045V9.983h2.767v8.594H128.665z M136.769,15.469
				c-0.119,0.456-0.285,0.832-0.498,1.128c-0.213,0.296-0.485,0.535-0.82,0.714s-0.697,0.307-1.086,0.38
				c-0.391,0.074-0.842,0.113-1.354,0.118v5.851h-2.781V9.983h3.307c1.189,0,2.056,0.332,2.599,0.995
				c0.542,0.664,0.813,1.624,0.813,2.88C136.947,14.477,136.888,15.014,136.769,15.469z M144.534,15.469
				c-0.119,0.456-0.285,0.832-0.498,1.128c-0.213,0.296-0.486,0.535-0.821,0.714s-0.696,0.307-1.086,0.38
				c-0.39,0.074-0.841,0.113-1.353,0.118v5.851h-2.781V9.983h3.306c1.19,0,2.056,0.332,2.599,0.995
				c0.543,0.664,0.813,1.624,0.813,2.88C144.713,14.477,144.653,15.014,144.534,15.469z M153.588,19.094
				c0,0.547-0.041,1.053-0.122,1.517c-0.081,0.463-0.219,0.902-0.414,1.317c-0.195,0.416-0.443,0.77-0.744,1.061
				c-0.303,0.291-0.684,0.521-1.145,0.688s-0.988,0.251-1.581,0.251c-0.588,0-1.112-0.083-1.573-0.247
				c-0.461-0.164-0.841-0.388-1.14-0.669c-0.299-0.281-0.546-0.625-0.741-1.033s-0.334-0.842-0.418-1.303s-0.125-0.965-0.125-1.512
				v-4.597c0-3.232,1.333-4.848,3.997-4.848c2.669,0,4.004,1.616,4.004,4.848v4.528H153.588z M159.827,23.661l-1.565-6.299h-0.456
				v6.299h-2.766V9.983h3.009c0.685,0,1.285,0.064,1.806,0.194c0.519,0.129,0.974,0.332,1.363,0.608
				c0.391,0.276,0.688,0.648,0.889,1.117c0.203,0.469,0.305,1.029,0.305,1.683c0,0.284-0.01,0.537-0.03,0.76
				c-0.021,0.224-0.067,0.479-0.141,0.764c-0.074,0.286-0.175,0.54-0.3,0.76c-0.127,0.221-0.31,0.437-0.547,0.65
				c-0.238,0.213-0.521,0.39-0.845,0.532c0.821,2.604,1.535,4.808,2.144,6.611L159.827,23.661L159.827,23.661z M169.599,12.05
				h-1.969v11.61h-2.766V12.05h-2.006V9.983h6.74V12.05z M173.284,23.661h-2.766V9.983h2.766V23.661z M182.197,23.661h-1.915
				l-2.994-7.591v7.591h-2.378V9.976h1.991l3,7.158V9.976h2.296V23.661z M191.71,23.661h-1.898l-0.351-0.958
				c-0.233,0.365-0.565,0.66-0.996,0.885c-0.431,0.226-0.874,0.338-1.33,0.338c-0.491,0-0.938-0.09-1.341-0.27
				c-0.402-0.18-0.734-0.418-0.995-0.714c-0.261-0.296-0.479-0.645-0.657-1.044c-0.178-0.4-0.304-0.81-0.38-1.228
				c-0.075-0.417-0.114-0.847-0.114-1.288v-4.817c0-3.232,1.346-4.848,4.035-4.848c0.567,0,1.072,0.075,1.517,0.224
				s0.813,0.356,1.112,0.619c0.299,0.264,0.545,0.588,0.737,0.973c0.193,0.385,0.332,0.803,0.418,1.254s0.129,0.947,0.129,1.489
				v0.806h-2.645v-0.958c0-0.238-0.006-0.447-0.019-0.627c-0.014-0.18-0.045-0.38-0.096-0.6c-0.051-0.221-0.119-0.401-0.205-0.543
				s-0.21-0.261-0.373-0.357c-0.163-0.096-0.354-0.145-0.576-0.145c-0.847,0-1.27,0.674-1.27,2.021v5.904
				c0,1.342,0.423,2.014,1.27,2.014c0.84,0,1.26-0.697,1.26-2.09v-1.094h-1.564v-1.983h4.331L191.71,23.661L191.71,23.661z
				 M134.295,12.97c-0.015-0.157-0.04-0.274-0.071-0.354c-0.033-0.079-0.082-0.168-0.146-0.271c-0.063-0.101-0.142-0.174-0.231-0.22
				c-0.091-0.045-0.207-0.086-0.346-0.122c-0.139-0.035-0.3-0.053-0.482-0.053v3.906c0.147,0,0.277-0.009,0.393-0.026
				c0.113-0.018,0.214-0.038,0.3-0.061s0.162-0.064,0.228-0.125c0.066-0.061,0.121-0.114,0.164-0.16
				c0.043-0.045,0.08-0.12,0.11-0.225c0.03-0.104,0.054-0.188,0.068-0.254c0.015-0.066,0.026-0.172,0.034-0.319
				c0.007-0.147,0.011-0.265,0.011-0.354v-0.528c0-0.197-0.001-0.347-0.004-0.448C134.319,13.256,134.312,13.126,134.295,12.97z
				 M22.134,11.853c-0.249,0-0.458,0.062-0.631,0.186c-0.172,0.125-0.299,0.294-0.38,0.509s-0.138,0.428-0.171,0.638
				c-0.033,0.21-0.049,0.439-0.049,0.688v5.912c0,1.343,0.41,2.014,1.231,2.014c0.826,0,1.238-0.671,1.238-2.014v-5.912
				C23.372,12.526,22.959,11.853,22.134,11.853z M142.062,12.97c-0.016-0.157-0.041-0.274-0.072-0.354
				c-0.033-0.079-0.081-0.168-0.146-0.271c-0.062-0.101-0.141-0.174-0.23-0.22c-0.091-0.045-0.207-0.086-0.347-0.122
				c-0.139-0.035-0.3-0.053-0.481-0.053v3.906c0.147,0,0.276-0.009,0.392-0.026c0.114-0.018,0.215-0.038,0.301-0.061
				s0.162-0.064,0.228-0.125s0.121-0.114,0.164-0.16c0.043-0.045,0.08-0.12,0.11-0.225c0.029-0.104,0.053-0.188,0.067-0.254
				c0.015-0.066,0.026-0.172,0.034-0.319c0.007-0.147,0.011-0.265,0.011-0.354v-0.528c0-0.197-0.001-0.347-0.004-0.448
				C142.085,13.256,142.076,13.126,142.062,12.97z M159.504,12.73c-0.06-0.21-0.155-0.382-0.289-0.517s-0.297-0.201-0.489-0.201
				h-0.92v3.663h0.79c0.214,0,0.396-0.071,0.548-0.213c0.151-0.142,0.262-0.322,0.33-0.54c0.069-0.218,0.117-0.418,0.146-0.6
				c0.028-0.184,0.042-0.355,0.042-0.518c0-0.162-0.012-0.329-0.034-0.501C159.603,13.132,159.562,12.94,159.504,12.73z
				 M69.708,19.033h1.414l-0.691-5.076L69.708,19.033z M95.653,12.73c-0.059-0.21-0.155-0.382-0.289-0.517
				c-0.134-0.135-0.297-0.201-0.49-0.201h-0.919v3.663h0.79c0.213,0,0.395-0.071,0.547-0.213c0.152-0.142,0.262-0.322,0.331-0.54
				c0.069-0.218,0.117-0.418,0.145-0.6c0.028-0.184,0.042-0.355,0.042-0.518c0-0.162-0.012-0.329-0.034-0.501
				C95.752,13.132,95.711,12.94,95.653,12.73z M149.584,11.853c-0.249,0-0.458,0.062-0.631,0.186
				c-0.172,0.125-0.299,0.294-0.38,0.509s-0.139,0.428-0.172,0.638c-0.032,0.21-0.049,0.439-0.049,0.688v5.912
				c0,1.343,0.41,2.014,1.231,2.014c0.826,0,1.238-0.671,1.238-2.014v-5.912C150.822,12.526,150.41,11.853,149.584,11.853z
				 M55.662,12.73c-0.059-0.21-0.155-0.382-0.289-0.517s-0.297-0.201-0.49-0.201h-0.919v3.663h0.79c0.213,0,0.395-0.071,0.547-0.213
				c0.152-0.142,0.262-0.322,0.331-0.54c0.069-0.218,0.117-0.418,0.145-0.6c0.028-0.184,0.042-0.355,0.042-0.518
				c0-0.162-0.012-0.329-0.034-0.501C55.761,13.132,55.72,12.94,55.662,12.73z M85.733,11.853c-0.249,0-0.458,0.062-0.631,0.186
				c-0.172,0.125-0.299,0.294-0.38,0.509c-0.081,0.215-0.138,0.428-0.171,0.638c-0.033,0.21-0.049,0.439-0.049,0.688v5.912
				c0,1.343,0.41,2.014,1.231,2.014c0.826,0,1.238-0.671,1.238-2.014v-5.912C86.972,12.526,86.559,11.853,85.733,11.853z"/>
		</g>
	</g>
</g>
</svg>
