<?xml version="1.0" encoding="utf-8"?>
<!-- Generator: Adobe Illustrator 16.0.0, SVG Export Plug-In . SVG Version: 6.00 Build 0)  -->
<!DOCTYPE svg PUBLIC "-//W3C//DTD SVG 1.1//EN" "http://www.w3.org/Graphics/SVG/1.1/DTD/svg11.dtd">
<svg version="1.1" id="Layer_1" xmlns="http://www.w3.org/2000/svg" xmlns:xlink="http://www.w3.org/1999/xlink" x="0px" y="0px"
	 width="140.27px" height="40.801px" viewBox="0 0 140.27 40.801" enable-background="new 0 0 140.27 40.801" xml:space="preserve">
<g id="RING_DESCRIPTIONS">
</g>
<g id="LABELS">
	<g opacity="0.85">
		<g>
			<path fill="#E68267" d="M-56.339,47.866h-0.002l0,0H-56.339z"/>
		</g>
	</g>
	<g opacity="0.85">
		<g>
			<path fill="#7F473D" d="M2.152,40.801L2.152,40.801H2.15H2.152z M112.184,11.792c-0.269-0.146-0.72-0.223-1.353-0.228v9.794
				c0.263,0,0.471-0.004,0.623-0.012c0.15-0.008,0.304-0.025,0.456-0.057c0.15-0.031,0.263-0.072,0.334-0.125
				c0.07-0.053,0.137-0.131,0.196-0.232c0.062-0.101,0.102-0.221,0.118-0.361c0.019-0.14,0.026-0.312,0.026-0.521v-7.363
				C112.586,12.238,112.452,11.939,112.184,11.792z M127.962,12.366c-0.06-0.21-0.154-0.382-0.289-0.517
				c-0.134-0.134-0.298-0.201-0.49-0.201h-0.919v3.663h0.79c0.213,0,0.396-0.071,0.547-0.213c0.152-0.142,0.264-0.322,0.331-0.54
				c0.068-0.218,0.116-0.418,0.146-0.6c0.026-0.183,0.041-0.355,0.041-0.517c0-0.162-0.012-0.329-0.034-0.501
				C128.061,12.768,128.02,12.577,127.962,12.366z M50.457,2.162v12.346L39.3,14.505L0,37.051l2.15,3.75l38.302-21.972h10.005
				v11.733h87.65v-28.4H50.457z M65.916,15.09h-2.722v-1.261c0-0.248-0.005-0.462-0.016-0.642c-0.01-0.18-0.036-0.385-0.079-0.615
				c-0.043-0.23-0.102-0.418-0.175-0.562c-0.073-0.144-0.183-0.267-0.327-0.369c-0.145-0.101-0.316-0.152-0.521-0.152
				c-0.801,0-1.2,0.674-1.2,2.021v5.904c0,1.342,0.399,2.014,1.2,2.014c0.237,0,0.438-0.068,0.601-0.205s0.278-0.331,0.35-0.582
				c0.07-0.25,0.119-0.496,0.146-0.737c0.026-0.241,0.038-0.517,0.038-0.825v-1.406h2.705v1.155
				c-0.011,0.521-0.054,1.003-0.13,1.443c-0.075,0.441-0.205,0.868-0.389,1.284c-0.182,0.416-0.414,0.768-0.693,1.053
				c-0.281,0.286-0.646,0.518-1.091,0.691c-0.446,0.175-0.957,0.262-1.535,0.262c-0.594,0-1.118-0.085-1.576-0.256
				c-0.459-0.168-0.836-0.396-1.133-0.684c-0.296-0.285-0.54-0.638-0.733-1.056c-0.192-0.418-0.327-0.857-0.406-1.318
				c-0.078-0.461-0.116-0.968-0.116-1.52V14.2c0-3.232,1.32-4.848,3.966-4.848c0.558,0,1.053,0.075,1.484,0.224
				c0.435,0.149,0.797,0.355,1.092,0.619c0.294,0.264,0.535,0.588,0.726,0.973s0.327,0.803,0.41,1.254
				c0.084,0.451,0.126,0.947,0.126,1.489L65.916,15.09L65.916,15.09z M75.034,18.73c0,0.547-0.041,1.053-0.122,1.516
				s-0.22,0.903-0.414,1.318c-0.194,0.416-0.443,0.769-0.744,1.06c-0.302,0.291-0.683,0.521-1.145,0.688
				c-0.461,0.167-0.987,0.251-1.58,0.251c-0.588,0-1.111-0.083-1.572-0.247c-0.461-0.163-0.841-0.388-1.141-0.669
				s-0.546-0.625-0.74-1.033c-0.195-0.408-0.334-0.842-0.418-1.303s-0.125-0.965-0.125-1.512v-4.597
				c0-3.232,1.332-4.848,3.996-4.848c2.67,0,4.005,1.616,4.005,4.848V18.73z M83.771,23.297h-1.914l-2.993-7.591v7.591h-2.379V9.612
				h1.99l3.002,7.158V9.612h2.294V23.297z M91.432,11.687h-1.969v11.61h-2.766v-11.61h-2.007V9.62h6.74L91.432,11.687L91.432,11.687
				z M98.058,11.519h-2.939v3.723H97.2v1.945h-2.082v4.21h2.939v1.898h-5.706V9.62h5.706V11.519z M106.332,23.297h-1.914
				l-2.994-7.591v7.591h-2.378V9.612h1.99l3.002,7.158V9.612h2.294V23.297z M115.352,18.533c0,0.486-0.015,0.911-0.045,1.271
				c-0.03,0.362-0.088,0.717-0.171,1.064c-0.084,0.346-0.198,0.641-0.343,0.881s-0.33,0.465-0.559,0.672s-0.503,0.373-0.824,0.494
				s-0.698,0.215-1.133,0.281c-0.434,0.064-0.931,0.098-1.492,0.098h-2.826V9.62h2.855c0.912,0,1.663,0.082,2.253,0.247
				c0.591,0.165,1.055,0.436,1.392,0.812s0.57,0.83,0.699,1.356c0.129,0.527,0.192,1.198,0.192,2.014L115.352,18.533L115.352,18.533
				z M122.51,11.519h-2.94v3.723h2.082v1.945h-2.082v4.21h2.94v1.898h-5.706V9.62h5.706V11.519z M128.285,23.297l-1.565-6.299
				h-0.456v6.299h-2.766V9.62h3.009c0.684,0,1.285,0.064,1.805,0.194c0.52,0.129,0.975,0.332,1.363,0.608
				c0.391,0.276,0.688,0.648,0.89,1.117s0.305,1.03,0.305,1.683c0,0.284-0.011,0.537-0.03,0.76
				c-0.021,0.223-0.067,0.478-0.141,0.764c-0.074,0.286-0.175,0.54-0.301,0.76c-0.127,0.221-0.31,0.438-0.548,0.65
				c-0.236,0.213-0.519,0.39-0.843,0.532c0.82,2.604,1.534,4.809,2.143,6.611h-2.864V23.297z M71.03,11.489
				c-0.248,0-0.458,0.062-0.631,0.186c-0.173,0.125-0.3,0.294-0.381,0.509c-0.081,0.215-0.138,0.428-0.171,0.638
				c-0.032,0.21-0.049,0.438-0.049,0.688v5.912c0,1.343,0.41,2.014,1.229,2.014c0.826,0,1.239-0.671,1.239-2.014V13.51
				C72.269,12.163,71.855,11.489,71.03,11.489z"/>
		</g>
	</g>
</g>
</svg>
