<?xml version="1.0" encoding="utf-8"?>
<!-- Generator: Adobe Illustrator 16.0.0, SVG Export Plug-In . SVG Version: 6.00 Build 0)  -->
<!DOCTYPE svg PUBLIC "-//W3C//DTD SVG 1.1//EN" "http://www.w3.org/Graphics/SVG/1.1/DTD/svg11.dtd">
<svg version="1.1" id="Layer_1" xmlns="http://www.w3.org/2000/svg" xmlns:xlink="http://www.w3.org/1999/xlink" x="0px" y="0px"
	 width="222.436px" height="129.166px" viewBox="0 0 222.436 129.166" enable-background="new 0 0 222.436 129.166"
	 xml:space="preserve">
<g id="LABELS">
	<g opacity="0.85">
		<g>
			<path fill="#8C5DA6" d="M218.207,0.002V0l-23.441,110.394h-7.705V98.606H2.161v28.397H187.06v-12.287l11.205-0.002l24.17-113.818
				L218.207,0.002z M15.246,108.04h-2.939v3.723h2.081v1.945h-2.081v4.21h2.939v1.899H9.54V106.14h5.707L15.246,108.04
				L15.246,108.04z M23.521,119.817h-1.915l-2.994-7.592v7.592h-2.378v-13.686h1.991l3.001,7.157v-7.157h2.295V119.817z
				 M33.034,119.817h-1.899l-0.35-0.957c-0.233,0.363-0.565,0.658-0.996,0.885c-0.431,0.226-0.874,0.338-1.33,0.338
				c-0.491,0-0.938-0.09-1.341-0.27c-0.402-0.181-0.734-0.418-0.995-0.715s-0.479-0.645-0.657-1.045
				c-0.178-0.399-0.304-0.81-0.38-1.228s-0.113-0.847-0.113-1.288v-4.817c0-3.23,1.345-4.848,4.034-4.848
				c0.567,0,1.072,0.075,1.517,0.226c0.443,0.149,0.813,0.354,1.112,0.618c0.3,0.263,0.545,0.589,0.737,0.974
				c0.193,0.385,0.332,0.803,0.418,1.254c0.086,0.449,0.129,0.947,0.129,1.488v0.806h-2.645v-0.957c0-0.238-0.006-0.447-0.02-0.627
				c-0.013-0.181-0.044-0.38-0.095-0.602c-0.051-0.22-0.119-0.401-0.205-0.543s-0.21-0.261-0.373-0.356
				c-0.162-0.096-0.354-0.146-0.577-0.146c-0.846,0-1.269,0.675-1.269,2.021v5.903c0,1.344,0.423,2.015,1.269,2.015
				c0.842,0,1.262-0.696,1.262-2.091v-1.094h-1.565v-1.982h4.331L33.034,119.817L33.034,119.817z M37.32,119.817h-2.767V106.14
				h2.767V119.817z M46.233,119.817h-1.915l-2.994-7.592v7.592h-2.378v-13.686h1.991l3.001,7.157v-7.157h2.295V119.817z
				 M53.565,108.04h-2.94v3.723h2.082v1.945h-2.082v4.21h2.94v1.899h-5.707V106.14h5.707V108.04z M60.26,108.04H57.32v3.723h2.082
				v1.945H57.32v4.21h2.939v1.899h-5.707V106.14h5.707V108.04z M66.035,119.817l-1.565-6.299h-0.455v6.299h-2.767V106.14h3.009
				c0.685,0,1.285,0.065,1.806,0.194c0.519,0.129,0.974,0.332,1.363,0.606c0.391,0.276,0.688,0.648,0.89,1.117
				s0.304,1.029,0.304,1.685c0,0.282-0.01,0.536-0.03,0.76s-0.066,0.478-0.141,0.765c-0.074,0.285-0.174,0.539-0.3,0.76
				c-0.126,0.22-0.31,0.437-0.547,0.648c-0.238,0.213-0.521,0.391-0.845,0.532c0.821,2.604,1.535,4.808,2.144,6.61H66.035z
				 M74.127,119.817h-1.359l4.384-13.943h1.368L74.127,119.817z M90.434,111.61h-2.721v-1.262c0-0.248-0.005-0.462-0.015-0.642
				c-0.01-0.181-0.037-0.386-0.08-0.616s-0.102-0.418-0.175-0.562c-0.074-0.145-0.184-0.268-0.327-0.368
				c-0.144-0.102-0.318-0.152-0.521-0.152c-0.8,0-1.199,0.674-1.199,2.021v5.904c0,1.342,0.399,2.014,1.199,2.014
				c0.238,0,0.438-0.068,0.602-0.205s0.278-0.331,0.35-0.581c0.071-0.251,0.119-0.497,0.145-0.737
				c0.024-0.24,0.038-0.516,0.038-0.824v-1.405h2.705v1.155c-0.011,0.521-0.054,1.002-0.13,1.442
				c-0.075,0.44-0.205,0.869-0.388,1.284c-0.183,0.416-0.414,0.767-0.695,1.053c-0.28,0.286-0.645,0.518-1.09,0.691
				c-0.444,0.174-0.958,0.262-1.535,0.262c-0.592,0-1.117-0.085-1.576-0.254c-0.458-0.17-0.835-0.396-1.133-0.686
				c-0.296-0.285-0.541-0.638-0.732-1.056c-0.192-0.418-0.328-0.856-0.407-1.317s-0.118-0.969-0.118-1.521v-4.528
				c0-3.231,1.322-4.849,3.966-4.849c0.559,0,1.054,0.075,1.486,0.226c0.434,0.149,0.796,0.354,1.09,0.618
				c0.293,0.263,0.536,0.589,0.727,0.974c0.189,0.385,0.327,0.803,0.41,1.254c0.084,0.449,0.125,0.947,0.125,1.488L90.434,111.61
				L90.434,111.61z M99.552,115.251c0,0.547-0.041,1.052-0.121,1.516c-0.081,0.465-0.22,0.903-0.414,1.318
				c-0.195,0.415-0.443,0.77-0.745,1.061c-0.303,0.291-0.684,0.521-1.145,0.688s-0.987,0.25-1.581,0.25
				c-0.588,0-1.111-0.082-1.572-0.247c-0.462-0.164-0.842-0.387-1.141-0.668s-0.546-0.626-0.741-1.033
				c-0.194-0.407-0.334-0.843-0.418-1.304s-0.125-0.965-0.125-1.512v-4.599c0-3.23,1.333-4.848,3.997-4.848
				c2.669,0,4.004,1.616,4.004,4.848v4.53H99.552z M108.29,119.817h-1.915l-2.994-7.592v7.592h-2.378v-13.686h1.991l3.001,7.157
				v-7.157h2.295V119.817z M115.79,119.183c-0.684,0.61-1.515,0.916-2.492,0.916c-0.633,0-1.194-0.115-1.687-0.35
				c-0.491-0.232-0.888-0.55-1.189-0.95c-0.301-0.399-0.532-0.843-0.694-1.329s-0.257-1.008-0.281-1.564l2.804-0.54
				c0,0.278,0.005,0.524,0.016,0.737c0.01,0.213,0.036,0.443,0.079,0.694c0.044,0.251,0.103,0.456,0.176,0.615
				c0.072,0.16,0.177,0.294,0.312,0.403c0.134,0.107,0.292,0.162,0.476,0.162c0.547,0,0.819-0.35,0.819-1.049
				c0-0.957-0.54-1.908-1.618-2.855l-0.858-0.729c-0.273-0.229-0.491-0.418-0.653-0.569c-0.162-0.152-0.354-0.357-0.574-0.615
				c-0.22-0.26-0.393-0.508-0.517-0.749c-0.125-0.24-0.23-0.53-0.319-0.869c-0.088-0.34-0.133-0.699-0.133-1.079
				c0-1.109,0.353-1.986,1.056-2.633c0.704-0.646,1.64-0.971,2.805-0.971c0.968,0,1.791,0.346,2.47,1.035
				c0.679,0.688,1.018,1.52,1.018,2.491l-0.007,0.099v0.229l-2.856,0.396c0-0.057,0.004-0.144,0.012-0.263
				c0.007-0.118,0.011-0.217,0.011-0.293c0-0.183-0.013-0.356-0.038-0.524c-0.024-0.166-0.066-0.334-0.125-0.5
				c-0.058-0.168-0.147-0.301-0.27-0.399c-0.122-0.098-0.27-0.147-0.441-0.147c-0.304,0-0.531,0.119-0.684,0.356
				c-0.152,0.238-0.229,0.521-0.229,0.845c0,0.282,0.044,0.549,0.134,0.797c0.089,0.248,0.223,0.479,0.402,0.695
				c0.181,0.215,0.347,0.395,0.498,0.535c0.152,0.143,0.354,0.314,0.608,0.521c0.254,0.205,0.433,0.355,0.54,0.451
				c0.39,0.346,0.719,0.668,0.987,0.969c0.27,0.303,0.522,0.644,0.761,1.022c0.237,0.38,0.417,0.79,0.536,1.23
				c0.118,0.44,0.178,0.917,0.178,1.429C116.815,117.788,116.474,118.572,115.79,119.183z M123.951,108.207h-1.968v11.61h-2.767
				v-11.61h-2.006v-2.067h6.74V108.207z M129.657,119.817l-1.565-6.299h-0.456v6.299h-2.766V106.14h3.009
				c0.685,0,1.285,0.065,1.806,0.194c0.519,0.129,0.974,0.332,1.363,0.606c0.391,0.276,0.688,0.648,0.89,1.117
				s0.304,1.029,0.304,1.685c0,0.282-0.01,0.536-0.03,0.76s-0.066,0.478-0.141,0.765c-0.074,0.285-0.174,0.539-0.3,0.76
				c-0.126,0.22-0.31,0.437-0.547,0.648c-0.238,0.213-0.521,0.391-0.845,0.532c0.821,2.604,1.535,4.808,2.144,6.61H129.657z
				 M141.313,114.733c0,0.437-0.014,0.83-0.038,1.186c-0.025,0.355-0.074,0.723-0.146,1.104c-0.07,0.379-0.167,0.715-0.289,1.007
				c-0.122,0.29-0.283,0.569-0.485,0.835c-0.203,0.267-0.442,0.484-0.719,0.658c-0.275,0.172-0.608,0.309-0.998,0.41
				c-0.391,0.101-0.828,0.15-1.314,0.15s-0.925-0.051-1.315-0.15c-0.39-0.103-0.722-0.238-0.994-0.41
				c-0.273-0.174-0.513-0.393-0.715-0.658s-0.364-0.545-0.485-0.835c-0.122-0.292-0.22-0.628-0.292-1.007
				c-0.074-0.381-0.123-0.748-0.148-1.104c-0.024-0.354-0.038-0.749-0.038-1.186v-8.594h2.767v8.51c0,0.486,0.002,0.841,0.008,1.061
				c0.005,0.221,0.018,0.489,0.038,0.807c0.021,0.315,0.056,0.537,0.105,0.664c0.052,0.127,0.121,0.264,0.209,0.41
				c0.089,0.147,0.204,0.243,0.347,0.289c0.142,0.046,0.313,0.068,0.517,0.068c0.202,0,0.375-0.022,0.517-0.068
				c0.143-0.046,0.258-0.141,0.347-0.285c0.088-0.145,0.158-0.279,0.209-0.406c0.05-0.127,0.086-0.346,0.105-0.656
				c0.021-0.312,0.033-0.575,0.038-0.79c0.005-0.216,0.008-0.563,0.008-1.045v-8.558h2.767v8.594H141.313z M150.507,111.61h-2.72
				v-1.262c0-0.248-0.005-0.462-0.015-0.642c-0.011-0.181-0.037-0.386-0.08-0.616s-0.103-0.418-0.175-0.562
				c-0.074-0.145-0.184-0.268-0.327-0.368c-0.145-0.102-0.318-0.152-0.521-0.152c-0.8,0-1.2,0.674-1.2,2.021v5.904
				c0,1.342,0.4,2.014,1.2,2.014c0.238,0,0.438-0.068,0.602-0.205s0.277-0.331,0.35-0.581c0.071-0.251,0.119-0.497,0.145-0.737
				c0.024-0.24,0.037-0.516,0.037-0.824v-1.405h2.705v1.155c-0.01,0.521-0.053,1.002-0.129,1.442s-0.206,0.869-0.388,1.284
				c-0.183,0.416-0.414,0.767-0.695,1.053c-0.28,0.286-0.645,0.518-1.09,0.691s-0.958,0.262-1.535,0.262
				c-0.592,0-1.118-0.085-1.577-0.254c-0.458-0.17-0.835-0.396-1.132-0.686c-0.296-0.285-0.541-0.638-0.732-1.056
				c-0.192-0.418-0.328-0.856-0.407-1.317s-0.118-0.969-0.118-1.521v-4.528c0-3.231,1.322-4.849,3.966-4.849
				c0.559,0,1.054,0.075,1.486,0.226c0.433,0.149,0.796,0.354,1.09,0.618c0.293,0.263,0.536,0.589,0.726,0.974
				c0.19,0.385,0.327,0.803,0.41,1.254c0.084,0.449,0.125,0.947,0.125,1.488L150.507,111.61L150.507,111.61z M157.833,108.207
				h-1.968v11.61h-2.766v-11.61h-2.007v-2.067h6.74V108.207z M161.518,119.817h-2.767V106.14h2.767V119.817z M170.431,119.817
				h-1.915l-2.994-7.592v7.592h-2.378v-13.686h1.99l3.001,7.157v-7.157h2.296V119.817z M179.944,119.817h-1.899l-0.35-0.957
				c-0.233,0.363-0.565,0.658-0.996,0.885c-0.431,0.226-0.874,0.338-1.33,0.338c-0.491,0-0.938-0.09-1.341-0.27
				c-0.402-0.181-0.734-0.418-0.995-0.715s-0.48-0.645-0.657-1.045c-0.178-0.399-0.304-0.81-0.38-1.228s-0.114-0.847-0.114-1.288
				v-4.817c0-3.23,1.346-4.848,4.035-4.848c0.567,0,1.072,0.075,1.517,0.226c0.443,0.149,0.813,0.354,1.112,0.618
				c0.299,0.263,0.544,0.589,0.737,0.974s0.332,0.803,0.418,1.254c0.086,0.449,0.129,0.947,0.129,1.488v0.806h-2.645v-0.957
				c0-0.238-0.007-0.447-0.02-0.627c-0.013-0.181-0.044-0.38-0.095-0.602c-0.051-0.22-0.119-0.401-0.205-0.543
				s-0.21-0.261-0.373-0.356c-0.162-0.096-0.354-0.146-0.577-0.146c-0.846,0-1.269,0.675-1.269,2.021v5.903
				c0,1.344,0.423,2.015,1.269,2.015c0.841,0,1.261-0.696,1.261-2.091v-1.094h-1.564v-1.982h4.331L179.944,119.817L179.944,119.817z
				 M95.547,108.009c-0.249,0-0.458,0.062-0.631,0.188s-0.299,0.294-0.38,0.509c-0.081,0.216-0.138,0.429-0.171,0.639
				s-0.049,0.439-0.049,0.688v5.912c0,1.342,0.41,2.014,1.23,2.014c0.826,0,1.238-0.672,1.238-2.014v-5.912
				C96.786,108.683,96.373,108.009,95.547,108.009z M65.712,108.887c-0.059-0.21-0.154-0.382-0.289-0.517
				c-0.134-0.135-0.297-0.201-0.489-0.201h-0.919v3.662h0.789c0.214,0,0.396-0.07,0.548-0.213c0.151-0.143,0.262-0.321,0.331-0.539
				c0.068-0.219,0.116-0.418,0.145-0.602c0.028-0.182,0.042-0.354,0.042-0.517s-0.012-0.329-0.034-0.501
				C65.811,109.288,65.77,109.097,65.712,108.887z M129.334,108.887c-0.059-0.21-0.155-0.382-0.289-0.517s-0.297-0.201-0.49-0.201
				h-0.919v3.662h0.79c0.214,0,0.396-0.07,0.548-0.213c0.151-0.143,0.262-0.321,0.33-0.539c0.069-0.219,0.117-0.418,0.146-0.602
				c0.028-0.182,0.042-0.354,0.042-0.517s-0.012-0.329-0.034-0.501C129.433,109.288,129.393,109.097,129.334,108.887z"/>
		</g>
	</g>
</g>
</svg>
