<?xml version="1.0" encoding="utf-8"?>
<!-- Generator: Adobe Illustrator 16.0.0, SVG Export Plug-In . SVG Version: 6.00 Build 0)  -->
<!DOCTYPE svg PUBLIC "-//W3C//DTD SVG 1.1//EN" "http://www.w3.org/Graphics/SVG/1.1/DTD/svg11.dtd">
<svg version="1.1" id="Layer_1" xmlns="http://www.w3.org/2000/svg" xmlns:xlink="http://www.w3.org/1999/xlink" x="0px" y="0px"
	 width="138.854px" height="33.463px" viewBox="0 0 138.854 33.463" enable-background="new 0 0 138.854 33.463"
	 xml:space="preserve">
<g id="RING_DESCRIPTIONS">
</g>
<g id="LABELS">
	<g opacity="0.85">
		<g>
			<path fill="#A4CE39" d="M138.85,30.25l-17.678-15.907h-14.277v4.322h12.62l16.443,14.799l2.895-3.211L138.85,30.25z
				 M2.161,30.562h104.732V2.162H2.161V30.562z M91.73,9.649h1.989l3.003,7.158V9.649h2.294v13.685h-1.914l-2.994-7.591v7.591H91.73
				V9.649z M82.277,14.239c0-3.232,1.332-4.848,3.996-4.848c2.67,0,4.005,1.616,4.005,4.848v4.527c0,0.547-0.041,1.054-0.122,1.517
				s-0.219,0.903-0.414,1.317c-0.194,0.416-0.443,0.77-0.744,1.061c-0.302,0.291-0.683,0.521-1.144,0.688
				c-0.461,0.168-0.988,0.252-1.581,0.252c-0.587,0-1.111-0.084-1.572-0.248s-0.841-0.388-1.14-0.668
				c-0.301-0.281-0.546-0.625-0.741-1.033s-0.334-0.842-0.418-1.304c-0.084-0.461-0.125-0.965-0.125-1.512V14.239z M78.061,9.657
				h2.766v13.677h-2.766V9.657z M72.65,17.589l-0.858-0.729c-0.273-0.229-0.492-0.418-0.654-0.57
				c-0.161-0.152-0.353-0.357-0.572-0.615c-0.221-0.258-0.394-0.508-0.518-0.749c-0.124-0.241-0.229-0.531-0.318-0.87
				c-0.089-0.339-0.134-0.699-0.134-1.079c0-1.109,0.353-1.987,1.057-2.633c0.704-0.646,1.639-0.969,2.805-0.969
				c0.967,0,1.79,0.345,2.469,1.033c0.68,0.688,1.02,1.52,1.02,2.493L76.936,13v0.228l-2.856,0.395c0-0.056,0.004-0.143,0.011-0.262
				c0.009-0.119,0.013-0.216,0.013-0.292c0-0.183-0.014-0.357-0.038-0.524c-0.025-0.167-0.067-0.334-0.125-0.501
				c-0.06-0.167-0.148-0.3-0.271-0.399c-0.121-0.099-0.269-0.148-0.439-0.148c-0.305,0-0.531,0.119-0.685,0.357
				c-0.151,0.238-0.229,0.52-0.229,0.843c0,0.284,0.045,0.55,0.134,0.798c0.088,0.249,0.223,0.48,0.402,0.695
				c0.18,0.215,0.346,0.394,0.498,0.536c0.15,0.142,0.354,0.315,0.606,0.521s0.435,0.356,0.54,0.452
				c0.39,0.345,0.719,0.667,0.987,0.969c0.269,0.301,0.521,0.642,0.76,1.022c0.238,0.38,0.417,0.789,0.536,1.23
				c0.119,0.44,0.179,0.917,0.179,1.428c0,0.958-0.343,1.742-1.025,2.353c-0.684,0.61-1.516,0.916-2.492,0.916
				c-0.633,0-1.195-0.117-1.688-0.351c-0.492-0.232-0.888-0.55-1.188-0.949c-0.302-0.4-0.533-0.845-0.695-1.33
				c-0.162-0.486-0.256-1.008-0.281-1.565l2.805-0.54c0,0.278,0.005,0.524,0.016,0.737c0.01,0.213,0.036,0.444,0.08,0.694
				c0.043,0.252,0.101,0.457,0.175,0.616c0.073,0.159,0.177,0.293,0.312,0.402c0.134,0.108,0.292,0.164,0.475,0.164
				c0.547,0,0.82-0.351,0.82-1.048C74.269,19.489,73.729,18.537,72.65,17.589z M61.533,9.657h3.009c0.685,0,1.285,0.063,1.806,0.194
				c0.519,0.129,0.974,0.332,1.362,0.608c0.392,0.276,0.688,0.648,0.891,1.117c0.201,0.469,0.304,1.03,0.304,1.683
				c0,0.284-0.01,0.537-0.03,0.76s-0.066,0.478-0.141,0.764s-0.174,0.54-0.3,0.76c-0.127,0.221-0.311,0.437-0.549,0.65
				c-0.236,0.213-0.519,0.39-0.843,0.532c0.82,2.604,1.534,4.808,2.144,6.611H66.32l-1.565-6.299h-0.456v6.299h-2.766V9.657z
				 M54.839,9.657h5.706v1.898h-2.939v3.724h2.082v1.945h-2.082v4.21h2.939v1.898h-5.706V9.657z M48.806,9.657l1.208,8.29
				l1.337-8.29h2.584L51.23,23.334H48.7L46.184,9.657H48.806z M41.124,9.657h2.446l2.948,13.677H43.79l-0.562-2.925h-1.785
				l-0.532,2.925h-2.743L41.124,9.657z M30.387,9.657h3.01c0.684,0,1.285,0.063,1.805,0.194c0.519,0.129,0.974,0.332,1.363,0.608
				c0.391,0.276,0.687,0.648,0.89,1.117c0.202,0.469,0.304,1.03,0.304,1.683c0,0.284-0.01,0.537-0.029,0.76
				c-0.021,0.223-0.067,0.478-0.142,0.764c-0.073,0.286-0.174,0.54-0.3,0.76c-0.127,0.221-0.31,0.437-0.548,0.65
				c-0.237,0.213-0.52,0.39-0.843,0.532c0.819,2.604,1.534,4.808,2.143,6.611h-2.864l-1.564-6.299h-0.456v6.299h-2.766V9.657H30.387
				z M22.728,9.657h6.739v2.067h-1.969v11.61h-2.766v-11.61h-2.006L22.728,9.657L22.728,9.657z M17.227,9.657l1.283,4.088
				l1.384-4.088h2.567l-2.212,6.558l2.183,7.12h-2.606l-1.308-4.521l-1.291,4.521h-2.614l2.211-7.074l-2.227-6.603L17.227,9.657
				L17.227,9.657z M8.557,9.657h5.705v1.898h-2.939v3.724h2.082v1.945h-2.082v4.21h2.939v1.898H8.557V9.657z M65.635,15.135
				c0.152-0.142,0.264-0.322,0.331-0.54c0.068-0.218,0.116-0.418,0.146-0.6c0.027-0.183,0.041-0.355,0.041-0.517
				c0-0.162-0.011-0.329-0.034-0.501c-0.021-0.172-0.062-0.363-0.121-0.574c-0.059-0.21-0.154-0.382-0.289-0.518
				c-0.134-0.134-0.298-0.201-0.49-0.201H64.3v3.663h0.79C65.302,15.348,65.484,15.277,65.635,15.135z M86.273,21.472
				c0.826,0,1.238-0.671,1.238-2.014v-5.912c0-1.347-0.412-2.021-1.238-2.021c-0.248,0-0.458,0.062-0.63,0.186
				c-0.174,0.125-0.301,0.294-0.382,0.509c-0.08,0.215-0.138,0.428-0.171,0.638c-0.031,0.21-0.049,0.439-0.049,0.688v5.912
				C85.043,20.801,85.453,21.472,86.273,21.472z M42.354,13.631l-0.723,5.076h1.413L42.354,13.631z M34.49,15.135
				c0.152-0.142,0.263-0.322,0.331-0.54c0.068-0.218,0.116-0.418,0.145-0.6c0.027-0.183,0.041-0.355,0.041-0.517
				c0-0.162-0.011-0.329-0.033-0.501c-0.022-0.172-0.063-0.363-0.121-0.574c-0.06-0.21-0.154-0.382-0.289-0.518
				c-0.135-0.134-0.298-0.201-0.49-0.201h-0.919v3.663h0.79C34.156,15.348,34.339,15.277,34.49,15.135z"/>
		</g>
	</g>
</g>
</svg>
