<?xml version="1.0" encoding="utf-8"?>
<!-- Generator: Adobe Illustrator 16.0.0, SVG Export Plug-In . SVG Version: 6.00 Build 0)  -->
<!DOCTYPE svg PUBLIC "-//W3C//DTD SVG 1.1//EN" "http://www.w3.org/Graphics/SVG/1.1/DTD/svg11.dtd">
<svg version="1.1" id="Layer_1" xmlns="http://www.w3.org/2000/svg" xmlns:xlink="http://www.w3.org/1999/xlink" x="0px" y="0px"
	 width="123.834px" height="122.066px" viewBox="0 0 123.834 122.066" enable-background="new 0 0 123.834 122.066"
	 xml:space="preserve">
<g id="RING_DESCRIPTIONS">
</g>
<g id="LABELS">
	<g opacity="0.85">
		<g>
			<path fill="#7F993C" d="M76.799,14.837H62.894V2.162H2.161v28.398h60.732V19.161h11.102l45.891,102.905l3.948-1.758
				L76.799,14.837z M14.06,11.476h-2.94v3.724h2.082v1.944H11.12v6.109H8.354V9.577h5.706V11.476z M20.563,11.476h-2.94v3.724h2.082
				v1.944h-2.082v4.21h2.94v1.899h-5.706V9.577h5.706V11.476z M27.258,11.476h-2.94v3.724H26.4v1.944h-2.082v4.21h2.94v1.899h-5.706
				V9.577h5.706V11.476z M33.731,23.254h-5.485V9.577h2.766v11.777h2.72L33.731,23.254L33.731,23.254z M37.38,23.254h-2.766V9.577
				h2.766V23.254z M46.292,23.254h-1.914l-2.994-7.591v7.591h-2.378V9.57h1.99l3.002,7.157V9.57h2.294V23.254z M55.806,23.254
				h-1.899l-0.35-0.958c-0.233,0.365-0.564,0.66-0.995,0.885c-0.431,0.227-0.874,0.338-1.33,0.338c-0.491,0-0.938-0.09-1.341-0.27
				s-0.734-0.418-0.996-0.714c-0.261-0.296-0.479-0.646-0.657-1.044c-0.177-0.4-0.304-0.811-0.38-1.229
				c-0.075-0.417-0.113-0.847-0.113-1.288v-4.816c0-3.232,1.345-4.849,4.034-4.849c0.566,0,1.073,0.075,1.517,0.225
				c0.442,0.148,0.813,0.355,1.112,0.619c0.299,0.264,0.545,0.588,0.737,0.973s0.332,0.803,0.418,1.254s0.129,0.947,0.129,1.489
				v0.806h-2.644v-0.958c0-0.238-0.007-0.447-0.02-0.627c-0.013-0.18-0.044-0.38-0.095-0.6c-0.051-0.222-0.119-0.401-0.205-0.543
				c-0.086-0.143-0.21-0.262-0.372-0.357s-0.355-0.145-0.578-0.145c-0.846,0-1.269,0.674-1.269,2.021v5.904
				c0,1.342,0.423,2.014,1.269,2.014c0.841,0,1.262-0.697,1.262-2.09V18.2h-1.565v-1.983h4.331V23.254z"/>
		</g>
	</g>
</g>
</svg>
