<?xml version="1.0" encoding="utf-8"?>
<!-- Generator: Adobe Illustrator 16.0.0, SVG Export Plug-In . SVG Version: 6.00 Build 0)  -->
<!DOCTYPE svg PUBLIC "-//W3C//DTD SVG 1.1//EN" "http://www.w3.org/Graphics/SVG/1.1/DTD/svg11.dtd">
<svg version="1.1" id="Layer_1" xmlns="http://www.w3.org/2000/svg" xmlns:xlink="http://www.w3.org/1999/xlink" x="0px" y="0px"
	 width="130.773px" height="81.156px" viewBox="0 0 130.773 81.156" enable-background="new 0 0 130.773 81.156"
	 xml:space="preserve">
<g id="RING_DESCRIPTIONS">
</g>
<g id="LABELS">
	<g>
		<g>
			<path fill="#205680" d="M92.701-50.959L92.701-50.959v-0.002V-50.959z"/>
		</g>
	</g>
	<g opacity="0.85">
		<g>
			<path fill="#512567" d="M24.127,52.757v11.922h-7.522L4.245,0L0,0.812l13.029,68.189h11.098v12.152h106.646V52.757H24.127z
				 M37.188,62.134h-2.94v3.723h2.082v1.945h-2.082v6.109h-2.766V60.233h5.707L37.188,62.134L37.188,62.134z M40.751,73.912h-2.766
				V60.233h2.766V73.912z M48.084,62.134h-2.939v3.723h2.082v1.945h-2.082v4.209h2.939v1.9h-5.707V60.233h5.707V62.134z
				 M54.558,73.912h-5.486V60.233h2.766v11.778h2.721V73.912z M62.833,69.146c0,0.486-0.015,0.911-0.046,1.273
				c-0.03,0.361-0.087,0.717-0.171,1.062s-0.197,0.641-0.342,0.883c-0.146,0.239-0.331,0.465-0.56,0.672
				c-0.228,0.207-0.503,0.371-0.823,0.494c-0.322,0.12-0.699,0.215-1.133,0.28c-0.433,0.065-0.931,0.099-1.492,0.099h-2.827V60.233
				h2.856c0.912,0,1.663,0.083,2.253,0.247c0.591,0.165,1.055,0.436,1.392,0.812s0.569,0.83,0.699,1.356
				c0.129,0.526,0.193,1.198,0.193,2.015V69.146z M73.828,73.912h-2.037l-0.061-9.621c-0.152,0.988-0.418,2.592-0.798,4.812
				c-0.381,2.22-0.646,3.821-0.799,4.81h-2.066l-1.679-9.681l-0.062,9.681h-2.044V60.233h3.313l1.459,9.118l1.572-9.118h3.199
				L73.828,73.912L73.828,73.912z M80.332,73.912l-0.562-2.927h-1.786l-0.532,2.927h-2.743l2.956-13.679h2.447l2.948,13.679H80.332z
				 M88.729,73.912l-1.565-6.299h-0.456v6.299h-2.766V60.233h3.009c0.684,0,1.285,0.065,1.805,0.194s0.975,0.332,1.364,0.607
				s0.688,0.647,0.889,1.116c0.202,0.47,0.305,1.029,0.305,1.685c0,0.283-0.011,0.535-0.03,0.76
				c-0.021,0.223-0.067,0.479-0.141,0.764c-0.074,0.286-0.175,0.539-0.301,0.76s-0.309,0.438-0.547,0.649
				c-0.237,0.213-0.52,0.39-0.844,0.532c0.821,2.604,1.535,4.807,2.143,6.609h-2.864V73.912z M98.34,73.276
				c-0.684,0.61-1.515,0.916-2.491,0.916c-0.634,0-1.195-0.116-1.688-0.351c-0.491-0.232-0.888-0.549-1.188-0.949
				c-0.302-0.398-0.533-0.844-0.695-1.329s-0.256-1.008-0.281-1.565l2.804-0.539c0,0.279,0.006,0.523,0.016,0.736
				s0.037,0.444,0.08,0.695s0.102,0.455,0.175,0.615s0.177,0.293,0.312,0.402c0.135,0.108,0.292,0.164,0.476,0.164
				c0.547,0,0.819-0.352,0.819-1.05c0-0.957-0.54-1.909-1.617-2.856L94.2,67.437c-0.273-0.229-0.491-0.418-0.653-0.57
				s-0.354-0.357-0.573-0.615c-0.221-0.258-0.394-0.508-0.518-0.748c-0.125-0.24-0.229-0.53-0.319-0.869
				c-0.088-0.34-0.133-0.699-0.133-1.079c0-1.108,0.353-1.987,1.057-2.634c0.704-0.646,1.639-0.969,2.804-0.969
				c0.968,0,1.791,0.344,2.47,1.033c0.68,0.688,1.019,1.52,1.019,2.492l-0.008,0.1v0.228l-2.858,0.396
				c0-0.057,0.004-0.144,0.012-0.263c0.007-0.119,0.011-0.218,0.011-0.293c0-0.183-0.013-0.356-0.038-0.524
				c-0.024-0.166-0.066-0.334-0.125-0.5c-0.058-0.168-0.147-0.302-0.27-0.4c-0.122-0.098-0.269-0.146-0.441-0.146
				c-0.304,0-0.531,0.118-0.684,0.356c-0.152,0.237-0.228,0.521-0.228,0.844c0,0.283,0.044,0.55,0.133,0.798
				s0.223,0.479,0.402,0.695c0.181,0.215,0.347,0.395,0.498,0.535c0.152,0.143,0.354,0.314,0.608,0.521
				c0.254,0.205,0.433,0.355,0.54,0.451c0.39,0.346,0.719,0.668,0.988,0.969c0.269,0.303,0.521,0.643,0.76,1.022
				s0.417,0.79,0.536,1.229c0.119,0.441,0.178,0.918,0.178,1.43C99.366,71.882,99.024,72.666,98.34,73.276z M107.999,73.912h-2.781
				V67.81h-1.982v6.102h-2.767V60.233h2.767v5.608h1.982v-5.608h2.781V73.912z M114.503,73.912l-0.562-2.927h-1.786l-0.532,2.927
				h-2.743l2.956-13.679h2.447l2.948,13.679H114.503z M123.598,73.912h-5.486V60.233h2.766v11.778h2.721V73.912z M112.344,69.283
				h1.414l-0.69-5.074L112.344,69.283z M59.664,62.408c-0.269-0.148-0.719-0.224-1.353-0.23v9.796c0.264,0,0.471-0.005,0.624-0.013
				c0.151-0.008,0.304-0.025,0.456-0.057c0.151-0.031,0.264-0.072,0.334-0.126c0.07-0.053,0.137-0.13,0.197-0.231
				c0.062-0.102,0.101-0.221,0.118-0.359c0.019-0.141,0.026-0.312,0.026-0.521v-7.363C60.066,62.853,59.932,62.554,59.664,62.408z
				 M78.174,69.283h1.414l-0.69-5.074L78.174,69.283z M88.406,62.98c-0.059-0.21-0.155-0.382-0.289-0.518
				c-0.134-0.133-0.297-0.201-0.49-0.201h-0.919v3.662h0.79c0.213,0,0.396-0.069,0.547-0.213c0.152-0.142,0.263-0.32,0.331-0.539
				c0.069-0.217,0.117-0.418,0.146-0.6c0.027-0.183,0.042-0.355,0.042-0.518c0-0.163-0.013-0.329-0.034-0.502
				C88.504,63.382,88.464,63.19,88.406,62.98z"/>
		</g>
	</g>
</g>
</svg>
