<?xml version="1.0" encoding="utf-8"?>
<!-- Generator: Adobe Illustrator 16.0.0, SVG Export Plug-In . SVG Version: 6.00 Build 0)  -->
<!DOCTYPE svg PUBLIC "-//W3C//DTD SVG 1.1//EN" "http://www.w3.org/Graphics/SVG/1.1/DTD/svg11.dtd">
<svg version="1.1" id="Layer_1" xmlns="http://www.w3.org/2000/svg" xmlns:xlink="http://www.w3.org/1999/xlink" x="0px" y="0px"
	 width="273.257px" height="72.378px" viewBox="0 0 273.257 72.378" enable-background="new 0 0 273.257 72.378"
	 xml:space="preserve">
<g id="RING_DESCRIPTIONS">
</g>
<g id="LABELS">
	<g>
		<g>
			<path fill="#B75C27" d="M271.083,0l-96.697,56.164h-8.739V43.979H0v28.397h165.648V60.488l9.898-0.002l97.709-56.749L271.083,0z
				 M15.382,65.191h-1.899l-0.35-0.957c-0.233,0.364-0.565,0.659-0.996,0.885c-0.431,0.227-0.874,0.338-1.33,0.338
				c-0.491,0-0.938-0.09-1.341-0.27c-0.402-0.18-0.734-0.418-0.995-0.714c-0.261-0.298-0.479-0.646-0.657-1.046
				c-0.178-0.399-0.304-0.809-0.38-1.227c-0.076-0.418-0.114-0.848-0.114-1.289v-4.816c0-3.23,1.345-4.848,4.035-4.848
				c0.567,0,1.072,0.074,1.516,0.225c0.444,0.15,0.814,0.355,1.113,0.619c0.299,0.263,0.544,0.588,0.737,0.973
				c0.193,0.385,0.332,0.803,0.418,1.254c0.086,0.45,0.129,0.947,0.129,1.489v0.806h-2.645v-0.957c0-0.238-0.006-0.447-0.019-0.628
				c-0.013-0.18-0.044-0.38-0.095-0.601c-0.051-0.221-0.119-0.401-0.205-0.543c-0.086-0.143-0.21-0.262-0.373-0.357
				c-0.162-0.096-0.354-0.145-0.577-0.145c-0.846,0-1.269,0.674-1.269,2.021v5.904c0,1.343,0.423,2.015,1.269,2.015
				c0.841,0,1.261-0.697,1.261-2.091v-1.095H11.05v-1.982h4.331L15.382,65.191L15.382,65.191z M24.82,60.108
				c0,0.437-0.013,0.83-0.038,1.185c-0.025,0.355-0.074,0.724-0.146,1.104c-0.071,0.38-0.167,0.715-0.289,1.007
				c-0.122,0.291-0.284,0.569-0.486,0.835c-0.203,0.268-0.442,0.485-0.718,0.658c-0.276,0.172-0.609,0.309-0.999,0.41
				s-0.828,0.15-1.314,0.15c-0.486,0-0.925-0.051-1.315-0.15c-0.39-0.102-0.722-0.238-0.995-0.41
				c-0.273-0.173-0.512-0.393-0.714-0.658c-0.203-0.266-0.365-0.544-0.486-0.835c-0.122-0.292-0.219-0.627-0.292-1.007
				c-0.074-0.38-0.123-0.747-0.148-1.104c-0.025-0.354-0.038-0.748-0.038-1.185v-8.595h2.766v8.511c0,0.485,0.002,0.841,0.008,1.06
				c0.005,0.222,0.018,0.49,0.038,0.807s0.056,0.537,0.105,0.665c0.051,0.127,0.121,0.264,0.209,0.409
				c0.089,0.148,0.204,0.244,0.346,0.289c0.142,0.047,0.314,0.068,0.517,0.068c0.202,0,0.375-0.021,0.517-0.068
				c0.142-0.045,0.257-0.141,0.346-0.285c0.088-0.145,0.158-0.278,0.209-0.405c0.05-0.127,0.086-0.347,0.105-0.657
				c0.021-0.312,0.033-0.574,0.038-0.789c0.005-0.217,0.008-0.564,0.008-1.045v-8.558h2.766v8.594H24.82z M31.104,65.191
				l-0.562-2.926h-1.786l-0.532,2.926h-2.743l2.956-13.678h2.447l2.948,13.678H31.104z M39.5,65.191l-1.565-6.299h-0.456v6.299
				h-2.766V51.514h3.009c0.684,0,1.285,0.065,1.805,0.194c0.519,0.129,0.974,0.332,1.364,0.606c0.39,0.276,0.687,0.647,0.889,1.117
				c0.202,0.469,0.304,1.028,0.304,1.685c0,0.282-0.01,0.535-0.03,0.76c-0.021,0.223-0.066,0.478-0.141,0.764
				c-0.074,0.285-0.174,0.539-0.3,0.76s-0.31,0.438-0.547,0.648c-0.238,0.213-0.52,0.391-0.844,0.533
				c0.821,2.604,1.535,4.807,2.143,6.609H39.5z M50.632,60.427c0,0.486-0.015,0.91-0.046,1.273c-0.03,0.361-0.087,0.717-0.171,1.062
				s-0.197,0.641-0.342,0.882c-0.146,0.239-0.331,0.465-0.559,0.672c-0.228,0.208-0.503,0.372-0.824,0.494
				c-0.322,0.121-0.699,0.215-1.132,0.28c-0.433,0.066-0.931,0.1-1.493,0.1h-2.827V51.514h2.856c0.912,0,1.663,0.083,2.253,0.247
				c0.59,0.164,1.054,0.436,1.391,0.812c0.337,0.377,0.57,0.829,0.699,1.356c0.129,0.526,0.194,1.198,0.194,2.014V60.427z
				 M54.85,65.191h-2.766V51.514h2.766V65.191z M61.354,65.191l-0.562-2.926h-1.786l-0.532,2.926H55.73l2.956-13.678h2.447
				l2.948,13.678H61.354z M72.25,65.191h-1.915L67.341,57.6v7.591h-2.378V51.507h1.991l3.001,7.156v-7.156h2.295V65.191z
				 M78.23,65.191h-1.36l4.384-13.943h1.368L78.23,65.191z M92.394,65.191h-5.486V51.514h2.766v11.778h2.72V65.191z M101.102,60.625
				c0,0.547-0.041,1.053-0.122,1.517s-0.219,0.903-0.414,1.317c-0.195,0.416-0.443,0.77-0.745,1.061
				c-0.302,0.292-0.684,0.521-1.145,0.688c-0.461,0.168-0.988,0.25-1.581,0.25c-0.588,0-1.112-0.082-1.573-0.246
				s-0.841-0.387-1.14-0.668c-0.299-0.281-0.546-0.627-0.741-1.033c-0.195-0.408-0.334-0.844-0.418-1.305S93.1,61.24,93.1,60.693
				v-4.598c0-3.23,1.333-4.848,3.997-4.848c2.669,0,4.004,1.615,4.004,4.848L101.102,60.625L101.102,60.625z M110.44,65.191h-1.899
				l-0.35-0.957c-0.233,0.364-0.565,0.659-0.996,0.885c-0.431,0.227-0.874,0.338-1.33,0.338c-0.491,0-0.938-0.09-1.341-0.27
				c-0.402-0.18-0.734-0.418-0.995-0.714c-0.261-0.298-0.48-0.646-0.657-1.046c-0.178-0.399-0.304-0.809-0.38-1.227
				c-0.076-0.418-0.114-0.848-0.114-1.289v-4.816c0-3.23,1.345-4.848,4.035-4.848c0.567,0,1.072,0.074,1.516,0.225
				c0.444,0.15,0.814,0.355,1.113,0.619c0.299,0.263,0.544,0.588,0.737,0.973c0.193,0.385,0.332,0.803,0.418,1.254
				c0.086,0.45,0.129,0.947,0.129,1.489v0.806h-2.645v-0.957c0-0.238-0.006-0.447-0.019-0.628c-0.013-0.18-0.044-0.38-0.095-0.601
				c-0.051-0.221-0.119-0.401-0.205-0.543c-0.086-0.143-0.21-0.262-0.373-0.357c-0.162-0.096-0.354-0.145-0.577-0.145
				c-0.846,0-1.269,0.674-1.269,2.021v5.904c0,1.343,0.423,2.015,1.269,2.015c0.841,0,1.261-0.697,1.261-2.091v-1.095h-1.565v-1.982
				h4.331L110.44,65.191L110.44,65.191z M114.726,65.191h-2.766V51.514h2.766V65.191z M122.225,64.557
				c-0.684,0.61-1.515,0.916-2.492,0.916c-0.633,0-1.195-0.116-1.687-0.351c-0.491-0.232-0.888-0.549-1.189-0.949
				c-0.301-0.399-0.533-0.844-0.695-1.33c-0.162-0.485-0.256-1.008-0.281-1.564l2.804-0.539c0,0.278,0.005,0.523,0.015,0.736
				c0.01,0.213,0.037,0.443,0.08,0.695c0.043,0.25,0.102,0.455,0.175,0.615c0.073,0.16,0.177,0.293,0.312,0.402
				c0.134,0.107,0.292,0.163,0.475,0.163c0.547,0,0.82-0.351,0.82-1.05c0-0.957-0.54-1.908-1.618-2.855l-0.859-0.729
				c-0.273-0.229-0.491-0.418-0.653-0.57c-0.162-0.152-0.354-0.357-0.574-0.615c-0.22-0.259-0.393-0.508-0.517-0.748
				c-0.125-0.24-0.23-0.531-0.319-0.869c-0.088-0.34-0.133-0.699-0.133-1.08c0-1.108,0.352-1.986,1.056-2.633
				c0.704-0.646,1.639-0.97,2.804-0.97c0.968,0,1.791,0.345,2.47,1.034c0.679,0.688,1.019,1.52,1.019,2.492l-0.007,0.099v0.228
				l-2.857,0.396c0-0.057,0.004-0.143,0.012-0.262c0.007-0.119,0.011-0.217,0.011-0.293c0-0.184-0.013-0.357-0.038-0.524
				s-0.067-0.334-0.125-0.501c-0.058-0.168-0.148-0.301-0.27-0.398s-0.269-0.148-0.441-0.148c-0.304,0-0.532,0.119-0.684,0.357
				c-0.152,0.238-0.228,0.52-0.228,0.844c0,0.283,0.044,0.55,0.133,0.798s0.223,0.479,0.403,0.694
				c0.18,0.216,0.346,0.395,0.498,0.535c0.152,0.144,0.354,0.315,0.608,0.521s0.433,0.355,0.54,0.452
				c0.39,0.345,0.719,0.668,0.988,0.969c0.269,0.302,0.521,0.644,0.76,1.022c0.238,0.379,0.417,0.789,0.536,1.229
				s0.178,0.917,0.178,1.429C123.251,63.162,122.909,63.947,122.225,64.557z M130.386,53.582h-1.968v11.609h-2.766V53.582h-2.006
				v-2.067h6.74V53.582z M134.072,65.191h-2.766V51.514h2.766V65.191z M143.328,56.985h-2.721v-1.262
				c0-0.248-0.005-0.462-0.016-0.642c-0.01-0.182-0.037-0.387-0.08-0.617c-0.043-0.229-0.102-0.418-0.174-0.562
				c-0.074-0.144-0.184-0.267-0.328-0.368c-0.143-0.102-0.317-0.152-0.52-0.152c-0.801,0-1.201,0.675-1.201,2.021v5.904
				c0,1.343,0.4,2.014,1.201,2.014c0.237,0,0.438-0.068,0.6-0.205c0.164-0.137,0.279-0.33,0.351-0.58
				c0.071-0.252,0.119-0.498,0.144-0.738c0.025-0.239,0.039-0.516,0.039-0.823v-1.406h2.705v1.155
				c-0.011,0.521-0.054,1.003-0.129,1.443c-0.076,0.439-0.207,0.869-0.389,1.283c-0.184,0.416-0.414,0.768-0.695,1.053
				c-0.281,0.287-0.645,0.518-1.09,0.691s-0.958,0.262-1.535,0.262c-0.592,0-1.117-0.084-1.576-0.254s-0.835-0.396-1.132-0.685
				c-0.296-0.286-0.541-0.638-0.733-1.056c-0.192-0.418-0.328-0.857-0.407-1.318c-0.079-0.461-0.118-0.969-0.118-1.52v-4.529
				c0-3.23,1.322-4.848,3.967-4.848c0.557,0,1.053,0.074,1.485,0.225s0.796,0.355,1.09,0.619c0.293,0.263,0.536,0.588,0.726,0.973
				c0.19,0.385,0.328,0.803,0.41,1.254c0.084,0.45,0.125,0.947,0.125,1.489v1.178H143.328z M149.498,65.191l-0.562-2.926h-1.786
				l-0.532,2.926h-2.742l2.955-13.678h2.447l2.948,13.678H149.498z M158.591,65.191h-5.485V51.514h2.767v11.778h2.719V65.191z
				 M28.946,60.563h1.414l-0.691-5.075L28.946,60.563z M97.097,53.382c-0.249,0-0.458,0.062-0.631,0.188
				c-0.173,0.125-0.299,0.295-0.38,0.51s-0.138,0.428-0.171,0.639c-0.033,0.209-0.049,0.439-0.049,0.688v5.912
				c0,1.342,0.41,2.014,1.231,2.014c0.826,0,1.238-0.672,1.238-2.014v-5.912C98.335,54.057,97.923,53.382,97.097,53.382z
				 M147.337,60.563h1.414l-0.69-5.075L147.337,60.563z M39.177,54.261c-0.059-0.211-0.155-0.383-0.289-0.518
				c-0.134-0.134-0.297-0.201-0.49-0.201h-0.919v3.662h0.79c0.213,0,0.395-0.07,0.547-0.213c0.152-0.142,0.262-0.32,0.331-0.539
				c0.069-0.218,0.117-0.418,0.145-0.601s0.042-0.354,0.042-0.517c0-0.164-0.012-0.33-0.034-0.502
				C39.276,54.662,39.235,54.47,39.177,54.261z M59.195,60.563h1.414l-0.691-5.075L59.195,60.563z M47.463,53.688
				c-0.269-0.147-0.719-0.224-1.353-0.229v9.795c0.264,0,0.471-0.004,0.624-0.012c0.152-0.008,0.304-0.025,0.456-0.057
				s0.264-0.072,0.334-0.126c0.071-0.054,0.137-0.13,0.198-0.231s0.1-0.222,0.118-0.359c0.018-0.141,0.026-0.312,0.026-0.521v-7.363
				C47.866,54.132,47.732,53.833,47.463,53.688z"/>
		</g>
	</g>
</g>
</svg>
