<?xml version="1.0" encoding="utf-8"?>
<!-- Generator: Adobe Illustrator 16.0.0, SVG Export Plug-In . SVG Version: 6.00 Build 0)  -->
<!DOCTYPE svg PUBLIC "-//W3C//DTD SVG 1.1//EN" "http://www.w3.org/Graphics/SVG/1.1/DTD/svg11.dtd">
<svg version="1.1" id="Layer_1" xmlns="http://www.w3.org/2000/svg" xmlns:xlink="http://www.w3.org/1999/xlink" x="0px" y="0px"
	 width="188.674px" height="156.829px" viewBox="0 0 188.674 156.829" enable-background="new 0 0 188.674 156.829"
	 xml:space="preserve">
<g id="RING_DESCRIPTIONS">
</g>
<g id="LABELS">
	<g opacity="0.85">
		<g>
			<path fill="#0097BF" d="M79.775,0v12.284h-17.91L0,155.109l3.967,1.72L64.703,16.606h15.072v12.042h108.899V0H79.775z
				 M89.936,21.361H87.17V7.684h2.766V21.361z M98.849,21.361h-1.914L93.94,13.77v7.591h-2.378V7.676h1.991l3.001,7.158V7.676h2.295
				V21.361z M106.508,9.751h-1.968v11.61h-2.766V9.751h-2.006V7.684h6.739V9.751z M112.215,21.361l-1.565-6.299h-0.455v6.299h-2.767
				V7.684h3.009c0.685,0,1.285,0.064,1.806,0.194c0.519,0.129,0.974,0.332,1.364,0.608c0.39,0.275,0.687,0.647,0.889,1.117
				s0.304,1.03,0.304,1.683c0,0.284-0.01,0.537-0.03,0.76c-0.021,0.223-0.066,0.478-0.141,0.764c-0.074,0.286-0.174,0.54-0.3,0.76
				c-0.126,0.221-0.31,0.437-0.547,0.649c-0.238,0.213-0.521,0.391-0.845,0.532c0.821,2.604,1.535,4.808,2.144,6.611h-2.865V21.361z
				 M123.78,16.794c0,0.547-0.041,1.053-0.122,1.516c-0.081,0.463-0.22,0.903-0.414,1.318c-0.195,0.416-0.443,0.769-0.745,1.06
				s-0.684,0.521-1.145,0.688s-0.987,0.251-1.58,0.251c-0.588,0-1.112-0.083-1.573-0.247s-0.841-0.388-1.14-0.669
				c-0.3-0.281-0.547-0.625-0.742-1.033c-0.194-0.408-0.334-0.842-0.418-1.303s-0.125-0.965-0.125-1.512v-4.597
				c0-3.232,1.334-4.848,3.998-4.848c2.668,0,4.004,1.616,4.004,4.848v4.528H123.78z M131.104,20.727
				c-0.685,0.61-1.516,0.916-2.492,0.916c-0.633,0-1.195-0.117-1.688-0.35c-0.49-0.233-0.888-0.55-1.189-0.95
				c-0.301-0.399-0.532-0.844-0.694-1.33c-0.162-0.485-0.256-1.008-0.281-1.564l2.804-0.54c0,0.278,0.006,0.523,0.016,0.737
				c0.01,0.213,0.037,0.445,0.08,0.695c0.043,0.251,0.102,0.456,0.175,0.616c0.073,0.159,0.177,0.293,0.312,0.402
				s0.293,0.164,0.476,0.164c0.547,0,0.819-0.35,0.819-1.048c0-0.958-0.539-1.91-1.617-2.856l-0.859-0.729
				c-0.273-0.228-0.49-0.418-0.652-0.569c-0.162-0.152-0.354-0.357-0.574-0.615c-0.221-0.258-0.394-0.508-0.518-0.749
				c-0.125-0.241-0.229-0.531-0.318-0.87c-0.088-0.339-0.133-0.699-0.133-1.079c0-1.109,0.352-1.987,1.056-2.633
				s1.639-0.969,2.804-0.969c0.969,0,1.791,0.345,2.471,1.033c0.678,0.689,1.018,1.52,1.018,2.493l-0.008,0.1v0.228l-2.856,0.395
				c0-0.056,0.004-0.143,0.013-0.262c0.006-0.119,0.01-0.216,0.01-0.292c0-0.182-0.013-0.356-0.037-0.523
				c-0.025-0.167-0.067-0.334-0.125-0.501c-0.059-0.167-0.148-0.3-0.271-0.399c-0.122-0.099-0.269-0.148-0.44-0.148
				c-0.305,0-0.532,0.119-0.685,0.357c-0.151,0.238-0.228,0.521-0.228,0.843c0,0.284,0.044,0.55,0.133,0.798
				c0.089,0.249,0.223,0.48,0.402,0.695c0.181,0.215,0.347,0.395,0.498,0.536c0.152,0.142,0.354,0.315,0.608,0.521
				c0.253,0.206,0.433,0.356,0.54,0.452c0.391,0.345,0.719,0.667,0.988,0.969c0.269,0.301,0.521,0.642,0.76,1.021
				s0.417,0.79,0.536,1.231c0.119,0.439,0.178,0.917,0.178,1.428C132.13,19.333,131.789,20.117,131.104,20.727z M139.771,13.17
				c-0.119,0.456-0.285,0.832-0.498,1.128s-0.485,0.535-0.82,0.714c-0.335,0.179-0.697,0.308-1.086,0.38
				c-0.391,0.074-0.842,0.113-1.354,0.118v5.852h-2.781V7.684h3.307c1.189,0,2.056,0.332,2.599,0.995
				c0.542,0.664,0.813,1.624,0.813,2.88C139.95,12.177,139.89,12.714,139.771,13.17z M146.705,9.583h-2.94v3.723h2.082v1.945h-2.082
				v4.21h2.94v1.899h-5.707V7.684h5.707V9.583z M155.321,13.155h-2.721v-1.261c0-0.248-0.005-0.462-0.015-0.642
				s-0.037-0.385-0.08-0.615c-0.043-0.229-0.102-0.418-0.175-0.562c-0.074-0.146-0.184-0.267-0.327-0.369
				c-0.144-0.101-0.317-0.152-0.521-0.152c-0.801,0-1.2,0.674-1.2,2.021v5.904c0,1.342,0.399,2.014,1.2,2.014
				c0.237,0,0.438-0.068,0.601-0.205c0.163-0.137,0.278-0.331,0.351-0.582c0.07-0.25,0.118-0.496,0.144-0.737
				c0.024-0.241,0.038-0.516,0.038-0.825v-1.406h2.705v1.155c-0.01,0.521-0.053,1.003-0.129,1.443
				c-0.076,0.441-0.207,0.869-0.389,1.284c-0.183,0.416-0.414,0.767-0.695,1.053c-0.28,0.286-0.645,0.517-1.09,0.691
				c-0.444,0.174-0.957,0.262-1.535,0.262c-0.592,0-1.117-0.085-1.576-0.255c-0.458-0.169-0.835-0.397-1.133-0.684
				c-0.297-0.287-0.541-0.638-0.732-1.056s-0.328-0.857-0.407-1.318s-0.118-0.968-0.118-1.52v-4.528
				c0-3.231,1.322-4.848,3.967-4.848c0.558,0,1.053,0.075,1.485,0.224s0.796,0.356,1.091,0.619c0.293,0.264,0.535,0.588,0.726,0.973
				s0.327,0.803,0.409,1.254c0.085,0.451,0.125,0.947,0.125,1.489v1.179H155.321z M162.646,9.751h-1.968v11.61h-2.766V9.751h-2.006
				V7.684h6.739V9.751z M166.332,21.361h-2.767V7.684h2.767V21.361z M172.281,21.361h-2.53l-2.516-13.677h2.623l1.207,8.29
				l1.338-8.29h2.582L172.281,21.361z M181.597,9.583h-2.939v3.723h2.082v1.945h-2.082v4.21h2.939v1.899h-5.707V7.684h5.707V9.583z
				 M137.298,10.67c-0.015-0.157-0.04-0.275-0.072-0.354c-0.033-0.079-0.08-0.168-0.145-0.27c-0.062-0.101-0.141-0.174-0.23-0.22
				c-0.092-0.045-0.207-0.086-0.347-0.122c-0.139-0.035-0.3-0.053-0.481-0.053v3.906c0.146,0,0.276-0.009,0.392-0.025
				c0.114-0.019,0.214-0.038,0.3-0.062c0.086-0.022,0.162-0.063,0.229-0.125c0.065-0.061,0.121-0.114,0.164-0.16
				c0.043-0.045,0.08-0.12,0.109-0.224c0.03-0.104,0.053-0.188,0.068-0.254c0.015-0.066,0.025-0.172,0.033-0.319
				c0.008-0.146,0.012-0.265,0.012-0.354v-0.528c0-0.197-0.001-0.347-0.004-0.448S137.313,10.827,137.298,10.67z M119.774,9.553
				c-0.248,0-0.457,0.062-0.631,0.187c-0.172,0.125-0.299,0.294-0.379,0.509c-0.082,0.215-0.139,0.428-0.172,0.638
				s-0.049,0.439-0.049,0.688v5.912c0,1.343,0.41,2.014,1.23,2.014c0.826,0,1.238-0.671,1.238-2.014v-5.912
				C121.015,10.227,120.601,9.553,119.774,9.553z M111.892,10.431c-0.059-0.21-0.154-0.382-0.289-0.517
				c-0.134-0.135-0.297-0.201-0.489-0.201h-0.919v3.663h0.789c0.214,0,0.396-0.071,0.548-0.213c0.151-0.142,0.262-0.322,0.331-0.54
				c0.068-0.218,0.117-0.418,0.145-0.6c0.028-0.183,0.042-0.355,0.042-0.517s-0.012-0.329-0.034-0.501
				C111.991,10.833,111.95,10.641,111.892,10.431z"/>
		</g>
	</g>
	<g>
		<g>
			<path fill="#286C9A" d="M58.185,152.424l-0.001-0.002l0,0L58.185,152.424z"/>
		</g>
	</g>
</g>
</svg>
