<?xml version="1.0" encoding="utf-8"?>
<!-- Generator: Adobe Illustrator 16.0.0, SVG Export Plug-In . SVG Version: 6.00 Build 0)  -->
<!DOCTYPE svg PUBLIC "-//W3C//DTD SVG 1.1//EN" "http://www.w3.org/Graphics/SVG/1.1/DTD/svg11.dtd">
<svg version="1.1" id="Layer_1" xmlns="http://www.w3.org/2000/svg" xmlns:xlink="http://www.w3.org/1999/xlink" x="0px" y="0px"
	 width="96.812px" height="36.518px" viewBox="0 0 96.812 36.518" enable-background="new 0 0 96.812 36.518" xml:space="preserve">
<g id="RING_DESCRIPTIONS">
</g>
<g id="LABELS">
	<g opacity="0.85">
		<g>
			<path fill="#69388D" d="M92.897,0.002L92.895,0L84.26,18.456h-7.195V5.954H2.161v28.401h74.903V22.781l9.943-0.002l9.804-20.946
				L92.897,0.002z M12.249,27.243H9.483V13.565h2.766V27.243z M21.162,27.243h-1.915l-2.994-7.591v7.591h-2.378V13.559h1.991
				l3.001,7.156v-7.156h2.295V27.243z M27.112,27.243h-2.53l-2.515-13.678h2.622l1.208,8.29l1.337-8.29h2.583L27.112,27.243z
				 M36.427,15.466h-2.939v3.724h2.082v1.944h-2.082v4.21h2.939v1.899h-5.707V13.565h5.707V15.466z M44.702,27.243h-1.915
				l-2.994-7.591v7.591h-2.378V13.559h1.991l3.001,7.156v-7.156h2.295V27.243z M52.361,15.633h-1.968v11.61h-2.767v-11.61h-2.006
				v-2.066h6.74V15.633z M60.97,22.677c0,0.548-0.04,1.053-0.121,1.517s-0.22,0.902-0.414,1.317
				c-0.195,0.415-0.443,0.77-0.745,1.061c-0.303,0.292-0.684,0.521-1.145,0.688s-0.987,0.25-1.581,0.25
				c-0.588,0-1.111-0.082-1.572-0.247c-0.461-0.164-0.842-0.387-1.141-0.668c-0.299-0.28-0.546-0.626-0.741-1.032
				c-0.194-0.408-0.334-0.844-0.418-1.305s-0.125-0.965-0.125-1.512v-4.598c0-3.231,1.333-4.849,3.997-4.849
				c2.669,0,4.004,1.616,4.004,4.849v4.529H60.97z M67.209,27.243l-1.564-6.299h-0.456v6.299h-2.767V13.565h3.01
				c0.684,0,1.284,0.064,1.805,0.193c0.519,0.129,0.974,0.332,1.364,0.607c0.39,0.276,0.687,0.647,0.889,1.117
				c0.202,0.469,0.304,1.028,0.304,1.684c0,0.283-0.01,0.536-0.03,0.76s-0.066,0.479-0.141,0.765s-0.174,0.539-0.3,0.76
				c-0.126,0.22-0.31,0.437-0.547,0.649c-0.238,0.213-0.521,0.39-0.844,0.531c0.82,2.604,1.534,4.808,2.143,6.61L67.209,27.243
				L67.209,27.243z M56.966,15.435c-0.249,0-0.458,0.062-0.631,0.187s-0.299,0.294-0.38,0.509c-0.081,0.216-0.138,0.43-0.171,0.64
				s-0.049,0.438-0.049,0.688v5.912c0,1.342,0.41,2.014,1.23,2.014c0.826,0,1.238-0.672,1.238-2.014v-5.912
				C58.205,16.108,57.792,15.435,56.966,15.435z M66.885,16.312c-0.059-0.21-0.154-0.383-0.288-0.518
				c-0.135-0.134-0.298-0.201-0.49-0.201h-0.919v3.662h0.79c0.213,0,0.395-0.069,0.547-0.213c0.151-0.142,0.262-0.321,0.331-0.539
				c0.068-0.218,0.117-0.418,0.145-0.601c0.028-0.183,0.042-0.354,0.042-0.518s-0.012-0.329-0.034-0.501
				C66.985,16.714,66.944,16.522,66.885,16.312z"/>
		</g>
	</g>
</g>
</svg>
