<?xml version="1.0" encoding="utf-8"?>
<!-- Generator: Adobe Illustrator 16.0.0, SVG Export Plug-In . SVG Version: 6.00 Build 0)  -->
<!DOCTYPE svg PUBLIC "-//W3C//DTD SVG 1.1//EN" "http://www.w3.org/Graphics/SVG/1.1/DTD/svg11.dtd">
<svg version="1.1" id="Layer_1" xmlns="http://www.w3.org/2000/svg" xmlns:xlink="http://www.w3.org/1999/xlink" x="0px" y="0px"
	 width="158.156px" height="62.123px" viewBox="0 0 158.156 62.123" enable-background="new 0 0 158.156 62.123"
	 xml:space="preserve">
<g id="RING_DESCRIPTIONS">
</g>
<g id="LABELS">
	<g>
		<g>
			<path fill="#205680" d="M0,3.157L0,3.157V3.155V3.157z M113.08,41.877c-0.06-0.21-0.156-0.382-0.289-0.517
				c-0.135-0.135-0.297-0.201-0.49-0.201h-0.92v3.662h0.791c0.213,0,0.395-0.07,0.547-0.213s0.262-0.321,0.33-0.539
				c0.07-0.219,0.117-0.418,0.146-0.602c0.028-0.182,0.042-0.354,0.042-0.517s-0.012-0.329-0.033-0.501
				C113.177,42.278,113.136,42.087,113.08,41.877z M81.199,48.181h1.414l-0.691-5.076L81.199,48.181z M59.924,31.728v11.854
				L49.483,43.58L2.955,0L0.001,3.156l47.772,44.747h12.151v12.059h96.07V31.728H59.924z M76.853,52.808h-2.037l-0.061-9.619
				c-0.152,0.987-0.418,2.592-0.798,4.811s-0.646,3.82-0.798,4.811h-2.067l-1.679-9.682l-0.061,9.682h-2.044V39.13h3.313
				l1.459,9.118l1.573-9.118h3.199L76.853,52.808L76.853,52.808z M83.357,52.808l-0.562-2.926h-1.785l-0.532,2.926h-2.743
				L80.69,39.13h2.446l2.949,13.678H83.357z M92.839,52.173c-0.684,0.61-1.516,0.916-2.492,0.916c-0.633,0-1.195-0.115-1.688-0.35
				c-0.49-0.233-0.888-0.551-1.189-0.95c-0.301-0.399-0.532-0.843-0.694-1.329c-0.161-0.486-0.256-1.008-0.28-1.564l2.803-0.541
				c0,0.279,0.006,0.524,0.016,0.737c0.01,0.214,0.037,0.444,0.08,0.695s0.102,0.456,0.175,0.614
				c0.073,0.16,0.177,0.295,0.312,0.404c0.135,0.107,0.293,0.162,0.476,0.162c0.547,0,0.819-0.35,0.819-1.049
				c0-0.957-0.539-1.909-1.617-2.855l-0.859-0.729c-0.273-0.229-0.49-0.418-0.652-0.569c-0.162-0.152-0.354-0.357-0.574-0.615
				c-0.221-0.26-0.393-0.508-0.518-0.75c-0.125-0.239-0.229-0.529-0.318-0.868c-0.088-0.341-0.133-0.699-0.133-1.079
				c0-1.109,0.352-1.987,1.056-2.633c0.704-0.646,1.64-0.971,2.804-0.971c0.969,0,1.791,0.346,2.471,1.034
				c0.678,0.688,1.018,1.521,1.018,2.492l-0.008,0.099v0.229l-2.856,0.396c0-0.057,0.005-0.144,0.013-0.263
				c0.006-0.119,0.01-0.217,0.01-0.293c0-0.183-0.012-0.356-0.037-0.524c-0.025-0.166-0.066-0.334-0.125-0.5
				c-0.059-0.168-0.148-0.302-0.27-0.399c-0.123-0.099-0.27-0.148-0.441-0.148c-0.305,0-0.532,0.119-0.684,0.357
				c-0.152,0.237-0.229,0.521-0.229,0.844c0,0.283,0.044,0.55,0.133,0.798c0.09,0.248,0.223,0.479,0.402,0.695
				c0.181,0.215,0.347,0.395,0.498,0.535c0.152,0.143,0.355,0.314,0.609,0.521s0.432,0.356,0.539,0.452
				c0.391,0.346,0.719,0.668,0.988,0.969c0.27,0.303,0.521,0.644,0.76,1.022c0.238,0.38,0.418,0.79,0.536,1.229
				c0.119,0.441,0.179,0.918,0.179,1.43C93.865,50.778,93.523,51.562,92.839,52.173z M101,41.197h-1.967v11.61h-2.767v-11.61h-2.007
				V39.13H101V41.197z M107.626,41.03h-2.94v3.723h2.082v1.945h-2.082v4.21h2.94v1.899h-5.707V39.13h5.707V41.03z M113.401,52.808
				l-1.565-6.299h-0.455v6.299h-2.766V39.13h3.008c0.685,0,1.285,0.065,1.805,0.194s0.975,0.332,1.365,0.606
				c0.39,0.276,0.687,0.648,0.889,1.117c0.201,0.469,0.304,1.029,0.304,1.684c0,0.283-0.01,0.537-0.03,0.761
				c-0.021,0.223-0.066,0.478-0.141,0.764s-0.174,0.539-0.3,0.761c-0.126,0.219-0.31,0.437-0.548,0.648
				c-0.237,0.213-0.52,0.391-0.844,0.532c0.821,2.604,1.535,4.807,2.144,6.61H113.401L113.401,52.808z M126.684,52.808h-2.037
				l-0.062-9.619c-0.151,0.987-0.418,2.592-0.797,4.811c-0.381,2.219-0.646,3.82-0.799,4.811h-2.066l-1.68-9.682l-0.061,9.682
				h-2.044V39.13h3.313l1.459,9.118l1.572-9.118h3.199L126.684,52.808L126.684,52.808z M131.076,52.808h-2.766V39.13h2.766V52.808z
				 M139.99,52.808h-1.916l-2.994-7.591v7.591h-2.377V39.123h1.99l3.001,7.157v-7.157h2.296V52.808z M149.007,48.043
				c0,0.486-0.014,0.911-0.045,1.272c-0.03,0.362-0.088,0.718-0.172,1.063c-0.084,0.347-0.197,0.642-0.342,0.882
				s-0.33,0.465-0.559,0.672c-0.229,0.209-0.504,0.373-0.824,0.494c-0.322,0.121-0.699,0.215-1.132,0.281
				c-0.433,0.064-0.931,0.1-1.493,0.1h-2.826V39.13h2.855c0.912,0,1.664,0.083,2.254,0.247c0.59,0.165,1.054,0.437,1.391,0.813
				c0.338,0.377,0.57,0.828,0.699,1.355c0.129,0.526,0.193,1.198,0.193,2.014V48.043z M145.839,41.304
				c-0.27-0.146-0.719-0.223-1.354-0.229v9.795c0.264,0,0.471-0.004,0.624-0.012c0.151-0.008,0.304-0.026,0.456-0.058
				c0.152-0.03,0.264-0.071,0.334-0.126c0.07-0.053,0.137-0.13,0.198-0.23c0.062-0.103,0.101-0.223,0.118-0.36
				c0.018-0.14,0.025-0.313,0.025-0.521V42.2C146.242,41.749,146.108,41.45,145.839,41.304z"/>
		</g>
	</g>
</g>
</svg>
