<?xml version="1.0" encoding="utf-8"?>
<!-- Generator: Adobe Illustrator 16.0.0, SVG Export Plug-In . SVG Version: 6.00 Build 0)  -->
<!DOCTYPE svg PUBLIC "-//W3C//DTD SVG 1.1//EN" "http://www.w3.org/Graphics/SVG/1.1/DTD/svg11.dtd">
<svg version="1.1" id="Layer_1" xmlns="http://www.w3.org/2000/svg" xmlns:xlink="http://www.w3.org/1999/xlink" x="0px" y="0px"
	 width="247.895px" height="153.079px" viewBox="0 0 247.895 153.079" enable-background="new 0 0 247.895 153.079"
	 xml:space="preserve">
<g id="RING_DESCRIPTIONS">
</g>
<g id="LABELS">
	<g opacity="0.85">
		<g>
			<path fill="#F19E1F" d="M244.981,0.002V0L96.998,134.823h-7.95v-12.216H2.161v28.312h86.887v-11.771l9.622-0.001L247.894,3.197
				L244.981,0.002z M18,139.151c0,0.547-0.041,1.053-0.122,1.516c-0.081,0.465-0.219,0.904-0.414,1.318
				c-0.194,0.415-0.442,0.77-0.745,1.061c-0.302,0.291-0.683,0.521-1.144,0.688s-0.988,0.25-1.581,0.25
				c-0.588,0-1.112-0.082-1.573-0.247c-0.461-0.163-0.841-0.387-1.14-0.668c-0.299-0.28-0.546-0.626-0.741-1.032
				c-0.195-0.408-0.334-0.844-0.418-1.305s-0.125-0.965-0.125-1.512v-4.598c0-3.231,1.333-4.849,3.997-4.849
				c2.669,0,4.004,1.616,4.004,4.849v4.529H18z M25.842,142.729c-0.658,0.658-1.664,0.988-3.017,0.988h-3.374V130.04h2.819
				c0.506,0,0.954,0.027,1.341,0.08c0.388,0.055,0.768,0.157,1.14,0.312c0.373,0.154,0.68,0.361,0.919,0.619
				c0.241,0.259,0.434,0.6,0.578,1.021c0.146,0.422,0.217,0.924,0.217,1.5c0,0.715-0.168,1.277-0.505,1.688
				c-0.337,0.412-0.859,0.734-1.568,0.974c1.626,0.396,2.438,1.546,2.438,3.449C26.83,141.056,26.5,142.071,25.842,142.729z
				 M33.987,143.083c-0.685,0.61-1.515,0.916-2.492,0.916c-0.633,0-1.195-0.115-1.687-0.35c-0.491-0.232-0.889-0.55-1.189-0.949
				c-0.301-0.4-0.533-0.844-0.695-1.33s-0.256-1.008-0.28-1.564l2.804-0.54c0,0.278,0.005,0.524,0.015,0.737
				c0.011,0.213,0.037,0.443,0.08,0.695c0.043,0.25,0.103,0.455,0.175,0.614c0.073,0.16,0.178,0.294,0.312,0.403
				c0.134,0.107,0.292,0.162,0.475,0.162c0.547,0,0.82-0.35,0.82-1.049c0-0.957-0.54-1.908-1.618-2.855l-0.858-0.729
				c-0.273-0.229-0.491-0.418-0.653-0.57s-0.354-0.357-0.574-0.615c-0.22-0.26-0.393-0.508-0.517-0.749
				c-0.125-0.24-0.23-0.53-0.319-0.869c-0.088-0.34-0.133-0.698-0.133-1.079c0-1.109,0.352-1.986,1.056-2.633
				s1.639-0.971,2.804-0.971c0.969,0,1.791,0.346,2.471,1.035c0.679,0.688,1.018,1.52,1.018,2.492l-0.007,0.098v0.229l-2.857,0.396
				c0-0.057,0.005-0.143,0.013-0.262c0.007-0.119,0.011-0.217,0.011-0.293c0-0.184-0.013-0.357-0.038-0.525
				c-0.025-0.166-0.067-0.334-0.125-0.5c-0.058-0.168-0.147-0.301-0.27-0.398c-0.122-0.099-0.27-0.148-0.441-0.148
				c-0.304,0-0.532,0.119-0.684,0.357c-0.152,0.237-0.229,0.52-0.229,0.844c0,0.283,0.044,0.549,0.133,0.797
				s0.224,0.479,0.403,0.695c0.18,0.215,0.346,0.395,0.498,0.535c0.152,0.143,0.354,0.314,0.608,0.521
				c0.254,0.205,0.433,0.355,0.539,0.451c0.391,0.346,0.72,0.668,0.988,0.969c0.27,0.303,0.522,0.644,0.76,1.023
				c0.238,0.379,0.417,0.789,0.536,1.229c0.119,0.441,0.179,0.918,0.179,1.43C35.012,141.688,34.671,142.473,33.987,143.083z
				 M41.821,131.94h-2.94v3.723h2.082v1.945h-2.082v4.21h2.94v1.899h-5.707V130.04h5.707V131.94z M47.595,143.717l-1.564-6.299
				h-0.456v6.299h-2.766V130.04h3.009c0.684,0,1.285,0.065,1.805,0.194c0.52,0.13,0.975,0.332,1.364,0.606
				c0.39,0.277,0.687,0.648,0.889,1.117s0.305,1.029,0.305,1.685c0,0.282-0.011,0.536-0.03,0.76
				c-0.021,0.224-0.067,0.478-0.142,0.765c-0.073,0.285-0.174,0.539-0.3,0.76c-0.126,0.22-0.309,0.438-0.547,0.648
				c-0.238,0.213-0.52,0.391-0.844,0.532c0.821,2.604,1.535,4.808,2.143,6.61H47.595L47.595,143.717z M53.128,143.717l-2.515-13.678
				h2.622l1.208,8.291l1.337-8.291h2.583l-2.705,13.678H53.128z M63.477,143.717l-0.562-2.926h-1.786l-0.531,2.926h-2.743
				l2.956-13.678h2.446l2.948,13.678H63.477z M74.374,143.717h-1.915l-2.994-7.59v7.59h-2.378v-13.684h1.991l3.001,7.156v-7.156
				h2.295V143.717z M82.033,132.107h-1.968v11.61h-2.767v-11.61h-2.006v-2.067h6.74V132.107z M13.996,131.909
				c-0.249,0-0.458,0.062-0.631,0.188s-0.299,0.294-0.38,0.509c-0.081,0.216-0.138,0.429-0.171,0.64
				c-0.033,0.209-0.049,0.438-0.049,0.688v5.912c0,1.342,0.409,2.014,1.23,2.014c0.826,0,1.238-0.672,1.238-2.014v-5.912
				C15.234,132.583,14.821,131.909,13.996,131.909z M23.312,135.275c0.172-0.097,0.302-0.235,0.391-0.421
				c0.088-0.186,0.151-0.385,0.187-0.598s0.053-0.463,0.053-0.752c0-0.229-0.018-0.428-0.049-0.601
				c-0.033-0.173-0.07-0.315-0.11-0.43c-0.04-0.115-0.109-0.21-0.205-0.289c-0.096-0.078-0.181-0.138-0.254-0.175
				c-0.074-0.037-0.185-0.065-0.334-0.084c-0.149-0.018-0.271-0.027-0.361-0.029c-0.091-0.003-0.232-0.004-0.426-0.004v3.525h0.471
				C22.926,135.42,23.139,135.372,23.312,135.275z M22.491,137.236h-0.273v4.528h0.259c0.358,0,0.65-0.041,0.874-0.125
				c0.223-0.084,0.393-0.227,0.509-0.43s0.193-0.433,0.231-0.688s0.058-0.599,0.058-1.028c0-0.716-0.125-1.271-0.376-1.664
				C23.52,137.434,23.093,137.236,22.491,137.236z M61.319,139.09h1.414l-0.691-5.075L61.319,139.09z M47.273,132.788
				c-0.06-0.211-0.155-0.383-0.289-0.518s-0.297-0.201-0.49-0.201h-0.919v3.662h0.79c0.213,0,0.395-0.07,0.547-0.213
				s0.262-0.32,0.331-0.539s0.117-0.418,0.145-0.602c0.028-0.182,0.043-0.354,0.043-0.517s-0.013-0.329-0.034-0.501
				C47.372,133.188,47.332,132.997,47.273,132.788z"/>
		</g>
	</g>
</g>
</svg>
