<?xml version="1.0" encoding="utf-8"?>
<!-- Generator: Adobe Illustrator 16.0.0, SVG Export Plug-In . SVG Version: 6.00 Build 0)  -->
<!DOCTYPE svg PUBLIC "-//W3C//DTD SVG 1.1//EN" "http://www.w3.org/Graphics/SVG/1.1/DTD/svg11.dtd">
<svg version="1.1" id="Layer_1" xmlns="http://www.w3.org/2000/svg" xmlns:xlink="http://www.w3.org/1999/xlink" x="0px" y="0px"
	 width="145.372px" height="215.396px" viewBox="0 0 145.372 215.396" enable-background="new 0 0 145.372 215.396"
	 xml:space="preserve">
<g id="RING_DESCRIPTIONS">
</g>
<g id="LABELS">
	<g opacity="0.85">
		<g>
			<path fill="#444D22" d="M145.37,214.519l-41.56-200.28H88.894V2.162H2.161V30.56h86.732V18.562h11.398l40.844,196.834
				l4.236-0.877H145.37z M14.882,15.136c-0.119,0.456-0.285,0.832-0.498,1.128c-0.212,0.297-0.486,0.535-0.82,0.715
				c-0.334,0.179-0.696,0.307-1.087,0.38c-0.39,0.074-0.841,0.112-1.353,0.118v5.851h-2.78V9.651h3.305
				c1.19,0,2.057,0.332,2.599,0.995c0.542,0.664,0.813,1.624,0.813,2.88C15.061,14.144,15.001,14.68,14.882,15.136z M21.815,11.55
				h-2.94v3.724h2.082v1.944h-2.082v4.21h2.94v1.899h-5.706V9.651h5.706V11.55z M27.591,23.328l-1.565-6.299H25.57v6.299h-2.766
				V9.651h3.009c0.684,0,1.285,0.063,1.805,0.193c0.519,0.13,0.974,0.332,1.363,0.608c0.391,0.276,0.687,0.648,0.89,1.117
				c0.202,0.469,0.304,1.03,0.304,1.683c0,0.284-0.01,0.537-0.03,0.76c-0.021,0.224-0.067,0.479-0.141,0.765
				c-0.074,0.286-0.174,0.54-0.3,0.76c-0.127,0.221-0.31,0.438-0.548,0.65c-0.237,0.213-0.52,0.39-0.843,0.531
				c0.82,2.604,1.534,4.809,2.143,6.611h-2.865V23.328z M38.958,15.122h-2.721V13.86c0-0.248-0.005-0.462-0.017-0.643
				c-0.01-0.18-0.036-0.385-0.079-0.614c-0.043-0.23-0.102-0.418-0.175-0.562c-0.073-0.144-0.183-0.267-0.327-0.369
				c-0.145-0.101-0.317-0.151-0.521-0.151c-0.8,0-1.2,0.674-1.2,2.021v5.904c0,1.342,0.4,2.014,1.2,2.014
				c0.238,0,0.438-0.067,0.601-0.205c0.163-0.137,0.278-0.331,0.35-0.582c0.07-0.25,0.119-0.496,0.145-0.736
				c0.026-0.241,0.038-0.517,0.038-0.825v-1.406h2.705v1.155c-0.011,0.521-0.054,1.003-0.13,1.442
				c-0.075,0.441-0.205,0.869-0.388,1.284c-0.182,0.416-0.414,0.768-0.694,1.053c-0.281,0.286-0.646,0.518-1.091,0.691
				c-0.446,0.175-0.957,0.262-1.535,0.262c-0.593,0-1.118-0.085-1.576-0.255c-0.459-0.169-0.836-0.396-1.133-0.684
				c-0.296-0.286-0.54-0.639-0.733-1.057c-0.192-0.418-0.327-0.856-0.406-1.317c-0.078-0.461-0.117-0.968-0.117-1.521v-4.527
				c0-3.232,1.321-4.849,3.966-4.849c0.558,0,1.053,0.075,1.485,0.225c0.434,0.148,0.797,0.355,1.091,0.619
				c0.294,0.264,0.536,0.588,0.726,0.973c0.19,0.385,0.327,0.803,0.41,1.254c0.084,0.451,0.126,0.947,0.126,1.489L38.958,15.122
				L38.958,15.122z M45.956,11.55h-2.94v3.724h2.082v1.944h-2.082v4.21h2.94v1.899H40.25V9.651h5.706V11.55z M53.482,15.136
				c-0.119,0.456-0.285,0.832-0.498,1.128c-0.212,0.297-0.486,0.535-0.82,0.715c-0.334,0.179-0.696,0.307-1.087,0.38
				c-0.39,0.074-0.841,0.112-1.353,0.118v5.851h-2.78V9.651h3.305c1.19,0,2.057,0.332,2.599,0.995
				c0.542,0.664,0.813,1.624,0.813,2.88C53.661,14.144,53.602,14.68,53.482,15.136z M60.743,11.718h-1.969v11.61h-2.766v-11.61
				h-2.006V9.651h6.74L60.743,11.718L60.743,11.718z M64.429,23.328h-2.766V9.651h2.766V23.328z M73.881,18.76
				c0,0.548-0.041,1.054-0.123,1.517c-0.08,0.463-0.219,0.902-0.414,1.317c-0.193,0.416-0.442,0.77-0.743,1.061
				c-0.302,0.291-0.683,0.521-1.144,0.688s-0.988,0.251-1.581,0.251c-0.587,0-1.111-0.083-1.572-0.247
				c-0.461-0.163-0.841-0.388-1.14-0.669c-0.3-0.28-0.546-0.625-0.741-1.032c-0.195-0.408-0.334-0.843-0.418-1.304
				s-0.125-0.965-0.125-1.512v-4.597c0-3.232,1.332-4.849,3.996-4.849c2.67,0,4.005,1.616,4.005,4.849V18.76z M82.618,23.328h-1.914
				l-2.994-7.591v7.591h-2.377V9.643h1.99l3.002,7.157V9.643h2.293V23.328z M12.408,12.636c-0.015-0.156-0.039-0.274-0.072-0.354
				c-0.032-0.079-0.081-0.168-0.144-0.271c-0.063-0.101-0.141-0.174-0.232-0.22c-0.091-0.045-0.206-0.086-0.346-0.122
				c-0.139-0.035-0.3-0.053-0.482-0.053v3.906c0.147,0,0.277-0.01,0.392-0.026c0.114-0.018,0.214-0.038,0.3-0.061
				c0.086-0.023,0.162-0.064,0.229-0.125c0.065-0.062,0.12-0.114,0.163-0.16c0.043-0.045,0.08-0.12,0.11-0.225
				c0.03-0.104,0.053-0.188,0.068-0.254c0.015-0.065,0.026-0.172,0.034-0.318c0.008-0.147,0.011-0.266,0.011-0.354v-0.528
				c0-0.196-0.001-0.347-0.003-0.447C12.433,12.923,12.424,12.794,12.408,12.636z M27.268,12.397
				c-0.059-0.21-0.154-0.383-0.289-0.518c-0.134-0.134-0.298-0.201-0.49-0.201H25.57v3.663h0.79c0.213,0,0.396-0.07,0.547-0.213
				c0.152-0.142,0.263-0.322,0.331-0.54c0.068-0.218,0.116-0.418,0.145-0.6c0.027-0.184,0.041-0.355,0.041-0.518
				c0-0.161-0.011-0.328-0.034-0.501C27.366,12.799,27.325,12.608,27.268,12.397z M51.009,12.636
				c-0.015-0.156-0.039-0.274-0.072-0.354c-0.032-0.079-0.081-0.168-0.144-0.271c-0.063-0.101-0.141-0.174-0.232-0.22
				c-0.091-0.045-0.206-0.086-0.346-0.122c-0.139-0.035-0.3-0.053-0.482-0.053v3.906c0.147,0,0.277-0.01,0.392-0.026
				c0.114-0.018,0.214-0.038,0.3-0.061c0.086-0.023,0.162-0.064,0.229-0.125c0.064-0.062,0.12-0.114,0.163-0.16
				c0.043-0.045,0.08-0.12,0.11-0.225c0.03-0.104,0.053-0.188,0.068-0.254c0.015-0.065,0.026-0.172,0.034-0.318
				c0.008-0.147,0.011-0.266,0.011-0.354v-0.528c0-0.196-0.001-0.347-0.003-0.447C51.033,12.923,51.024,12.794,51.009,12.636z
				 M69.876,11.52c-0.248,0-0.458,0.062-0.63,0.186c-0.173,0.125-0.3,0.294-0.381,0.509s-0.138,0.429-0.171,0.639
				c-0.032,0.21-0.049,0.438-0.049,0.688v5.912c0,1.343,0.41,2.014,1.23,2.014c0.826,0,1.239-0.671,1.239-2.014v-5.912
				C71.115,12.194,70.702,11.52,69.876,11.52z"/>
		</g>
	</g>
</g>
</svg>
