<?xml version="1.0" encoding="utf-8"?>
<!-- Generator: Adobe Illustrator 16.0.0, SVG Export Plug-In . SVG Version: 6.00 Build 0)  -->
<!DOCTYPE svg PUBLIC "-//W3C//DTD SVG 1.1//EN" "http://www.w3.org/Graphics/SVG/1.1/DTD/svg11.dtd">
<svg version="1.1" id="Layer_1" xmlns="http://www.w3.org/2000/svg" xmlns:xlink="http://www.w3.org/1999/xlink" x="0px" y="0px"
	 width="235.666px" height="88.957px" viewBox="0 0 235.666 88.957" enable-background="new 0 0 235.666 88.957"
	 xml:space="preserve">
<g id="RING_DESCRIPTIONS">
</g>
<g id="LABELS">
	<g opacity="0.85">
		<g>
			<path fill="#E68267" d="M3.967,88.957H3.965l0,0H3.967z M71.076,10.253c-0.059-0.21-0.154-0.382-0.289-0.517
				c-0.134-0.134-0.298-0.201-0.49-0.201h-0.919v3.663h0.79c0.213,0,0.396-0.071,0.547-0.213c0.152-0.143,0.263-0.322,0.331-0.54
				c0.068-0.218,0.116-0.418,0.145-0.601c0.027-0.183,0.041-0.354,0.041-0.517S71.221,11,71.197,10.827
				C71.175,10.655,71.134,10.464,71.076,10.253z M62.911,10.493c-0.015-0.157-0.039-0.275-0.072-0.354
				c-0.032-0.079-0.081-0.168-0.144-0.27c-0.063-0.101-0.141-0.174-0.232-0.22c-0.091-0.045-0.206-0.086-0.346-0.122
				c-0.139-0.035-0.3-0.053-0.482-0.053v3.906c0.147,0,0.277-0.009,0.392-0.026c0.114-0.018,0.214-0.038,0.3-0.061
				s0.162-0.064,0.229-0.125c0.065-0.061,0.12-0.114,0.163-0.16c0.043-0.045,0.08-0.12,0.11-0.224
				c0.03-0.104,0.053-0.188,0.068-0.254c0.015-0.066,0.026-0.172,0.034-0.319c0.008-0.147,0.011-0.265,0.011-0.354v-0.528
				c0-0.197-0.001-0.347-0.003-0.448C62.936,10.779,62.927,10.65,62.911,10.493z M190.662,10.253
				c-0.06-0.21-0.154-0.382-0.289-0.517c-0.134-0.134-0.298-0.201-0.49-0.201h-0.919v3.663h0.79c0.213,0,0.396-0.071,0.547-0.213
				c0.152-0.143,0.263-0.322,0.331-0.54c0.068-0.218,0.116-0.418,0.145-0.601c0.027-0.183,0.041-0.354,0.041-0.517
				s-0.01-0.329-0.033-0.501S190.72,10.464,190.662,10.253z M50.833,0v12.106h-18.29L0,87.238l3.965,1.717l31.414-72.527h15.454
				v11.957h184.833V0H50.833z M65.385,12.993c-0.119,0.456-0.285,0.832-0.498,1.128c-0.212,0.296-0.486,0.535-0.82,0.714
				s-0.696,0.307-1.087,0.38c-0.39,0.074-0.841,0.113-1.353,0.118v5.851h-2.78V7.507h3.305c1.19,0,2.057,0.332,2.599,0.995
				c0.542,0.664,0.813,1.624,0.813,2.88C65.563,12,65.504,12.537,65.385,12.993z M71.399,21.184l-1.565-6.299h-0.456v6.299h-2.766
				V7.507h3.009c0.684,0,1.285,0.064,1.805,0.194c0.519,0.129,0.974,0.332,1.363,0.608c0.391,0.276,0.687,0.648,0.89,1.117
				c0.202,0.469,0.304,1.03,0.304,1.683c0,0.284-0.01,0.537-0.03,0.76c-0.021,0.223-0.067,0.478-0.141,0.764s-0.174,0.54-0.3,0.76
				c-0.127,0.221-0.31,0.437-0.548,0.65c-0.237,0.213-0.519,0.39-0.843,0.532c0.82,2.604,1.534,4.808,2.143,6.611h-2.865V21.184z
				 M82.964,16.617c0,0.547-0.041,1.053-0.122,1.516s-0.219,0.903-0.414,1.318c-0.194,0.416-0.443,0.769-0.744,1.06
				c-0.302,0.291-0.683,0.521-1.144,0.688s-0.988,0.251-1.581,0.251c-0.587,0-1.111-0.083-1.572-0.247
				c-0.461-0.164-0.841-0.388-1.14-0.669c-0.3-0.281-0.546-0.625-0.741-1.033c-0.195-0.408-0.334-0.842-0.418-1.303
				s-0.125-0.965-0.125-1.512v-4.597c0-3.232,1.332-4.848,3.996-4.848c2.67,0,4.005,1.616,4.005,4.848V16.617z M89.21,21.184
				l-0.562-2.925h-1.785l-0.532,2.925h-2.743l2.956-13.677h2.446l2.948,13.677H89.21z M100.357,12.978h-2.721v-1.261
				c0-0.248-0.005-0.462-0.016-0.642c-0.01-0.18-0.036-0.385-0.079-0.615s-0.102-0.418-0.175-0.562
				c-0.073-0.144-0.183-0.267-0.327-0.369c-0.145-0.102-0.317-0.152-0.521-0.152c-0.8,0-1.2,0.674-1.2,2.021v5.904
				c0,1.342,0.4,2.014,1.2,2.014c0.238,0,0.438-0.068,0.601-0.205c0.163-0.137,0.278-0.331,0.35-0.582
				c0.07-0.25,0.119-0.496,0.146-0.737c0.026-0.241,0.038-0.516,0.038-0.825v-1.406h2.705v1.155
				c-0.011,0.521-0.054,1.003-0.13,1.443c-0.075,0.441-0.205,0.869-0.388,1.284c-0.182,0.416-0.414,0.767-0.694,1.053
				c-0.281,0.286-0.646,0.517-1.091,0.691c-0.446,0.175-0.957,0.262-1.535,0.262c-0.593,0-1.118-0.085-1.576-0.255
				c-0.459-0.169-0.836-0.397-1.133-0.685c-0.296-0.286-0.54-0.638-0.733-1.056c-0.192-0.418-0.327-0.857-0.406-1.318
				c-0.078-0.461-0.117-0.968-0.117-1.52v-4.528c0-3.232,1.321-4.848,3.966-4.848c0.558,0,1.053,0.075,1.485,0.224
				c0.434,0.149,0.797,0.356,1.091,0.619c0.294,0.264,0.536,0.588,0.727,0.973c0.189,0.385,0.327,0.803,0.41,1.254
				c0.084,0.451,0.126,0.947,0.126,1.489L100.357,12.978L100.357,12.978z M107.683,9.574h-1.969v11.61h-2.766V9.574h-2.006V7.507
				h6.74L107.683,9.574L107.683,9.574z M111.367,21.184h-2.766V7.507h2.766V21.184z M117.317,21.184h-2.53l-2.516-13.677h2.622
				l1.208,8.29l1.337-8.29h2.584L117.317,21.184z M126.633,9.406h-2.94v3.723h2.082v1.945h-2.082v4.21h2.94v1.899h-5.706V7.507
				h5.706V9.406z M131.976,21.184h-1.36L135,7.241h1.367L131.976,21.184z M146.358,9.406h-2.94v3.723h2.082v1.945h-2.082v4.21h2.94
				v1.899h-5.707V7.507h5.707V9.406z M154.633,21.184h-1.914l-2.993-7.591v7.591h-2.379V7.499h1.99l3.002,7.158V7.499h2.294V21.184z
				 M162.293,9.574h-1.969v11.61h-2.767V9.574h-2.006V7.507h6.74L162.293,9.574L162.293,9.574z M168.919,9.406h-2.939v3.723h2.082
				v1.945h-2.082v4.21h2.939v1.899h-5.706V7.507h5.706V9.406z M174.694,21.184l-1.565-6.299h-0.456v6.299h-2.766V7.507h3.009
				c0.685,0,1.285,0.064,1.805,0.194c0.52,0.129,0.974,0.332,1.363,0.608c0.392,0.276,0.687,0.648,0.89,1.117
				c0.202,0.469,0.305,1.03,0.305,1.683c0,0.284-0.01,0.537-0.03,0.76c-0.021,0.223-0.067,0.478-0.142,0.764
				c-0.073,0.286-0.174,0.54-0.299,0.76c-0.128,0.221-0.311,0.437-0.549,0.65c-0.236,0.213-0.519,0.39-0.843,0.532
				c0.819,2.604,1.534,4.808,2.144,6.611h-2.865V21.184z M184.971,12.993c-0.118,0.456-0.284,0.832-0.497,1.128
				s-0.486,0.535-0.82,0.714s-0.696,0.307-1.088,0.38c-0.39,0.074-0.84,0.113-1.353,0.118v5.851h-2.78V7.507h3.306
				c1.189,0,2.057,0.332,2.599,0.995c0.542,0.664,0.812,1.624,0.812,2.88C185.149,12,185.09,12.537,184.971,12.993z M190.985,21.184
				l-1.565-6.299h-0.456v6.299h-2.766V7.507h3.009c0.685,0,1.285,0.064,1.805,0.194c0.52,0.129,0.974,0.332,1.363,0.608
				c0.392,0.276,0.687,0.648,0.89,1.117c0.202,0.469,0.305,1.03,0.305,1.683c0,0.284-0.01,0.537-0.03,0.76
				c-0.021,0.223-0.067,0.478-0.142,0.764c-0.073,0.286-0.174,0.54-0.299,0.76c-0.128,0.221-0.311,0.437-0.549,0.65
				c-0.236,0.213-0.519,0.39-0.843,0.532c0.819,2.604,1.534,4.808,2.144,6.611h-2.865V21.184z M197.489,21.184h-2.766V7.507h2.766
				V21.184z M204.988,20.55c-0.685,0.61-1.515,0.916-2.492,0.916c-0.633,0-1.195-0.117-1.687-0.35
				c-0.492-0.233-0.889-0.55-1.189-0.95c-0.303-0.4-0.533-0.844-0.695-1.33c-0.162-0.486-0.256-1.008-0.281-1.565l2.805-0.54
				c0,0.278,0.005,0.524,0.016,0.737c0.01,0.213,0.036,0.445,0.08,0.695c0.043,0.251,0.102,0.456,0.175,0.616
				c0.073,0.159,0.177,0.293,0.312,0.401c0.134,0.109,0.292,0.164,0.475,0.164c0.547,0,0.82-0.35,0.82-1.048
				c0-0.958-0.539-1.91-1.618-2.857l-0.857-0.729c-0.274-0.228-0.492-0.418-0.654-0.57s-0.354-0.357-0.573-0.615
				c-0.22-0.258-0.394-0.508-0.517-0.749c-0.125-0.241-0.23-0.531-0.319-0.87s-0.133-0.699-0.133-1.079
				c0-1.109,0.352-1.987,1.056-2.633c0.704-0.646,1.639-0.969,2.805-0.969c0.967,0,1.791,0.345,2.469,1.033
				c0.68,0.689,1.02,1.521,1.02,2.493l-0.008,0.099v0.228l-2.855,0.395c0-0.056,0.004-0.143,0.01-0.262
				c0.009-0.119,0.013-0.216,0.013-0.292c0-0.182-0.013-0.357-0.038-0.524s-0.066-0.334-0.125-0.501s-0.148-0.3-0.271-0.399
				c-0.121-0.099-0.269-0.148-0.439-0.148c-0.305,0-0.531,0.119-0.684,0.357s-0.229,0.52-0.229,0.843
				c0,0.284,0.045,0.55,0.134,0.798c0.088,0.249,0.223,0.48,0.402,0.695s0.346,0.394,0.498,0.536
				c0.15,0.142,0.354,0.315,0.607,0.521c0.252,0.206,0.434,0.356,0.539,0.452c0.391,0.345,0.719,0.667,0.987,0.969
				c0.269,0.301,0.521,0.642,0.76,1.022c0.238,0.38,0.417,0.79,0.536,1.231c0.119,0.44,0.18,0.917,0.18,1.428
				C206.015,19.155,205.672,19.939,204.988,20.55z M209.883,21.184h-2.766V7.507h2.766V21.184z M218.795,21.184h-1.914l-2.994-7.591
				v7.591h-2.378V7.499h1.99l3.002,7.158V7.499h2.294V21.184z M228.31,21.184h-1.899l-0.351-0.958
				c-0.232,0.365-0.563,0.66-0.994,0.885c-0.432,0.226-0.875,0.338-1.33,0.338c-0.491,0-0.938-0.09-1.342-0.271
				c-0.402-0.18-0.733-0.418-0.996-0.714c-0.261-0.296-0.479-0.645-0.656-1.044c-0.178-0.4-0.305-0.81-0.381-1.228
				c-0.074-0.417-0.112-0.848-0.112-1.288v-4.817c0-3.232,1.345-4.848,4.034-4.848c0.566,0,1.072,0.075,1.517,0.224
				c0.442,0.149,0.813,0.356,1.112,0.619c0.299,0.264,0.545,0.588,0.736,0.973c0.192,0.385,0.332,0.803,0.418,1.254
				c0.086,0.451,0.129,0.947,0.129,1.489v0.806h-2.644v-0.958c0-0.238-0.007-0.447-0.02-0.627s-0.044-0.38-0.095-0.6
				c-0.052-0.221-0.119-0.401-0.205-0.543c-0.086-0.142-0.211-0.261-0.373-0.357c-0.161-0.096-0.354-0.145-0.577-0.145
				c-0.847,0-1.27,0.674-1.27,2.021V17.3c0,1.342,0.423,2.014,1.27,2.014c0.841,0,1.262-0.697,1.262-2.09V16.13h-1.565v-1.983h4.332
				V21.184z M78.959,9.376c-0.248,0-0.458,0.062-0.63,0.186c-0.173,0.125-0.3,0.294-0.381,0.509
				c-0.081,0.215-0.138,0.428-0.171,0.638c-0.032,0.21-0.049,0.439-0.049,0.688v5.912c0,1.343,0.41,2.014,1.23,2.014
				c0.826,0,1.239-0.671,1.239-2.014v-5.912C80.198,10.05,79.785,9.376,78.959,9.376z M182.497,10.493
				c-0.016-0.157-0.039-0.275-0.072-0.354c-0.031-0.079-0.081-0.168-0.144-0.27c-0.063-0.101-0.142-0.174-0.232-0.22
				c-0.091-0.045-0.206-0.086-0.346-0.122c-0.14-0.035-0.3-0.053-0.482-0.053v3.906c0.147,0,0.277-0.009,0.393-0.026
				c0.114-0.018,0.214-0.038,0.3-0.061s0.162-0.064,0.229-0.125c0.065-0.061,0.12-0.114,0.164-0.16
				c0.043-0.045,0.079-0.12,0.109-0.224c0.03-0.104,0.053-0.188,0.068-0.254c0.015-0.066,0.025-0.172,0.033-0.319
				s0.012-0.265,0.012-0.354v-0.528c0-0.197-0.002-0.347-0.004-0.448C182.521,10.779,182.513,10.65,182.497,10.493z M87.052,16.557
				h1.413l-0.691-5.076L87.052,16.557z M174.371,10.253c-0.06-0.21-0.154-0.382-0.289-0.517c-0.134-0.134-0.298-0.201-0.49-0.201
				h-0.919v3.663h0.79c0.213,0,0.396-0.071,0.547-0.213c0.152-0.143,0.263-0.322,0.331-0.54c0.068-0.218,0.116-0.418,0.145-0.601
				c0.027-0.183,0.041-0.354,0.041-0.517s-0.01-0.329-0.033-0.501S174.429,10.464,174.371,10.253z"/>
		</g>
	</g>
</g>
</svg>
