<?xml version="1.0" encoding="utf-8"?>
<!-- Generator: Adobe Illustrator 16.0.0, SVG Export Plug-In . SVG Version: 6.00 Build 0)  -->
<!DOCTYPE svg PUBLIC "-//W3C//DTD SVG 1.1//EN" "http://www.w3.org/Graphics/SVG/1.1/DTD/svg11.dtd">
<svg version="1.1" id="Layer_1" xmlns="http://www.w3.org/2000/svg" xmlns:xlink="http://www.w3.org/1999/xlink" x="0px" y="0px"
	 width="115.461px" height="83.045px" viewBox="0 0 115.461 83.045" enable-background="new 0 0 115.461 83.045"
	 xml:space="preserve">
<g id="RING_DESCRIPTIONS">
</g>
<g id="LABELS">
	<g opacity="0.85">
		<g>
			<path fill="#B1A133" d="M101.688,14.638H88.312V2.162H2.161v28.15h86.151V18.961l9.842-0.001l13.068,64.086l4.237-0.863
				L101.688,14.638z M16.092,15.228c-0.119,0.456-0.285,0.832-0.498,1.128c-0.213,0.296-0.486,0.535-0.821,0.714
				c-0.335,0.179-0.697,0.307-1.086,0.38c-0.39,0.074-0.841,0.113-1.353,0.118v5.851H9.553V9.742h3.306
				c1.19,0,2.056,0.332,2.599,0.995c0.542,0.664,0.813,1.624,0.813,2.88C16.271,14.235,16.211,14.772,16.092,15.228z M22.106,23.419
				l-1.565-6.299h-0.456v6.299h-2.766V9.742h3.009c0.684,0,1.285,0.063,1.805,0.194c0.519,0.129,0.974,0.332,1.364,0.608
				c0.39,0.276,0.687,0.648,0.889,1.117c0.202,0.469,0.304,1.03,0.304,1.683c0,0.284-0.01,0.537-0.03,0.76
				c-0.021,0.223-0.067,0.478-0.141,0.764c-0.074,0.286-0.174,0.54-0.3,0.76c-0.126,0.221-0.309,0.437-0.547,0.65
				c-0.238,0.213-0.52,0.39-0.844,0.532c0.821,2.604,1.535,4.808,2.143,6.611h-2.865V23.419z M33.671,18.852
				c0,0.547-0.041,1.053-0.122,1.516s-0.219,0.903-0.414,1.318c-0.195,0.416-0.443,0.769-0.745,1.06
				c-0.302,0.291-0.683,0.521-1.144,0.688s-0.988,0.251-1.581,0.251c-0.588,0-1.112-0.083-1.573-0.247s-0.841-0.388-1.14-0.669
				c-0.299-0.281-0.546-0.625-0.741-1.033c-0.195-0.408-0.334-0.842-0.418-1.303c-0.084-0.461-0.125-0.965-0.125-1.512v-4.597
				c0-3.232,1.333-4.848,3.997-4.848c2.669,0,4.004,1.616,4.004,4.848v4.528H33.671z M41.011,11.809h-1.968v11.61h-2.766v-11.61
				h-2.006V9.742h6.74V11.809z M47.637,11.641h-2.939v3.723h2.082v1.945h-2.082v4.21h2.939v1.899H41.93V9.742h5.707V11.641z
				 M56.254,15.212h-2.72v-1.261c0-0.248-0.005-0.462-0.015-0.642s-0.037-0.385-0.08-0.615c-0.043-0.23-0.102-0.418-0.175-0.562
				c-0.074-0.145-0.183-0.267-0.327-0.369c-0.144-0.101-0.318-0.151-0.521-0.151c-0.8,0-1.2,0.674-1.2,2.021v5.904
				c0,1.342,0.4,2.014,1.2,2.014c0.238,0,0.438-0.068,0.601-0.205c0.163-0.137,0.278-0.331,0.35-0.582
				c0.071-0.25,0.119-0.496,0.144-0.737c0.025-0.241,0.038-0.516,0.038-0.825v-1.406h2.705v1.155
				c-0.01,0.521-0.053,1.003-0.129,1.443c-0.076,0.441-0.206,0.869-0.388,1.284c-0.183,0.416-0.414,0.768-0.695,1.053
				c-0.281,0.286-0.645,0.517-1.09,0.691c-0.445,0.174-0.958,0.262-1.535,0.262c-0.592,0-1.118-0.085-1.577-0.255
				c-0.458-0.169-0.835-0.396-1.132-0.684s-0.541-0.638-0.733-1.056s-0.328-0.857-0.407-1.318c-0.079-0.461-0.118-0.968-0.118-1.52
				v-4.528c0-3.232,1.322-4.848,3.966-4.848c0.558,0,1.053,0.075,1.486,0.224c0.433,0.148,0.796,0.355,1.09,0.619
				c0.293,0.264,0.536,0.588,0.726,0.973c0.19,0.385,0.327,0.803,0.41,1.254c0.084,0.451,0.125,0.947,0.125,1.489L56.254,15.212
				L56.254,15.212z M63.579,11.809h-1.968v11.61h-2.767v-11.61h-2.006V9.742h6.74V11.809z M72.188,18.852
				c0,0.547-0.041,1.053-0.121,1.516c-0.082,0.463-0.219,0.903-0.414,1.318c-0.195,0.416-0.443,0.769-0.745,1.06
				s-0.683,0.521-1.145,0.688c-0.461,0.167-0.987,0.251-1.581,0.251c-0.588,0-1.111-0.083-1.572-0.247s-0.842-0.388-1.141-0.669
				s-0.546-0.625-0.74-1.033c-0.195-0.408-0.334-0.842-0.418-1.303c-0.084-0.461-0.125-0.965-0.125-1.512v-4.597
				c0-3.232,1.332-4.848,3.996-4.848c2.67,0,4.004,1.616,4.004,4.848v4.528H72.188z M78.426,23.419l-1.564-6.299h-0.456v6.299
				h-2.767V9.742h3.01c0.684,0,1.285,0.063,1.805,0.194c0.52,0.129,0.974,0.332,1.363,0.608c0.391,0.276,0.688,0.648,0.89,1.117
				c0.202,0.469,0.304,1.03,0.304,1.683c0,0.284-0.01,0.537-0.029,0.76c-0.021,0.223-0.067,0.478-0.142,0.764
				c-0.073,0.286-0.174,0.54-0.3,0.76c-0.126,0.221-0.309,0.437-0.547,0.65c-0.238,0.213-0.52,0.39-0.844,0.532
				c0.82,2.604,1.535,4.808,2.143,6.611h-2.865V23.419z M21.783,12.488c-0.059-0.21-0.155-0.382-0.289-0.518
				c-0.134-0.135-0.297-0.201-0.49-0.201h-0.919v3.663h0.79c0.213,0,0.395-0.071,0.547-0.213c0.152-0.142,0.262-0.322,0.331-0.54
				c0.069-0.218,0.117-0.418,0.145-0.6c0.028-0.183,0.042-0.355,0.042-0.517s-0.012-0.329-0.034-0.501
				C21.882,12.89,21.841,12.699,21.783,12.488z M13.619,12.728c-0.015-0.157-0.04-0.275-0.072-0.354
				c-0.033-0.079-0.081-0.168-0.145-0.27c-0.063-0.101-0.141-0.174-0.231-0.22c-0.091-0.045-0.207-0.086-0.346-0.122
				c-0.139-0.035-0.3-0.053-0.482-0.053v3.906c0.147,0,0.277-0.009,0.392-0.026c0.114-0.018,0.214-0.038,0.3-0.061
				c0.086-0.023,0.162-0.064,0.228-0.125c0.066-0.062,0.121-0.114,0.164-0.16c0.043-0.045,0.08-0.12,0.11-0.224
				c0.03-0.104,0.053-0.188,0.068-0.254c0.015-0.065,0.026-0.172,0.034-0.318c0.007-0.147,0.011-0.266,0.011-0.354v-0.528
				c0-0.197-0.001-0.347-0.004-0.448C13.643,13.014,13.634,12.885,13.619,12.728z M78.104,12.488
				c-0.059-0.21-0.154-0.382-0.289-0.518c-0.133-0.135-0.297-0.201-0.489-0.201h-0.919v3.663h0.79c0.213,0,0.395-0.071,0.547-0.213
				c0.151-0.142,0.262-0.322,0.331-0.54c0.068-0.218,0.117-0.418,0.145-0.6c0.028-0.183,0.042-0.355,0.042-0.517
				s-0.012-0.329-0.034-0.501C78.202,12.89,78.162,12.699,78.104,12.488z M68.184,11.611c-0.248,0-0.457,0.062-0.631,0.186
				c-0.172,0.125-0.299,0.294-0.38,0.509c-0.081,0.215-0.138,0.428-0.171,0.639c-0.033,0.21-0.049,0.438-0.049,0.688v5.912
				c0,1.343,0.41,2.014,1.23,2.014c0.826,0,1.238-0.671,1.238-2.014v-5.912C69.422,12.285,69.009,11.611,68.184,11.611z
				 M29.667,11.611c-0.249,0-0.458,0.062-0.631,0.186c-0.172,0.125-0.299,0.294-0.38,0.509c-0.081,0.215-0.138,0.428-0.171,0.639
				c-0.033,0.21-0.049,0.438-0.049,0.688v5.912c0,1.343,0.41,2.014,1.231,2.014c0.826,0,1.238-0.671,1.238-2.014v-5.912
				C30.905,12.285,30.492,11.611,29.667,11.611z"/>
		</g>
	</g>
</g>
</svg>
