<?xml version="1.0" encoding="utf-8"?>
<!-- Generator: Adobe Illustrator 16.0.0, SVG Export Plug-In . SVG Version: 6.00 Build 0)  -->
<!DOCTYPE svg PUBLIC "-//W3C//DTD SVG 1.1//EN" "http://www.w3.org/Graphics/SVG/1.1/DTD/svg11.dtd">
<svg version="1.1" id="Layer_1" xmlns="http://www.w3.org/2000/svg" xmlns:xlink="http://www.w3.org/1999/xlink" x="0px" y="0px"
	 width="265.641px" height="72.758px" viewBox="0 0 265.641 72.758" enable-background="new 0 0 265.641 72.758"
	 xml:space="preserve">
<g id="RING_DESCRIPTIONS">
</g>
<g id="LABELS">
	<g>
		<g>
			<path fill="#286C9A" d="M2.152,72.758L2.15,72.756l0,0L2.152,72.758z M128.836,16.94h1.414l-0.69-5.076L128.836,16.94z
				 M166.479,16.94h1.414l-0.691-5.076L166.479,16.94z M122.055,10.637c-0.06-0.21-0.155-0.382-0.289-0.517
				c-0.135-0.135-0.298-0.201-0.49-0.201h-0.919v3.663h0.79c0.213,0,0.395-0.071,0.547-0.213c0.151-0.142,0.262-0.322,0.331-0.54
				c0.068-0.218,0.117-0.418,0.145-0.6c0.028-0.183,0.042-0.355,0.042-0.517s-0.012-0.329-0.034-0.501
				C122.153,11.039,122.113,10.848,122.055,10.637z M149.391,9.76c-0.249,0-0.458,0.062-0.632,0.187
				c-0.172,0.125-0.299,0.294-0.38,0.509s-0.138,0.428-0.171,0.638s-0.049,0.439-0.049,0.688v5.912c0,1.343,0.41,2.014,1.231,2.014
				c0.825,0,1.237-0.671,1.237-2.014v-5.912C150.629,10.434,150.216,9.76,149.391,9.76z M109.91,0v12.444H98.604L0,69.008
				l2.15,3.748l97.606-55.99h10.152v11.965h155.73V0H109.91z M122.377,21.568l-1.564-6.299h-0.456v6.299h-2.767V7.891h3.01
				c0.684,0,1.284,0.064,1.805,0.194c0.519,0.129,0.974,0.332,1.364,0.608c0.39,0.275,0.687,0.647,0.889,1.117
				s0.304,1.03,0.304,1.683c0,0.284-0.01,0.537-0.029,0.76c-0.021,0.223-0.067,0.478-0.142,0.764c-0.074,0.286-0.174,0.54-0.3,0.76
				s-0.309,0.437-0.547,0.649s-0.521,0.39-0.844,0.532c0.82,2.604,1.534,4.808,2.143,6.611h-2.865V21.568z M130.994,21.568
				l-0.562-2.925h-1.786l-0.532,2.925h-2.743l2.956-13.677h2.447l2.948,13.677H130.994z M140.257,9.958h-1.968v11.61h-2.766V9.958
				h-2.006V7.891h6.739V9.958z M143.942,21.568h-2.767V7.891h2.767V21.568z M153.395,17.001c0,0.547-0.041,1.053-0.122,1.516
				c-0.081,0.463-0.22,0.903-0.414,1.318c-0.195,0.416-0.443,0.769-0.745,1.06s-0.683,0.521-1.145,0.688
				c-0.461,0.167-0.987,0.251-1.58,0.251c-0.589,0-1.112-0.083-1.573-0.247s-0.841-0.388-1.141-0.669
				c-0.299-0.281-0.546-0.625-0.74-1.033c-0.195-0.408-0.334-0.842-0.418-1.303s-0.125-0.965-0.125-1.512v-4.598
				c0-3.231,1.333-4.848,3.997-4.848c2.669,0,4.004,1.616,4.004,4.848v4.528H153.395z M162.133,21.568h-1.915l-2.993-7.591v7.591
				h-2.379V7.883h1.991l3.001,7.158V7.883h2.295V21.568z M168.637,21.568l-0.562-2.925h-1.786l-0.532,2.925h-2.742l2.955-13.677
				h2.447l2.948,13.677H168.637z M177.733,21.568h-5.486V7.891h2.767v11.778h2.72V21.568z M182.968,21.568h-1.359l4.384-13.943
				h1.368L182.968,21.568z M197.519,20.934c-0.685,0.61-1.516,0.916-2.492,0.916c-0.633,0-1.195-0.117-1.688-0.35
				c-0.49-0.233-0.888-0.55-1.188-0.95c-0.301-0.4-0.533-0.844-0.695-1.33c-0.162-0.486-0.256-1.008-0.281-1.564l2.805-0.54
				c0,0.278,0.005,0.523,0.015,0.737c0.01,0.213,0.037,0.445,0.08,0.695c0.043,0.251,0.102,0.456,0.175,0.616
				c0.073,0.159,0.177,0.293,0.312,0.402c0.134,0.109,0.292,0.164,0.475,0.164c0.547,0,0.82-0.35,0.82-1.048
				c0-0.958-0.54-1.91-1.618-2.856l-0.859-0.729c-0.272-0.228-0.49-0.418-0.652-0.57s-0.354-0.357-0.574-0.615
				s-0.394-0.508-0.518-0.749c-0.125-0.241-0.229-0.531-0.318-0.87c-0.088-0.339-0.133-0.699-0.133-1.079
				c0-1.109,0.352-1.987,1.056-2.633s1.639-0.969,2.804-0.969c0.968,0,1.791,0.345,2.471,1.033c0.679,0.689,1.018,1.52,1.018,2.493
				l-0.007,0.1v0.228l-2.857,0.395c0-0.056,0.004-0.143,0.012-0.262c0.008-0.119,0.012-0.216,0.012-0.292
				c0-0.182-0.014-0.356-0.038-0.523c-0.025-0.167-0.067-0.334-0.125-0.501c-0.059-0.167-0.148-0.3-0.271-0.399
				c-0.122-0.099-0.269-0.148-0.44-0.148c-0.305,0-0.532,0.119-0.685,0.357c-0.151,0.238-0.228,0.52-0.228,0.843
				c0,0.284,0.044,0.55,0.133,0.798c0.089,0.249,0.223,0.48,0.403,0.695c0.18,0.215,0.346,0.395,0.498,0.536
				c0.151,0.142,0.354,0.315,0.607,0.521c0.253,0.206,0.434,0.356,0.54,0.452c0.391,0.345,0.72,0.667,0.988,0.969
				c0.269,0.301,0.522,0.642,0.76,1.021c0.238,0.38,0.417,0.79,0.536,1.231c0.119,0.439,0.178,0.917,0.178,1.428
				C198.545,19.539,198.203,20.323,197.519,20.934z M205.679,9.958h-1.968v11.61h-2.766V9.958h-2.006V7.891h6.739V9.958z
				 M211.386,21.568l-1.564-6.299h-0.456v6.299H206.6V7.891h3.009c0.684,0,1.285,0.064,1.805,0.194
				c0.52,0.129,0.974,0.332,1.364,0.608c0.39,0.275,0.687,0.647,0.889,1.117s0.304,1.03,0.304,1.683c0,0.284-0.01,0.537-0.029,0.76
				c-0.021,0.223-0.067,0.478-0.142,0.764c-0.073,0.286-0.174,0.54-0.3,0.76s-0.309,0.437-0.547,0.649s-0.52,0.39-0.844,0.532
				c0.821,2.604,1.535,4.808,2.143,6.611h-2.865V21.568z M220.003,21.568l-0.562-2.925h-1.786l-0.532,2.925h-2.743l2.956-13.677
				h2.447l2.948,13.677H220.003z M229.266,9.958h-1.969v11.61h-2.766V9.958h-2.006V7.891h6.74V9.958z M235.892,9.79h-2.94v3.723
				h2.082v1.945h-2.082v4.21h2.94v1.899h-5.707V7.891h5.707V9.79z M244.767,21.568h-1.899l-0.35-0.958
				c-0.233,0.365-0.565,0.66-0.996,0.885c-0.432,0.226-0.874,0.338-1.33,0.338c-0.491,0-0.938-0.09-1.341-0.27
				s-0.734-0.418-0.995-0.714c-0.262-0.296-0.48-0.645-0.657-1.044c-0.178-0.399-0.304-0.81-0.38-1.228
				c-0.076-0.417-0.114-0.847-0.114-1.288v-4.817c0-3.231,1.345-4.848,4.035-4.848c0.567,0,1.072,0.075,1.516,0.224
				c0.444,0.149,0.814,0.356,1.113,0.619c0.299,0.264,0.544,0.588,0.737,0.973c0.192,0.385,0.332,0.803,0.418,1.254
				c0.086,0.451,0.129,0.947,0.129,1.489v0.806h-2.646v-0.958c0-0.238-0.006-0.447-0.019-0.627c-0.013-0.181-0.044-0.38-0.095-0.601
				c-0.052-0.221-0.119-0.4-0.205-0.543c-0.086-0.142-0.21-0.261-0.373-0.356c-0.163-0.096-0.354-0.146-0.577-0.146
				c-0.846,0-1.27,0.674-1.27,2.021v5.904c0,1.342,0.424,2.014,1.27,2.014c0.841,0,1.261-0.697,1.261-2.09v-1.094h-1.564v-1.982
				h4.331L244.767,21.568L244.767,21.568z M249.052,21.568h-2.766V7.891h2.766V21.568z M258.308,13.361h-2.721V12.1
				c0-0.248-0.005-0.462-0.015-0.642s-0.037-0.385-0.08-0.615c-0.043-0.229-0.102-0.418-0.175-0.562
				c-0.074-0.146-0.184-0.268-0.327-0.369c-0.144-0.101-0.318-0.152-0.521-0.152c-0.8,0-1.199,0.674-1.199,2.021v5.904
				c0,1.342,0.399,2.014,1.199,2.014c0.238,0,0.438-0.068,0.602-0.205c0.163-0.137,0.278-0.331,0.35-0.582
				c0.071-0.25,0.119-0.496,0.145-0.737c0.024-0.241,0.038-0.516,0.038-0.825v-1.406h2.705V17.1
				c-0.011,0.521-0.054,1.003-0.13,1.443c-0.075,0.441-0.205,0.869-0.388,1.284c-0.183,0.416-0.414,0.767-0.695,1.053
				c-0.28,0.286-0.645,0.517-1.09,0.691c-0.444,0.174-0.958,0.262-1.535,0.262c-0.592,0-1.117-0.085-1.576-0.255
				c-0.458-0.169-0.835-0.397-1.133-0.684c-0.297-0.287-0.541-0.638-0.732-1.056c-0.192-0.418-0.328-0.857-0.407-1.318
				s-0.118-0.968-0.118-1.52v-4.528c0-3.231,1.322-4.848,3.966-4.848c0.559,0,1.054,0.075,1.486,0.224
				c0.434,0.149,0.796,0.356,1.09,0.619c0.293,0.264,0.536,0.588,0.727,0.973c0.189,0.385,0.327,0.803,0.41,1.254
				c0.084,0.451,0.125,0.947,0.125,1.489L258.308,13.361L258.308,13.361z M211.064,10.637c-0.06-0.21-0.155-0.382-0.289-0.517
				s-0.297-0.201-0.49-0.201h-0.919v3.663h0.79c0.213,0,0.395-0.071,0.547-0.213c0.152-0.142,0.262-0.322,0.331-0.54
				s0.117-0.418,0.145-0.6c0.028-0.183,0.042-0.355,0.042-0.517s-0.012-0.329-0.033-0.501
				C211.163,11.039,211.122,10.848,211.064,10.637z M217.844,16.94h1.414l-0.69-5.076L217.844,16.94z"/>
		</g>
	</g>
</g>
</svg>
