<?xml version="1.0" encoding="utf-8"?>
<!-- Generator: Adobe Illustrator 16.0.0, SVG Export Plug-In . SVG Version: 6.00 Build 0)  -->
<!DOCTYPE svg PUBLIC "-//W3C//DTD SVG 1.1//EN" "http://www.w3.org/Graphics/SVG/1.1/DTD/svg11.dtd">
<svg version="1.1" id="Layer_1" xmlns="http://www.w3.org/2000/svg" xmlns:xlink="http://www.w3.org/1999/xlink" x="0px" y="0px"
	 width="201.982px" height="91.217px" viewBox="0 0 201.982 91.217" enable-background="new 0 0 201.982 91.217"
	 xml:space="preserve">
<g id="RING_DESCRIPTIONS">
</g>
<g id="LABELS">
	<g opacity="0.85">
		<g>
			<path fill="#188040" d="M201.98,89.458l-33.765-75.715h-14.154V2.161H2.161v28.4h151.901V18.065h11.351l32.62,73.152l3.95-1.759
				H201.98z M14.126,23.135l-1.564-6.299h-0.456v6.299H9.339V9.458h3.01c0.684,0,1.284,0.064,1.805,0.194
				c0.519,0.129,0.974,0.332,1.364,0.607c0.39,0.276,0.687,0.648,0.889,1.117s0.304,1.03,0.304,1.683c0,0.284-0.01,0.537-0.029,0.76
				c-0.021,0.223-0.067,0.478-0.142,0.764s-0.174,0.54-0.3,0.76c-0.126,0.221-0.309,0.438-0.547,0.65s-0.521,0.39-0.844,0.532
				c0.82,2.604,1.534,4.808,2.143,6.611h-2.865V23.135z M23.571,11.357h-2.94v3.723h2.082v1.945h-2.082v4.21h2.94v1.898h-5.707
				V9.458h5.707V11.357z M29.438,23.135l-0.562-2.925H27.09l-0.531,2.925h-2.743l2.956-13.677h2.446l2.948,13.677H29.438z
				 M40.584,14.928h-2.72v-1.261c0-0.248-0.005-0.462-0.015-0.642c-0.011-0.18-0.037-0.385-0.08-0.615
				c-0.043-0.23-0.103-0.418-0.176-0.562s-0.183-0.267-0.326-0.369c-0.145-0.101-0.318-0.152-0.521-0.152
				c-0.8,0-1.2,0.674-1.2,2.021v5.904c0,1.342,0.4,2.014,1.2,2.014c0.238,0,0.438-0.068,0.602-0.205
				c0.162-0.137,0.277-0.331,0.35-0.582c0.071-0.25,0.119-0.496,0.144-0.737c0.025-0.241,0.038-0.516,0.038-0.825v-1.406h2.705
				v1.155c-0.01,0.521-0.053,1.003-0.129,1.443c-0.076,0.441-0.206,0.869-0.388,1.284c-0.184,0.416-0.414,0.767-0.695,1.053
				c-0.281,0.286-0.645,0.517-1.09,0.69c-0.445,0.174-0.958,0.262-1.535,0.262c-0.592,0-1.118-0.085-1.577-0.255
				c-0.458-0.169-0.835-0.397-1.132-0.684s-0.541-0.638-0.732-1.056c-0.192-0.418-0.328-0.857-0.407-1.318s-0.118-0.968-0.118-1.52
				V14.04c0-3.232,1.322-4.848,3.966-4.848c0.558,0,1.053,0.075,1.486,0.224c0.433,0.149,0.796,0.356,1.09,0.619
				c0.293,0.264,0.536,0.588,0.726,0.973c0.19,0.385,0.327,0.803,0.41,1.254c0.084,0.451,0.125,0.947,0.125,1.489L40.584,14.928
				L40.584,14.928z M47.91,11.524h-1.968v11.61h-2.767v-11.61H41.17V9.458h6.74V11.524z M51.594,23.135h-2.766V9.458h2.766V23.135z
				 M57.544,23.135h-2.529L52.499,9.458h2.622l1.208,8.29l1.337-8.29h2.583L57.544,23.135z M66.86,11.357h-2.94v3.723h2.082v1.945
				H63.92v4.21h2.94v1.898h-5.707V9.458h5.707V11.357z M72.202,23.135h-1.36l4.385-13.943h1.367L72.202,23.135z M83.646,23.135
				H80.88V9.458h2.767V23.135z M92.559,23.135h-1.915l-2.994-7.591v7.591h-2.378V9.45h1.99l3.002,7.158V9.45h2.295V23.135z
				 M102.064,18.568c0,1.875-0.54,3.265-1.619,4.172c0.152,0.329,0.598,0.494,1.337,0.494v1.679c-1.378,0-2.391-0.512-3.04-1.535
				c-0.218,0.025-0.469,0.038-0.752,0.038c-0.679,0-1.277-0.118-1.793-0.354c-0.517-0.235-0.932-0.568-1.246-0.999
				s-0.55-0.932-0.707-1.504c-0.157-0.573-0.236-1.213-0.236-1.923V14.04c0-0.562,0.042-1.079,0.125-1.55
				c0.083-0.471,0.224-0.915,0.418-1.33c0.195-0.416,0.444-0.765,0.749-1.049c0.305-0.284,0.688-0.508,1.151-0.672
				c0.464-0.165,0.992-0.247,1.584-0.247s1.121,0.083,1.584,0.247c0.463,0.165,0.847,0.389,1.151,0.672
				c0.304,0.284,0.554,0.633,0.749,1.049c0.194,0.415,0.334,0.858,0.418,1.33c0.084,0.472,0.125,0.988,0.125,1.55v4.528H102.064z
				 M111.434,18.051c0,0.437-0.014,0.831-0.038,1.187c-0.025,0.354-0.074,0.722-0.146,1.102c-0.07,0.38-0.167,0.716-0.289,1.007
				c-0.122,0.292-0.284,0.57-0.485,0.836c-0.202,0.267-0.442,0.485-0.719,0.657c-0.275,0.172-0.608,0.309-0.999,0.41
				c-0.39,0.102-0.827,0.152-1.313,0.152s-0.925-0.051-1.315-0.152c-0.39-0.101-0.722-0.238-0.995-0.41
				c-0.272-0.172-0.512-0.391-0.714-0.657c-0.202-0.266-0.364-0.544-0.485-0.836c-0.122-0.291-0.22-0.627-0.292-1.007
				c-0.074-0.38-0.123-0.747-0.148-1.102c-0.025-0.355-0.038-0.75-0.038-1.187V9.458h2.767v8.51c0,0.486,0.002,0.84,0.008,1.061
				c0.005,0.22,0.018,0.489,0.038,0.805c0.021,0.317,0.056,0.539,0.105,0.665c0.051,0.126,0.121,0.264,0.209,0.41
				c0.089,0.146,0.204,0.243,0.346,0.289c0.143,0.045,0.314,0.067,0.518,0.067c0.202,0,0.375-0.022,0.517-0.067
				c0.143-0.046,0.257-0.142,0.347-0.285c0.088-0.145,0.157-0.28,0.209-0.406c0.05-0.127,0.086-0.346,0.105-0.657
				c0.021-0.312,0.033-0.575,0.038-0.791c0.005-0.215,0.008-0.563,0.008-1.045V9.458h2.767v8.593H111.434z M115.765,23.135h-2.767
				V9.458h2.767V23.135z M122.177,23.135l-1.564-6.299h-0.456v6.299h-2.766V9.458h3.009c0.684,0,1.285,0.064,1.805,0.194
				c0.52,0.129,0.974,0.332,1.364,0.607c0.39,0.276,0.687,0.648,0.889,1.117s0.304,1.03,0.304,1.683c0,0.284-0.01,0.537-0.029,0.76
				c-0.021,0.223-0.067,0.478-0.142,0.764c-0.073,0.286-0.174,0.54-0.3,0.76c-0.126,0.221-0.309,0.438-0.547,0.65
				s-0.52,0.39-0.844,0.532c0.82,2.604,1.535,4.808,2.143,6.611h-2.865V23.135z M128.682,23.135h-2.767V9.458h2.767V23.135z
				 M137.594,23.135h-1.914l-2.994-7.591v7.591h-2.378V9.45h1.99l3.001,7.158V9.45h2.295V23.135z M147.108,23.135h-1.899
				l-0.35-0.958c-0.233,0.365-0.565,0.66-0.996,0.885c-0.431,0.226-0.874,0.338-1.33,0.338c-0.491,0-0.938-0.09-1.341-0.27
				c-0.402-0.18-0.734-0.418-0.995-0.714s-0.48-0.645-0.657-1.044c-0.178-0.4-0.304-0.81-0.38-1.228
				c-0.076-0.417-0.114-0.847-0.114-1.288V14.04c0-3.232,1.346-4.848,4.035-4.848c0.567,0,1.072,0.075,1.517,0.224
				c0.443,0.149,0.813,0.356,1.112,0.619c0.299,0.264,0.544,0.588,0.737,0.973c0.193,0.385,0.332,0.803,0.418,1.254
				c0.086,0.451,0.129,0.947,0.129,1.489v0.806h-2.645v-0.958c0-0.238-0.007-0.447-0.02-0.627c-0.013-0.18-0.044-0.38-0.095-0.6
				c-0.051-0.221-0.119-0.401-0.205-0.543c-0.086-0.142-0.21-0.261-0.373-0.357c-0.163-0.096-0.354-0.145-0.577-0.145
				c-0.846,0-1.269,0.674-1.269,2.021v5.904c0,1.342,0.423,2.014,1.269,2.014c0.841,0,1.261-0.697,1.261-2.09v-1.094h-1.564v-1.983
				h4.331L147.108,23.135L147.108,23.135z M13.803,12.204c-0.059-0.21-0.154-0.382-0.288-0.517c-0.135-0.135-0.298-0.201-0.49-0.201
				h-0.919v3.663h0.79c0.213,0,0.395-0.071,0.547-0.213c0.151-0.142,0.262-0.322,0.331-0.54c0.068-0.218,0.117-0.418,0.145-0.6
				c0.028-0.183,0.042-0.355,0.042-0.517c0-0.162-0.012-0.329-0.034-0.501C13.902,12.606,13.862,12.415,13.803,12.204z
				 M27.279,18.507h1.414l-0.691-5.076L27.279,18.507z M99.07,12.014c-0.086-0.21-0.216-0.377-0.392-0.501
				c-0.175-0.124-0.389-0.186-0.642-0.186c-0.248,0-0.461,0.062-0.638,0.186c-0.179,0.125-0.309,0.292-0.393,0.505
				c-0.083,0.213-0.143,0.426-0.178,0.638c-0.036,0.213-0.053,0.443-0.053,0.69v5.904c0,1.342,0.42,2.014,1.261,2.014
				s1.261-0.671,1.261-2.014v-5.904c0-0.248-0.017-0.479-0.049-0.694C99.216,12.438,99.157,12.225,99.07,12.014z M121.855,12.204
				c-0.06-0.21-0.155-0.382-0.289-0.517s-0.297-0.201-0.49-0.201h-0.919v3.663h0.79c0.213,0,0.395-0.071,0.547-0.213
				s0.262-0.322,0.331-0.54s0.117-0.418,0.145-0.6c0.028-0.183,0.042-0.355,0.042-0.517c0-0.162-0.012-0.329-0.033-0.501
				C121.954,12.606,121.913,12.415,121.855,12.204z"/>
		</g>
	</g>
</g>
</svg>
