<?xml version="1.0" encoding="utf-8"?>
<!-- Generator: Adobe Illustrator 16.0.0, SVG Export Plug-In . SVG Version: 6.00 Build 0)  -->
<!DOCTYPE svg PUBLIC "-//W3C//DTD SVG 1.1//EN" "http://www.w3.org/Graphics/SVG/1.1/DTD/svg11.dtd">
<svg version="1.1" id="Layer_1" xmlns="http://www.w3.org/2000/svg" xmlns:xlink="http://www.w3.org/1999/xlink" x="0px" y="0px"
	 width="151.407px" height="32.054px" viewBox="0 0 151.407 32.054" enable-background="new 0 0 151.407 32.054"
	 xml:space="preserve">
<g id="RING_DESCRIPTIONS">
</g>
<g id="LABELS">
	<g opacity="0.85">
		<g>
			<path fill="#57662D" d="M151.405,22.093l-69.262-8.258H69.226V2.161H2.161v27.732h67.064V18.158l12.664-0.002l69.003,8.23
				l0.515-4.291L151.405,22.093z M14.514,22.496c-0.684,0.61-1.515,0.916-2.492,0.916c-0.633,0-1.195-0.117-1.687-0.35
				s-0.888-0.551-1.189-0.949c-0.302-0.4-0.533-0.845-0.695-1.33c-0.162-0.486-0.256-1.009-0.281-1.566l2.804-0.539
				c0,0.277,0.005,0.523,0.016,0.736c0.01,0.213,0.036,0.445,0.08,0.695c0.043,0.252,0.101,0.456,0.175,0.616
				c0.073,0.159,0.177,0.293,0.312,0.401c0.134,0.109,0.292,0.164,0.475,0.164c0.547,0,0.82-0.35,0.82-1.047
				c0-0.959-0.539-1.91-1.618-2.857l-0.858-0.729c-0.274-0.229-0.492-0.418-0.654-0.571c-0.162-0.152-0.353-0.357-0.573-0.615
				c-0.22-0.258-0.393-0.508-0.517-0.749c-0.124-0.241-0.23-0.531-0.319-0.87c-0.089-0.339-0.133-0.699-0.133-1.079
				c0-1.109,0.352-1.987,1.056-2.633c0.704-0.646,1.639-0.969,2.805-0.969c0.967,0,1.79,0.345,2.469,1.033
				c0.679,0.689,1.02,1.52,1.02,2.493l-0.008,0.099v0.228l-2.856,0.395c0-0.056,0.004-0.143,0.011-0.262
				c0.008-0.119,0.012-0.216,0.012-0.292c0-0.182-0.013-0.357-0.038-0.524s-0.067-0.334-0.125-0.501
				c-0.059-0.167-0.148-0.3-0.271-0.399c-0.121-0.099-0.269-0.148-0.44-0.148c-0.304,0-0.531,0.119-0.684,0.357
				c-0.152,0.238-0.229,0.52-0.229,0.843c0,0.284,0.045,0.55,0.134,0.798c0.088,0.249,0.223,0.48,0.402,0.695
				c0.18,0.215,0.346,0.394,0.498,0.536c0.151,0.142,0.354,0.315,0.607,0.521s0.434,0.356,0.54,0.452
				c0.39,0.345,0.719,0.667,0.987,0.969c0.269,0.301,0.521,0.642,0.76,1.023c0.238,0.379,0.417,0.789,0.536,1.23
				c0.119,0.439,0.179,0.916,0.179,1.428C15.54,21.102,15.197,21.886,14.514,22.496z M22.348,11.353h-2.94v3.723h2.082v1.945h-2.082
				v4.21h2.94v1.899h-5.706V9.453h5.706V11.353z M30.622,23.13h-1.914l-2.994-7.591v7.591h-2.378V9.445h1.99l3.002,7.158V9.445
				h2.294V23.13z M38.122,22.496c-0.684,0.61-1.515,0.916-2.492,0.916c-0.633,0-1.195-0.117-1.687-0.35
				c-0.492-0.232-0.888-0.551-1.189-0.949c-0.302-0.4-0.533-0.845-0.695-1.33c-0.162-0.486-0.256-1.009-0.281-1.566l2.804-0.539
				c0,0.277,0.005,0.523,0.016,0.736c0.01,0.213,0.036,0.445,0.08,0.695c0.043,0.252,0.102,0.456,0.175,0.616
				c0.073,0.159,0.177,0.293,0.312,0.401c0.134,0.109,0.292,0.164,0.475,0.164c0.547,0,0.82-0.35,0.82-1.047
				c0-0.959-0.539-1.91-1.618-2.857l-0.858-0.729c-0.274-0.229-0.492-0.418-0.654-0.571c-0.162-0.152-0.353-0.357-0.573-0.615
				c-0.22-0.258-0.393-0.508-0.517-0.749c-0.124-0.241-0.23-0.531-0.319-0.87c-0.089-0.339-0.133-0.699-0.133-1.079
				c0-1.109,0.352-1.987,1.056-2.633c0.704-0.646,1.639-0.969,2.805-0.969c0.967,0,1.79,0.345,2.469,1.033
				c0.679,0.689,1.019,1.52,1.019,2.493l-0.008,0.099v0.228l-2.856,0.395c0-0.056,0.004-0.143,0.011-0.262
				c0.008-0.119,0.012-0.216,0.012-0.292c0-0.182-0.013-0.357-0.038-0.524c-0.025-0.167-0.067-0.334-0.125-0.501
				c-0.059-0.167-0.148-0.3-0.271-0.399c-0.121-0.099-0.27-0.148-0.44-0.148c-0.304,0-0.531,0.119-0.684,0.357
				c-0.152,0.238-0.229,0.52-0.229,0.843c0,0.284,0.045,0.55,0.134,0.798c0.088,0.249,0.223,0.48,0.402,0.695
				c0.18,0.215,0.346,0.394,0.498,0.536c0.151,0.142,0.354,0.315,0.607,0.521s0.434,0.356,0.54,0.452
				c0.39,0.345,0.719,0.667,0.987,0.969c0.27,0.301,0.521,0.642,0.76,1.023c0.238,0.379,0.417,0.789,0.536,1.23
				c0.119,0.439,0.179,0.916,0.179,1.428C39.148,21.102,38.806,21.886,38.122,22.496z M43.017,23.13h-2.766V9.453h2.766V23.13z
				 M51.929,23.13h-1.914l-2.994-7.591v7.591h-2.378V9.445h1.99l3.002,7.158V9.445h2.294V23.13z M61.442,23.13h-1.899l-0.35-0.959
				c-0.233,0.365-0.564,0.66-0.995,0.885c-0.431,0.227-0.874,0.339-1.33,0.339c-0.491,0-0.938-0.091-1.341-0.271
				c-0.403-0.18-0.734-0.418-0.996-0.713c-0.261-0.297-0.479-0.646-0.657-1.045c-0.177-0.4-0.304-0.811-0.38-1.229
				c-0.075-0.416-0.113-0.846-0.113-1.287v-4.817c0-3.232,1.345-4.848,4.034-4.848c0.567,0,1.073,0.075,1.517,0.224
				c0.442,0.149,0.813,0.356,1.112,0.619c0.299,0.264,0.545,0.588,0.737,0.973c0.192,0.385,0.332,0.803,0.418,1.254
				s0.129,0.947,0.129,1.489v0.806h-2.644v-0.958c0-0.238-0.007-0.447-0.02-0.627c-0.013-0.18-0.044-0.38-0.095-0.6
				c-0.051-0.221-0.119-0.401-0.205-0.543c-0.086-0.143-0.21-0.261-0.372-0.357c-0.162-0.096-0.355-0.145-0.578-0.145
				c-0.846,0-1.269,0.674-1.269,2.021v5.904c0,1.342,0.423,2.014,1.269,2.014c0.841,0,1.262-0.696,1.262-2.09v-1.094h-1.565v-1.983
				h4.331V23.13z"/>
		</g>
	</g>
</g>
</svg>
