<?xml version="1.0" encoding="utf-8"?>
<!-- Generator: Adobe Illustrator 16.0.0, SVG Export Plug-In . SVG Version: 6.00 Build 0)  -->
<!DOCTYPE svg PUBLIC "-//W3C//DTD SVG 1.1//EN" "http://www.w3.org/Graphics/SVG/1.1/DTD/svg11.dtd">
<svg version="1.1" id="Layer_1" xmlns="http://www.w3.org/2000/svg" xmlns:xlink="http://www.w3.org/1999/xlink" x="0px" y="0px"
	 width="125.704px" height="32.725px" viewBox="0 0 125.704 32.725" enable-background="new 0 0 125.704 32.725"
	 xml:space="preserve">
<g id="RING_DESCRIPTIONS">
</g>
<g id="LABELS">
	<g opacity="0.85">
		<g>
			<path fill="#FCEE21" d="M125.702,29.469L108.81,14.566H95.062V2.161h-92.9v28.401h92.9V18.888h12.114l15.666,13.821l2.861-3.24
				L125.702,29.469L125.702,29.469z M15.613,22.749c-0.685,0.61-1.515,0.916-2.492,0.916c-0.633,0-1.195-0.117-1.687-0.35
				c-0.491-0.233-0.888-0.551-1.189-0.95c-0.301-0.4-0.533-0.844-0.695-1.33s-0.256-1.008-0.281-1.565l2.804-0.54
				c0,0.278,0.005,0.524,0.015,0.737c0.01,0.213,0.037,0.445,0.08,0.695c0.043,0.251,0.102,0.456,0.175,0.616
				c0.073,0.158,0.177,0.293,0.312,0.401c0.134,0.109,0.292,0.164,0.475,0.164c0.547,0,0.82-0.35,0.82-1.048
				c0-0.958-0.54-1.91-1.618-2.857l-0.859-0.729c-0.273-0.229-0.491-0.418-0.653-0.57c-0.162-0.151-0.354-0.356-0.574-0.614
				c-0.22-0.259-0.393-0.509-0.517-0.749c-0.125-0.241-0.23-0.531-0.319-0.87c-0.088-0.339-0.133-0.699-0.133-1.079
				c0-1.109,0.352-1.987,1.056-2.633c0.704-0.646,1.639-0.97,2.804-0.97c0.968,0,1.791,0.346,2.47,1.033
				c0.679,0.689,1.018,1.521,1.018,2.493l-0.007,0.099v0.229l-2.857,0.395c0-0.056,0.004-0.143,0.012-0.262
				c0.007-0.119,0.011-0.216,0.011-0.292c0-0.182-0.013-0.357-0.038-0.524c-0.025-0.167-0.067-0.334-0.125-0.501
				c-0.058-0.167-0.148-0.3-0.27-0.398c-0.122-0.1-0.269-0.148-0.441-0.148c-0.304,0-0.532,0.119-0.684,0.357
				s-0.228,0.52-0.228,0.843c0,0.284,0.044,0.55,0.133,0.798c0.089,0.249,0.223,0.48,0.403,0.695
				c0.18,0.215,0.346,0.394,0.498,0.536c0.152,0.142,0.354,0.314,0.608,0.521c0.253,0.206,0.433,0.356,0.54,0.452
				c0.39,0.345,0.719,0.667,0.988,0.969s0.522,0.643,0.76,1.022c0.238,0.38,0.417,0.79,0.536,1.23s0.178,0.917,0.178,1.429
				C16.639,21.354,16.297,22.138,15.613,22.749z M25.659,18.3c0,0.437-0.013,0.831-0.038,1.187
				c-0.025,0.354-0.074,0.722-0.145,1.102s-0.167,0.716-0.289,1.007c-0.122,0.292-0.284,0.57-0.486,0.836
				c-0.202,0.267-0.442,0.485-0.718,0.657s-0.609,0.31-0.999,0.41c-0.39,0.103-0.828,0.152-1.314,0.152
				c-0.486,0-0.925-0.051-1.315-0.152c-0.39-0.101-0.722-0.238-0.995-0.41s-0.512-0.391-0.714-0.657
				c-0.202-0.266-0.365-0.544-0.486-0.836c-0.122-0.291-0.219-0.627-0.292-1.007c-0.074-0.38-0.123-0.747-0.148-1.102
				c-0.025-0.355-0.038-0.75-0.038-1.187V9.706h2.766v8.51c0,0.486,0.002,0.84,0.008,1.061c0.005,0.22,0.018,0.488,0.038,0.805
				c0.021,0.317,0.056,0.539,0.106,0.665c0.051,0.126,0.121,0.264,0.209,0.41c0.089,0.146,0.204,0.243,0.346,0.289
				c0.142,0.045,0.313,0.067,0.517,0.067c0.202,0,0.375-0.022,0.517-0.067c0.142-0.046,0.257-0.142,0.346-0.285
				c0.088-0.146,0.158-0.28,0.209-0.406c0.05-0.127,0.086-0.346,0.106-0.657s0.033-0.574,0.038-0.791
				c0.005-0.215,0.008-0.562,0.008-1.045V9.706h2.766V18.3H25.659z M33.762,15.192c-0.119,0.456-0.285,0.832-0.498,1.128
				c-0.213,0.296-0.486,0.535-0.821,0.714s-0.697,0.307-1.086,0.38c-0.39,0.074-0.841,0.113-1.353,0.118v5.851h-2.781V9.706h3.306
				c1.189,0,2.056,0.332,2.599,0.995c0.542,0.664,0.813,1.624,0.813,2.88C33.941,14.199,33.881,14.736,33.762,15.192z
				 M40.696,11.605h-2.94v3.723h2.082v1.945h-2.082v4.21h2.94v1.898h-5.707V9.706h5.707V11.605z M46.471,23.383l-1.564-6.299H44.45
				v6.299h-2.766V9.706h3.009c0.684,0,1.285,0.064,1.805,0.194c0.519,0.129,0.974,0.332,1.364,0.607
				c0.39,0.276,0.687,0.648,0.889,1.117s0.304,1.03,0.304,1.684c0,0.283-0.01,0.536-0.03,0.76c-0.021,0.223-0.067,0.478-0.141,0.764
				c-0.074,0.286-0.174,0.54-0.3,0.76c-0.126,0.222-0.309,0.438-0.547,0.65c-0.238,0.213-0.52,0.39-0.844,0.532
				c0.821,2.604,1.535,4.808,2.143,6.61h-2.865V23.383z M54.533,23.383h-2.53L49.487,9.706h2.622l1.208,8.29l1.337-8.29h2.583
				L54.533,23.383z M60.908,23.383h-2.766V9.706h2.766V23.383z M68.407,22.749c-0.684,0.61-1.515,0.916-2.492,0.916
				c-0.633,0-1.195-0.117-1.687-0.35c-0.491-0.233-0.888-0.551-1.189-0.95c-0.301-0.4-0.533-0.844-0.695-1.33
				c-0.162-0.486-0.256-1.008-0.281-1.565l2.805-0.54c0,0.278,0.004,0.524,0.014,0.737c0.011,0.213,0.037,0.445,0.08,0.695
				c0.043,0.251,0.103,0.456,0.176,0.616c0.072,0.158,0.177,0.293,0.312,0.401c0.133,0.109,0.291,0.164,0.475,0.164
				c0.547,0,0.82-0.35,0.82-1.048c0-0.958-0.541-1.91-1.619-2.857l-0.858-0.729c-0.272-0.229-0.491-0.418-0.653-0.57
				c-0.162-0.151-0.354-0.356-0.574-0.614c-0.22-0.259-0.393-0.509-0.517-0.749c-0.125-0.241-0.23-0.531-0.319-0.87
				c-0.088-0.339-0.133-0.699-0.133-1.079c0-1.109,0.352-1.987,1.056-2.633c0.704-0.646,1.639-0.97,2.804-0.97
				c0.968,0,1.791,0.346,2.47,1.033c0.68,0.689,1.018,1.521,1.018,2.493l-0.006,0.099v0.229l-2.857,0.395
				c0-0.056,0.004-0.143,0.012-0.262s0.012-0.216,0.012-0.292c0-0.182-0.014-0.357-0.039-0.524
				c-0.024-0.167-0.066-0.334-0.125-0.501c-0.058-0.167-0.147-0.3-0.27-0.398c-0.122-0.1-0.27-0.148-0.441-0.148
				c-0.304,0-0.531,0.119-0.684,0.357s-0.229,0.52-0.229,0.843c0,0.284,0.045,0.55,0.133,0.798c0.09,0.249,0.224,0.48,0.404,0.695
				c0.18,0.215,0.346,0.394,0.498,0.536c0.151,0.142,0.354,0.314,0.607,0.521c0.253,0.206,0.434,0.356,0.54,0.452
				c0.39,0.345,0.719,0.667,0.987,0.969c0.27,0.302,0.522,0.643,0.761,1.022c0.237,0.38,0.417,0.79,0.536,1.23
				s0.178,0.917,0.178,1.429C69.433,21.354,69.09,22.138,68.407,22.749z M78.362,18.816c0,0.547-0.041,1.053-0.121,1.516
				c-0.082,0.463-0.22,0.903-0.414,1.318c-0.195,0.416-0.443,0.769-0.746,1.06c-0.301,0.291-0.683,0.521-1.144,0.688
				s-0.987,0.251-1.581,0.251c-0.588,0-1.111-0.083-1.572-0.247s-0.842-0.389-1.141-0.669c-0.299-0.281-0.546-0.625-0.741-1.033
				c-0.194-0.408-0.334-0.842-0.418-1.303s-0.125-0.966-0.125-1.513v-4.597c0-3.232,1.333-4.848,3.997-4.848
				c2.669,0,4.004,1.615,4.004,4.848v4.528H78.362z M84.6,23.383l-1.564-6.299h-0.457v6.299h-2.766V9.706h3.01
				c0.684,0,1.284,0.064,1.805,0.194c0.519,0.129,0.974,0.332,1.363,0.607c0.391,0.276,0.688,0.648,0.889,1.117
				c0.203,0.469,0.305,1.03,0.305,1.684c0,0.283-0.01,0.536-0.029,0.76c-0.021,0.223-0.068,0.478-0.143,0.764
				c-0.073,0.286-0.174,0.54-0.299,0.76c-0.127,0.222-0.309,0.438-0.547,0.65s-0.521,0.39-0.844,0.532
				c0.82,2.604,1.534,4.808,2.143,6.61H84.6V23.383z M84.277,12.453c-0.06-0.21-0.155-0.382-0.288-0.517
				c-0.135-0.136-0.298-0.201-0.49-0.201h-0.92v3.663h0.791c0.213,0,0.395-0.071,0.547-0.213c0.151-0.143,0.262-0.322,0.33-0.54
				c0.069-0.219,0.117-0.418,0.146-0.601s0.042-0.354,0.042-0.517s-0.012-0.329-0.034-0.501
				C84.375,12.854,84.334,12.663,84.277,12.453z M74.357,11.575c-0.249,0-0.458,0.062-0.631,0.186c-0.173,0.125-0.3,0.294-0.38,0.51
				c-0.081,0.215-0.139,0.428-0.172,0.638c-0.032,0.21-0.049,0.438-0.049,0.688v5.912c0,1.344,0.41,2.015,1.231,2.015
				c0.826,0,1.237-0.671,1.237-2.015v-5.912C75.596,12.249,75.183,11.575,74.357,11.575z M31.289,12.692
				c-0.015-0.157-0.04-0.275-0.072-0.354c-0.033-0.079-0.081-0.168-0.145-0.27s-0.141-0.174-0.231-0.221
				c-0.091-0.045-0.207-0.086-0.346-0.121c-0.139-0.035-0.3-0.054-0.482-0.054v3.906c0.147,0,0.277-0.009,0.393-0.026
				c0.114-0.018,0.214-0.038,0.3-0.061c0.086-0.023,0.162-0.064,0.228-0.125c0.066-0.062,0.121-0.114,0.164-0.16
				c0.043-0.045,0.08-0.12,0.11-0.224c0.03-0.104,0.053-0.188,0.068-0.254c0.015-0.066,0.026-0.173,0.034-0.319
				c0.007-0.147,0.011-0.265,0.011-0.354v-0.527c0-0.197-0.001-0.348-0.004-0.448S31.304,12.849,31.289,12.692z M46.148,12.453
				c-0.059-0.21-0.155-0.382-0.289-0.517c-0.134-0.136-0.297-0.201-0.49-0.201H44.45v3.663h0.79c0.213,0,0.395-0.071,0.547-0.213
				c0.152-0.143,0.262-0.322,0.331-0.54c0.069-0.219,0.117-0.418,0.145-0.601c0.028-0.183,0.042-0.354,0.042-0.517
				s-0.012-0.329-0.034-0.501C46.247,12.854,46.206,12.663,46.148,12.453z"/>
		</g>
	</g>
</g>
</svg>
